<svg width="64" height="64" viewBox="0 0 64 64" fill="none" xmlns="http://www.w3.org/2000/svg">
<rect width="64" height="64" fill="#004EBB"/>
<path d="M30.5041 49.3476H23.0469C23.0345 49.3476 23.0225 49.3427 23.0137 49.3339C23.0049 49.3251 23 49.3132 23 49.3007V13.0098C23 12.9974 23.0049 12.9854 23.0137 12.9766C23.0225 12.9678 23.0345 12.9629 23.0469 12.9629H30.5012C30.5136 12.9629 30.5256 12.9678 30.5344 12.9766C30.5432 12.9854 30.5481 12.9974 30.5481 13.0098V30.4979C30.5481 30.5074 30.5511 30.5167 30.5565 30.5245C30.5619 30.5323 30.5696 30.5382 30.5785 30.5416C30.5874 30.5449 30.5971 30.5455 30.6064 30.5432C30.6156 30.5409 30.6239 30.5358 30.6302 30.5287L35.3906 24.8874C35.3951 24.8822 35.4008 24.878 35.4071 24.8752C35.4134 24.8725 35.4203 24.8711 35.4272 24.8713H44.8558C44.8647 24.8713 44.8735 24.8739 44.8811 24.8788C44.8886 24.8837 44.8946 24.8907 44.8983 24.8988C44.902 24.907 44.9033 24.9161 44.902 24.925C44.9006 24.9339 44.8968 24.9422 44.8909 24.949L35.0931 35.7918C35.0856 35.8004 35.0816 35.8113 35.0816 35.8226C35.0816 35.8339 35.0856 35.8449 35.0931 35.8534L46.7406 49.2699C46.7465 49.2767 46.7503 49.285 46.7516 49.2939C46.7529 49.3028 46.7516 49.3119 46.7479 49.3201C46.7442 49.3282 46.7382 49.3352 46.7307 49.3401C46.7232 49.345 46.7144 49.3476 46.7054 49.3476H37.1552C37.1483 49.3478 37.1414 49.3465 37.1351 49.3437C37.1288 49.3409 37.1231 49.3367 37.1186 49.3315L30.6302 41.6222C30.624 41.6145 30.6156 41.6089 30.6061 41.6063C30.5966 41.6036 30.5865 41.604 30.5773 41.6074C30.568 41.6108 30.5601 41.6171 30.5546 41.6252C30.5491 41.6334 30.5463 41.6431 30.5466 41.653L30.551 49.3007C30.551 49.3069 30.5498 49.313 30.5475 49.3187C30.5451 49.3244 30.5416 49.3295 30.5373 49.3339C30.5329 49.3382 30.5278 49.3417 30.5221 49.3441C30.5164 49.3464 30.5103 49.3476 30.5041 49.3476Z" fill="white"/>
</svg>
