<svg width="64" height="64" viewBox="0 0 64 64" fill="none" xmlns="http://www.w3.org/2000/svg">
<circle cx="32" cy="32" r="32" fill="#F1655B"/>
<path d="M36.7088 36.4744H25.3584L23.5984 41.1026H19L28.4112 17H32.0976C32.5577 17.0002 33.0069 17.1396 33.3866 17.3998C33.7663 17.66 34.0587 18.0289 34.2256 18.4583L43.0672 41.109H38.4688L36.7088 36.4744ZM26.5456 32.7596H35.5248L31.0448 20.5801L26.5456 32.7596Z" fill="white"/>
<path d="M47.0261 35.1706C47.673 34.9436 48.3777 34.9431 49.0248 35.1694C49.672 35.3956 50.2233 35.8352 50.5887 36.4161C50.954 36.9971 51.1116 37.685 51.0358 38.3673C50.96 39.0497 50.6553 39.686 50.1714 40.1723C49.6876 40.6587 49.0533 40.9661 48.3723 41.0443C47.6913 41.1226 47.0039 40.9671 46.4227 40.6032C45.8414 40.2392 45.4007 39.6885 45.1726 39.0411C44.9444 38.3937 44.9424 37.6879 45.1669 37.0392C45.3167 36.6078 45.5616 36.2158 45.8835 35.8923C46.2054 35.5687 46.5959 35.3221 47.0261 35.1706V35.1706Z" fill="white"/>
</svg>
