<svg width="600" height="600" viewBox="0 0 600 600" fill="none" xmlns="http://www.w3.org/2000/svg">
<g clip-path="url(#clip0_1620_246)">
<rect width="600" height="600" fill="white"/>
<rect y="150" width="300" height="300" fill="url(#paint0_linear_1620_246)"/>
<rect x="300" y="450" width="300" height="300" fill="url(#paint1_linear_1620_246)"/>
<rect x="300" y="-150" width="300" height="300" fill="url(#paint2_linear_1620_246)"/>
<rect x="300" y="150" width="300" height="300" transform="rotate(-180 300 150)" fill="url(#paint3_linear_1620_246)"/>
<rect x="300" y="150" width="300" height="300" fill="url(#paint4_linear_1620_246)"/>
<rect x="300" y="750" width="300" height="300" transform="rotate(-180 300 750)" fill="url(#paint5_linear_1620_246)"/>
<path d="M0 450C0 532.843 67.1573 600 150 600V300C67.1573 300 0 367.157 0 450Z" fill="url(#paint6_linear_1620_246)"/>
<path d="M150 600C232.843 600 300 532.843 300 450L150 450L150 600Z" fill="url(#paint7_linear_1620_246)"/>
<path d="M300 150C300 232.843 367.157 300 450 300V0C367.157 0 300 67.1573 300 150Z" fill="url(#paint8_linear_1620_246)"/>
<path d="M450 300C532.843 300 600 232.843 600 150L450 150L450 300Z" fill="url(#paint9_linear_1620_246)"/>
<path d="M300 150C300 67.1573 232.843 -5.87108e-06 150 -1.31134e-05L150 300C232.843 300 300 232.843 300 150Z" fill="url(#paint10_linear_1620_246)"/>
<path d="M150 0C67.1573 -3.62117e-06 -2.93554e-06 67.1573 -6.55671e-06 150L150 150L150 0Z" fill="url(#paint11_linear_1620_246)"/>
<path d="M600 450C600 367.157 532.843 300 450 300L450 600C532.843 600 600 532.843 600 450Z" fill="url(#paint12_linear_1620_246)"/>
<path d="M450 300C367.157 300 300 367.157 300 450L450 450L450 300Z" fill="url(#paint13_linear_1620_246)"/>
</g>
<defs>
<linearGradient id="paint0_linear_1620_246" x1="150" y1="150" x2="150" y2="450" gradientUnits="userSpaceOnUse">
<stop stop-color="#CDEC86"/>
<stop offset="0.505" stop-color="#AFF29D"/>
<stop offset="1" stop-color="#8BF0BA"/>
</linearGradient>
<linearGradient id="paint1_linear_1620_246" x1="450" y1="450" x2="450" y2="750" gradientUnits="userSpaceOnUse">
<stop stop-color="#CDEC86"/>
<stop offset="0.505" stop-color="#AFF29D"/>
<stop offset="1" stop-color="#8BF0BA"/>
</linearGradient>
<linearGradient id="paint2_linear_1620_246" x1="450" y1="-150" x2="450" y2="150" gradientUnits="userSpaceOnUse">
<stop stop-color="#CDEC86"/>
<stop offset="0.505" stop-color="#AFF29D"/>
<stop offset="1" stop-color="#8BF0BA"/>
</linearGradient>
<linearGradient id="paint3_linear_1620_246" x1="450" y1="150" x2="450" y2="450" gradientUnits="userSpaceOnUse">
<stop stop-color="#C4F5DB"/>
<stop offset="1" stop-color="#ECF5CF"/>
</linearGradient>
<linearGradient id="paint4_linear_1620_246" x1="450" y1="150" x2="450" y2="450" gradientUnits="userSpaceOnUse">
<stop stop-color="#C4F5DB"/>
<stop offset="1" stop-color="#ECF5CF"/>
</linearGradient>
<linearGradient id="paint5_linear_1620_246" x1="450" y1="750" x2="450" y2="1050" gradientUnits="userSpaceOnUse">
<stop stop-color="#C4F5DB"/>
<stop offset="1" stop-color="#ECF5CF"/>
</linearGradient>
<linearGradient id="paint6_linear_1620_246" x1="75" y1="300" x2="75" y2="600" gradientUnits="userSpaceOnUse">
<stop stop-color="#AAF3CC"/>
<stop offset="1" stop-color="#8BF0BA"/>
</linearGradient>
<linearGradient id="paint7_linear_1620_246" x1="150" y1="450" x2="300" y2="600" gradientUnits="userSpaceOnUse">
<stop stop-color="#B6F4D3"/>
<stop offset="1" stop-color="#C4F5DB"/>
</linearGradient>
<linearGradient id="paint8_linear_1620_246" x1="375" y1="0" x2="375" y2="300" gradientUnits="userSpaceOnUse">
<stop stop-color="#AAF3CC"/>
<stop offset="1" stop-color="#8BF0BA"/>
</linearGradient>
<linearGradient id="paint9_linear_1620_246" x1="450" y1="150" x2="600" y2="300" gradientUnits="userSpaceOnUse">
<stop stop-color="#B6F4D3"/>
<stop offset="1" stop-color="#C4F5DB"/>
</linearGradient>
<linearGradient id="paint10_linear_1620_246" x1="225" y1="300" x2="225" y2="-6.55671e-06" gradientUnits="userSpaceOnUse">
<stop stop-color="#AAF3CC"/>
<stop offset="1" stop-color="#8BF0BA"/>
</linearGradient>
<linearGradient id="paint11_linear_1620_246" x1="150" y1="150" x2="-4.47035e-06" y2="-1.10271e-05" gradientUnits="userSpaceOnUse">
<stop stop-color="#B6F4D3"/>
<stop offset="1" stop-color="#C4F5DB"/>
</linearGradient>
<linearGradient id="paint12_linear_1620_246" x1="525" y1="600" x2="525" y2="300" gradientUnits="userSpaceOnUse">
<stop stop-color="#AAF3CC"/>
<stop offset="1" stop-color="#8BF0BA"/>
</linearGradient>
<linearGradient id="paint13_linear_1620_246" x1="450" y1="450" x2="300" y2="300" gradientUnits="userSpaceOnUse">
<stop stop-color="#B6F4D3"/>
<stop offset="1" stop-color="#C4F5DB"/>
</linearGradient>
<clipPath id="clip0_1620_246">
<rect width="600" height="600" fill="white"/>
</clipPath>
</defs>
</svg>
