<svg width="112" height="25" viewBox="0 0 112 25" fill="none" xmlns="http://www.w3.org/2000/svg">
<path d="M24.1097 21.1465C24.1097 21.5398 24.0322 21.9292 23.8817 22.2926C23.7312 22.6559 23.5106 22.9861 23.2325 23.2642C22.9544 23.5423 22.6242 23.7629 22.2608 23.9134C21.8975 24.0639 21.508 24.1414 21.1147 24.1414H3.25276C2.45845 24.1414 1.69667 23.8259 1.13501 23.2642C0.573351 22.7025 0.257813 21.9408 0.257812 21.1465V3.2845C0.257813 2.49019 0.573351 1.72841 1.13501 1.16675C1.69667 0.605089 2.45845 0.289551 3.25276 0.289551H21.1147C21.508 0.289551 21.8975 0.367017 22.2608 0.517528C22.6242 0.668038 22.9544 0.888644 23.2325 1.16675C23.5106 1.44486 23.7312 1.77502 23.8817 2.13838C24.0322 2.50174 24.1097 2.8912 24.1097 3.2845V21.1465ZM12.9532 4.26358C12.9532 4.16254 12.9333 4.06248 12.8946 3.96914C12.8559 3.87579 12.7992 3.79097 12.7278 3.71952C12.6563 3.64807 12.5715 3.5914 12.4782 3.55273C12.3848 3.51406 12.2848 3.49416 12.1837 3.49416H12.1626C11.9585 3.49416 11.7628 3.57523 11.6185 3.71952C11.4742 3.86381 11.3932 4.05952 11.3932 4.26358V15.7913C11.3932 15.9954 11.4742 16.1911 11.6185 16.3354C11.7628 16.4797 11.9585 16.5607 12.1626 16.5607H12.1837C12.2848 16.5607 12.3848 16.5408 12.4782 16.5022C12.5715 16.4635 12.6563 16.4068 12.7278 16.3354C12.7992 16.2639 12.8559 16.1791 12.8946 16.0858C12.9333 15.9924 12.9532 15.8924 12.9532 15.7913V4.26358ZM8.9849 4.66848C8.9849 4.46468 8.90394 4.26922 8.75982 4.1251C8.61571 3.98099 8.42025 3.90003 8.21644 3.90003H8.19336C7.98956 3.90003 7.7941 3.98099 7.64998 4.1251C7.50587 4.26922 7.42491 4.46468 7.42491 4.66848V15.2883C7.42491 15.4921 7.50587 15.6876 7.64998 15.8317C7.7941 15.9758 7.98956 16.0568 8.19336 16.0568H8.21644C8.42025 16.0568 8.61571 15.9758 8.75982 15.8317C8.90394 15.6876 8.9849 15.4921 8.9849 15.2883V4.66848ZM16.9204 4.66752C16.9204 4.46371 16.8395 4.26825 16.6954 4.12414C16.5513 3.98003 16.3558 3.89907 16.152 3.89907H16.1289C15.9251 3.89907 15.7296 3.98003 15.5855 4.12414C15.4414 4.26825 15.3605 4.46371 15.3605 4.66752V15.2874C15.3605 15.4912 15.4414 15.6866 15.5855 15.8307C15.7296 15.9749 15.9251 16.0558 16.1289 16.0558H16.152C16.2529 16.0558 16.3528 16.0359 16.4461 15.9973C16.5393 15.9587 16.624 15.9021 16.6954 15.8307C16.7667 15.7594 16.8233 15.6747 16.862 15.5814C16.9006 15.4882 16.9204 15.3883 16.9204 15.2874V4.66752ZM5.01664 6.25251C5.01664 6.04998 4.93619 5.85575 4.79298 5.71254C4.64976 5.56933 4.45553 5.48887 4.253 5.48887H4.22222C4.01969 5.48887 3.82545 5.56933 3.68224 5.71254C3.53903 5.85575 3.45858 6.04998 3.45858 6.25251V13.4138C3.45858 13.6164 3.53903 13.8106 3.68224 13.9538C3.82545 14.097 4.01969 14.1775 4.22222 14.1775H4.253C4.45553 14.1775 4.64976 14.097 4.79298 13.9538C4.93619 13.8106 5.01664 13.6164 5.01664 13.4138V6.25251ZM20.9089 6.26213C20.9089 6.05679 20.8273 5.85987 20.6821 5.71467C20.5369 5.56948 20.34 5.48791 20.1347 5.48791H20.1039C19.8986 5.48791 19.7016 5.56948 19.5564 5.71467C19.4112 5.85987 19.3297 6.05679 19.3297 6.26213V13.4023C19.3297 13.6076 19.4112 13.8046 19.5564 13.9498C19.7016 14.095 19.8986 14.1765 20.1039 14.1765H20.1347C20.34 14.1765 20.5369 14.095 20.6821 13.9498C20.8273 13.8046 20.9089 13.6076 20.9089 13.4023V6.26213ZM19.5249 17.2474C15.4672 20.1347 8.87141 20.0693 4.79447 17.2263C4.58545 17.0807 4.41105 17.0019 4.27127 16.9897C3.7298 16.9445 3.29315 17.5841 3.5057 18.0553C3.58329 18.2265 3.76121 18.4064 4.03949 18.5949C7.94138 21.2465 13.1551 21.5389 17.5167 20.0154C18.735 19.5897 19.7615 19.0488 20.5963 18.3929C21.2176 17.9043 20.7839 16.855 19.9798 17.0147C19.8625 17.0378 19.7109 17.1154 19.5249 17.2474Z" fill="#889494"/>
<path d="M82.3145 15.4814C83.5098 16.1051 84.8648 15.6411 85.4642 14.4331C86.0543 13.2424 87.5274 13.8533 87.1154 15.0151C86.3945 17.0482 84.3371 17.6881 82.3735 17.3039C79.13 16.6698 78.7586 12.6812 79.3788 10.1135C79.9655 7.68115 82.083 6.61542 84.4459 7.07018C85.1811 7.21135 85.7897 7.50874 86.2719 7.96234C86.8423 8.49809 88.077 10.515 86.5426 10.8008C85.6169 10.9721 85.5695 10.1389 85.2073 9.59969C84.665 8.79355 83.8812 8.49115 82.856 8.69249C80.7836 9.09865 80.8333 12.1095 81.1122 13.6543C81.2522 14.4296 81.6005 15.1088 82.3145 15.4814Z" fill="#889494"/>
<path d="M97.9156 12.8814C97.7733 14.7572 97.1762 16.5299 95.2646 17.171C93.6839 17.7009 91.5015 17.4614 90.3525 16.1365C89.1236 14.7213 89.0461 12.0633 89.4337 10.3508C89.8445 8.52942 90.8165 7.34335 92.6853 7.04943C96.7156 6.413 98.1794 9.41232 97.9156 12.8814ZM95.8142 14.1913C96.3766 12.5771 96.3997 9.18204 94.1699 8.71803C93.0984 8.49354 92.0061 8.8592 91.5166 9.89369C90.8327 11.3366 90.7633 14.7375 92.5129 15.5313C93.7962 16.1145 95.3352 15.5648 95.8142 14.1913Z" fill="#889494"/>
<path d="M40.8286 9.24258C40.8261 9.23669 40.8215 9.23187 40.8158 9.22895C40.8101 9.22602 40.8035 9.22517 40.7973 9.22653C40.791 9.2279 40.7854 9.2314 40.7814 9.23643C40.7774 9.24147 40.7753 9.24773 40.7754 9.25415C40.8063 11.4736 40.8279 13.691 40.8402 15.9066C40.8425 16.2753 40.8171 16.531 40.7638 16.6737C40.4097 17.6319 39.0443 17.3194 39.0443 16.212C39.0443 13.9332 39.0435 11.6548 39.042 9.37681C39.0408 8.24628 39.138 7.23725 40.4317 7.1389C41.2926 7.0741 41.781 7.42008 42.1628 8.16528C43.5954 10.9602 44.68 13.1965 45.4167 14.8744C45.4452 14.9384 45.4672 14.9365 45.4827 14.8686C45.5139 14.7309 45.4456 14.5226 45.4445 14.4081C45.4128 12.3406 45.4009 10.2732 45.4086 8.20578C45.4094 7.94118 45.4433 7.7464 45.5104 7.62143C45.8391 7.01508 46.7532 7.0174 47.0656 7.60754C47.1559 7.77725 47.201 8.06075 47.201 8.45804C47.201 10.8001 47.201 13.1421 47.201 15.4842C47.201 16.5904 46.6988 17.4097 45.4734 17.2407C44.5292 17.11 44.329 16.5036 43.8314 15.5629C42.7375 13.4978 41.7366 11.391 40.8286 9.24258Z" fill="#889494"/>
<path d="M61.326 11.2041C62.5981 11.2018 63.8698 11.2026 65.1411 11.2064C66.2844 11.2099 66.363 12.7871 65.0393 12.7917C63.7957 12.7956 62.5499 12.796 61.3017 12.7929C61.2907 12.7929 61.2801 12.7971 61.2723 12.8047C61.2644 12.8123 61.26 12.8226 61.26 12.8334V15.5087C61.26 15.548 61.2797 15.5677 61.3191 15.5677C62.7339 15.5739 64.1436 15.575 65.5484 15.5712C65.8585 15.5704 66.0865 15.6225 66.2323 15.7274C66.657 16.0317 66.6593 16.8105 66.2068 17.0917C66.0695 17.1773 65.8493 17.2201 65.5461 17.2201C63.9647 17.2201 62.3836 17.2201 60.803 17.2201C59.9386 17.2189 59.4977 16.9748 59.4977 16.0792C59.4954 13.4509 59.4946 10.8227 59.4954 8.1944C59.4954 7.28373 60.1353 7.12636 60.9372 7.1252C62.3998 7.12366 63.8621 7.12327 65.3239 7.12404C65.6965 7.12404 65.9526 7.15374 66.0923 7.21314C66.6373 7.44341 66.7125 8.35987 66.2045 8.66883C66.0556 8.75986 65.8173 8.8046 65.4894 8.80306C64.0985 8.79688 62.7084 8.79766 61.3191 8.80537C61.2797 8.80614 61.26 8.8262 61.26 8.86554V11.1382C61.26 11.1821 61.282 11.2041 61.326 11.2041Z" fill="#889494"/>
<path d="M74.8165 13.0011C75.3372 13.9477 75.8649 14.8892 76.3995 15.8257C76.5684 16.1196 76.6506 16.3549 76.646 16.5316C76.6321 17.1761 75.7804 17.5695 75.2528 17.2837C75.0761 17.188 74.896 16.972 74.7124 16.6357C74.1176 15.5464 73.5259 14.4556 72.9373 13.3633C72.9203 13.3317 72.8941 13.3159 72.8586 13.3159H71.1542C71.1364 13.3159 71.1193 13.3229 71.1067 13.3355C71.0941 13.3481 71.087 13.3652 71.087 13.383C71.094 14.2956 71.0971 15.1735 71.0963 16.0166C71.0955 16.4054 71.0519 16.6808 70.9655 16.8428C70.6647 17.4029 69.6464 17.3705 69.393 16.7665C69.3336 16.6253 69.3039 16.3657 69.3039 15.9877C69.3023 13.4003 69.3023 10.8126 69.3039 8.22444C69.305 7.29294 69.9241 7.12978 70.7492 7.12631C71.7343 7.12246 72.719 7.12323 73.7033 7.12863C75.3384 7.13673 76.7628 7.87383 77.0232 9.57598C77.2731 11.2064 76.5187 12.5845 74.8385 12.9502C74.8333 12.9515 74.8284 12.9539 74.8243 12.9574C74.8202 12.9609 74.8169 12.9652 74.8148 12.9702C74.8127 12.9751 74.8117 12.9805 74.812 12.9858C74.8123 12.9912 74.8139 12.9964 74.8165 13.0011ZM71.072 8.87012L71.0627 11.6195C71.0627 11.6394 71.0707 11.6586 71.0848 11.6727C71.0989 11.6868 71.118 11.6947 71.138 11.6947L73.8468 11.704C74.0328 11.7046 74.2172 11.6701 74.3892 11.6025C74.5613 11.5348 74.7178 11.4354 74.8498 11.3098C74.9817 11.1841 75.0866 11.0348 75.1583 10.8704C75.23 10.7059 75.2672 10.5295 75.2678 10.3513V10.1661C75.269 9.80617 75.1209 9.46047 74.8562 9.20506C74.5914 8.94965 74.2317 8.80545 73.8561 8.80417L71.1472 8.79491C71.1373 8.79491 71.1276 8.79686 71.1184 8.80063C71.1093 8.80441 71.101 8.80996 71.094 8.81694C71.0871 8.82392 71.0815 8.83222 71.0777 8.84134C71.0739 8.85047 71.072 8.86025 71.072 8.87012Z" fill="#889494"/>
<path d="M34.9532 7.15991H34.9162C34.4318 7.15991 34.0391 7.55261 34.0391 8.03703V16.3684C34.0391 16.8529 34.4318 17.2456 34.9162 17.2456H34.9532C35.4376 17.2456 35.8303 16.8529 35.8303 16.3684V8.03703C35.8303 7.55261 35.4376 7.15991 34.9532 7.15991Z" fill="#889494"/>
<path d="M52.3696 8.83284C51.7093 8.83053 51.042 8.82937 50.3678 8.82937C49.4432 8.83053 49.1146 7.72893 49.7892 7.31467C49.9635 7.20744 50.254 7.15383 50.6605 7.15383C52.5636 7.15306 54.4671 7.15344 56.371 7.15499C57.4761 7.15499 57.586 8.84094 56.2819 8.83053C55.6208 8.82513 54.9597 8.82706 54.2986 8.83631C54.2546 8.83708 54.2326 8.85907 54.2326 8.90227C54.2272 11.2767 54.2268 13.6481 54.2315 16.0164C54.2322 16.4013 54.1875 16.6744 54.0972 16.8356C53.7975 17.3691 52.8417 17.3517 52.5536 16.7893C52.478 16.6412 52.4398 16.3971 52.439 16.0569C52.4352 13.6763 52.4348 11.2914 52.4379 8.90227C52.4379 8.85676 52.4151 8.83361 52.3696 8.83284Z" fill="#889494"/>
<path d="M109.778 9.16217C109.05 11.4456 108.295 13.7236 107.513 15.9962C107.348 16.4753 107.177 16.7943 106.999 16.9532C106.431 17.46 105.349 17.276 105.051 16.4649C104.17 14.0758 103.359 11.6708 102.616 9.25011C102.614 9.24292 102.609 9.23671 102.602 9.23266C102.596 9.22862 102.588 9.22701 102.581 9.22815C102.573 9.22929 102.567 9.2331 102.562 9.23886C102.558 9.24461 102.555 9.25191 102.556 9.25937C102.597 11.5544 102.611 13.8393 102.597 16.1143C102.596 16.4213 102.558 16.6462 102.484 16.7889C102.198 17.3432 101.275 17.3709 100.966 16.8676C100.862 16.6986 100.81 16.4174 100.81 16.024C100.805 13.5878 100.808 11.1521 100.819 8.71667C100.824 7.61622 101.605 7.05501 102.638 7.17304C103.572 7.2795 103.891 7.89741 104.198 8.77568C104.901 10.7922 105.56 12.8253 106.173 14.875C106.175 14.8807 106.178 14.8857 106.183 14.8893C106.188 14.8929 106.194 14.8948 106.2 14.8948C106.206 14.8948 106.211 14.8929 106.216 14.8893C106.221 14.8857 106.225 14.8807 106.226 14.875C106.858 12.7667 107.54 10.6776 108.271 8.60789C108.537 7.8546 108.845 7.33735 109.62 7.19965C111.168 6.92541 111.57 7.90782 111.57 9.19225C111.568 11.5196 111.568 13.8455 111.569 16.1698C111.57 16.4637 111.536 16.6759 111.468 16.8062C111.192 17.3408 110.287 17.357 109.974 16.893C109.864 16.7279 109.808 16.4518 109.805 16.0645C109.794 13.7687 109.804 11.4714 109.837 9.17258C109.837 9.1651 109.835 9.15765 109.83 9.1517C109.826 9.14575 109.819 9.14172 109.812 9.14042C109.804 9.13911 109.797 9.14062 109.79 9.14464C109.784 9.14867 109.78 9.15492 109.778 9.16217Z" fill="#889494"/>
</svg>
