<svg width="115" height="15" viewBox="0 0 115 15" fill="none" xmlns="http://www.w3.org/2000/svg">
<path d="M11.0224 11.8076H4.27812L3.23234 14.5577H0.5L6.09207 0.236084H8.2825C8.55586 0.236225 8.82282 0.319018 9.04842 0.473629C9.27403 0.628239 9.44779 0.847465 9.54695 1.10262L14.8006 14.5615H12.0682L11.0224 11.8076ZM4.98354 9.60034H10.3189L7.65694 2.36337L4.98354 9.60034Z" fill="#889494"/>
<path d="M25.5982 9.21373H23.1263V14.5615H20.626V0.236084H26.8797C29.6976 0.236084 31.5325 2.08341 31.5325 4.72491C31.5325 7.2807 29.8669 8.65572 28.1613 8.93378L31.6409 14.5615H28.7507L25.5982 9.21373ZM26.5375 2.44907H23.1149V7.00265H26.5375C27.9464 7.00265 28.9713 6.09993 28.9713 4.71729C28.9713 3.33465 27.9464 2.44907 26.5375 2.44907V2.44907Z" fill="#889494"/>
<path d="M41.0595 2.44912H36.749V1.60354C36.7485 1.24222 36.8912 0.89547 37.1458 0.639444C37.4003 0.383417 37.7459 0.239046 38.1066 0.238037H47.8685V2.44912H43.558V14.5615H41.0595V2.44912Z" fill="#889494"/>
<path d="M53.6191 0.236084H54.76C55.1207 0.237093 55.4663 0.381464 55.7209 0.63749C55.9754 0.893517 56.1181 1.24027 56.1176 1.60159V14.5519H53.6191V0.236084Z" fill="#889494"/>
<path d="M61.9385 7.41027C61.9385 3.00715 65.2032 0 69.3027 0C72.2898 0 74.0562 1.50262 75.1286 3.22235L72.9952 4.31742C72.6143 3.67805 72.0732 3.14946 71.4255 2.78401C70.7778 2.41856 70.046 2.22894 69.3027 2.23394C66.5893 2.23394 64.4978 4.40312 64.4978 7.41027C64.4978 10.4174 66.5893 12.5866 69.3008 12.5866C70.045 12.596 70.7784 12.4083 71.4269 12.0424C72.0753 11.6765 72.6157 11.1455 72.9933 10.5031L75.1267 11.5982C74.0391 13.3122 72.2879 14.8205 69.3008 14.8205C65.2032 14.8205 61.9385 11.8077 61.9385 7.41027Z" fill="#889494"/>
<path d="M82.3411 0.236084H83.4819V12.3504H89.7566V14.5615H80.9834V1.61111C80.9819 1.4314 81.0159 1.25316 81.0834 1.08665C81.1509 0.920141 81.2506 0.768638 81.3768 0.640854C81.503 0.51307 81.6531 0.411526 81.8186 0.342061C81.9841 0.272595 82.1616 0.23658 82.3411 0.236084V0.236084Z" fill="#889494"/>
<path d="M97.0129 0.236084H105.41V2.44907H98.1538V6.16468H105.261V8.37958H98.1538V12.3504H105.41V14.5615H95.6553V1.61111C95.6538 1.4314 95.6878 1.25316 95.7553 1.08665C95.8228 0.920141 95.9225 0.768638 96.0487 0.640854C96.1748 0.51307 96.325 0.411526 96.4905 0.342061C96.6559 0.272595 96.8335 0.23658 97.0129 0.236084V0.236084Z" fill="#889494"/>
<path d="M112.206 11.3467C112.59 11.2118 113.009 11.2116 113.393 11.346C113.778 11.4804 114.106 11.7416 114.323 12.0868C114.54 12.432 114.633 12.8407 114.588 13.2462C114.543 13.6516 114.362 14.0298 114.075 14.3187C113.787 14.6077 113.41 14.7904 113.006 14.8369C112.601 14.8834 112.193 14.7909 111.847 14.5747C111.502 14.3585 111.24 14.0313 111.104 13.6466C110.969 13.2619 110.968 12.8425 111.101 12.457C111.19 12.2007 111.336 11.9678 111.527 11.7755C111.718 11.5833 111.95 11.4367 112.206 11.3467V11.3467Z" fill="#889494"/>
</svg>
