<svg width="65" height="64" viewBox="0 0 65 64" fill="none" xmlns="http://www.w3.org/2000/svg">
<rect width="64" height="64" transform="translate(0.5)" fill="white"/>
<path d="M33.3887 25.8517C36.2527 25.8517 38.5744 23.53 38.5744 20.6661C38.5744 17.8021 36.2527 15.4805 33.3887 15.4805C30.5248 15.4805 28.2031 17.8021 28.2031 20.6661C28.2031 23.53 30.5248 25.8517 33.3887 25.8517Z" fill="#7B83EB"/>
<path d="M33.0198 21.7773H28.3242L28.3475 21.8806L28.3498 21.8895L28.373 21.9852C29.078 24.6573 31.7998 26.322 34.4997 25.7318V23.2584C34.4973 22.4469 33.8303 21.7798 33.0187 21.7773H33.0198Z" fill="black" fill-opacity="0.098039"/>
<path d="M31.9077 22.8887H28.7031C29.56 24.6955 31.3889 25.8521 33.3887 25.8521V24.3708C33.3863 23.5592 32.7191 22.8922 31.9077 22.8898V22.8887Z" fill="black" fill-opacity="0.2"/>
<path d="M45.0569 26.2214C47.2048 26.2214 48.9459 24.4802 48.9459 22.3324C48.9459 20.1846 47.2048 18.4434 45.0569 18.4434C42.9091 18.4434 41.168 20.1846 41.168 22.3324C41.168 24.4802 42.9091 26.2214 45.0569 26.2214Z" fill="#5059C9"/>
<path d="M48.3859 27.332H39.6514C39.2619 27.332 38.9414 27.6525 38.9414 28.042V37.053C38.8913 39.731 40.7386 42.0995 43.348 42.7031C43.7238 42.782 44.1065 42.8216 44.4904 42.8216C47.5404 42.8216 50.0506 40.3131 50.0525 37.2631V28.9986C50.0525 28.0843 49.3002 27.332 48.3859 27.332Z" fill="#5059C9"/>
<path d="M42.2778 28.9987V39.5592C42.2778 44.4324 38.2678 48.4424 33.3944 48.4424C30.2238 48.4424 27.2847 46.745 25.7 43.9986C25.4862 43.6432 25.3005 43.2717 25.1444 42.8875C24.9989 42.5252 24.8766 42.1541 24.7778 41.7764C24.5946 41.0498 24.5013 40.3034 24.5 39.5542V28.9986C24.5 28.9979 24.5 28.9971 24.5 28.9965C24.5 28.0833 25.2514 27.332 26.1645 27.332H40.6133C41.5264 27.332 42.2778 28.0833 42.2778 28.9965V28.9987Z" fill="#7B83EB"/>
<path d="M31.9077 22.8887H28.7031C29.56 24.6956 31.3889 25.8521 33.3887 25.8521V24.3709C33.3863 23.5593 32.7191 22.8923 31.9077 22.8898V22.8887Z" fill="black" fill-opacity="0.2"/>
<path d="M34.5 27.332V41.4097C34.5 42.0974 34.0165 42.6971 33.3445 42.8431C33.2399 42.8741 33.1313 42.8891 33.0222 42.8875H25.1444C24.9989 42.5252 24.8766 42.1541 24.7778 41.7764C24.5946 41.0498 24.5013 40.3034 24.5 39.5542V28.9986C24.5 28.9979 24.5 28.9971 24.5 28.9965C24.5 28.0833 25.2514 27.332 26.1645 27.332H34.5Z" fill="black" fill-opacity="0.098039"/>
<path d="M33.3889 27.332V42.5208C33.3905 42.6299 33.3755 42.7385 33.3445 42.8431C33.1985 43.5151 32.5988 43.9986 31.9111 43.9986H25.7C25.4862 43.6432 25.3005 43.2717 25.1445 42.8875C24.9989 42.5252 24.8766 42.1541 24.7778 41.7764C24.5946 41.0498 24.5013 40.3034 24.5 39.5542V28.9986C24.5 28.9979 24.5 28.9971 24.5 28.9965C24.5 28.0833 25.2514 27.332 26.1645 27.332H33.3889ZM33.3889 27.332V40.2986C33.3852 41.108 32.7205 41.7727 31.9111 41.7764H24.7778C24.5946 41.0498 24.5013 40.3034 24.5 39.5542V28.9986C24.5 28.9979 24.5 28.9971 24.5 28.9965C24.5 28.0833 25.2514 27.332 26.1645 27.332H33.3889ZM26.1666 27.332C26.166 27.332 26.1651 27.332 26.1645 27.332C25.2514 27.332 24.5 28.0833 24.5 28.9965V39.5542C24.5013 40.3034 24.5946 41.0498 24.7778 41.7764H30.8C31.6093 41.7727 32.2741 41.108 32.2778 40.2986V27.332H26.1666Z" fill="black" fill-opacity="0.2"/>
<path d="M15.9811 22.8887H30.7956C31.608 22.8887 32.2766 23.5573 32.2766 24.3698V39.1843C32.2766 39.9968 31.608 40.6654 30.7956 40.6654H15.9811C15.1686 40.6654 14.5 39.9968 14.5 39.1843V24.3698C14.5 23.5573 15.1686 22.8887 15.9811 22.8887Z" fill="#4B53BC"/>
<path d="M27.8122 28.4155H24.4909V37.3267H22.3088V28.4155H18.9688V26.2266H27.8122V28.4155Z" fill="white"/>
</svg>
