<svg width="65" height="64" viewBox="0 0 65 64" fill="none" xmlns="http://www.w3.org/2000/svg">
<rect width="64" height="64" transform="translate(0.5)" fill="white"/>
<path fill-rule="evenodd" clip-rule="evenodd" d="M28.1163 19.6114C29.6412 18.0239 31.7636 17.0409 34.1084 17.0409C37.2347 17.0409 39.9442 18.7777 41.4031 21.3656C42.6982 20.7867 44.1009 20.4878 45.5194 20.4885C51.1468 20.4885 55.7147 25.0911 55.7147 30.7706C55.7147 36.4501 51.1468 41.0527 45.5194 41.0527C44.8316 41.0527 44.1612 40.9836 43.5047 40.853C42.2281 43.1283 39.7879 44.674 37.0089 44.674C35.8775 44.6763 34.7606 44.4196 33.7436 43.9237C32.4497 46.9632 29.4363 49.0995 25.9279 49.0995C22.2631 49.0995 19.1542 46.7895 17.9557 43.5416C17.4224 43.6542 16.8787 43.7108 16.3335 43.7104C11.9741 43.7104 8.44824 40.1325 8.44824 35.7383C8.44824 32.7857 10.0357 30.2152 12.3909 28.8257C11.8913 27.6747 11.6341 26.4331 11.6354 25.1783C11.6354 20.1068 15.7517 16.0078 20.8233 16.0078C23.7933 16.0078 26.4506 17.4233 28.118 19.6204" fill="#00A1E0"/>
<path fill-rule="evenodd" clip-rule="evenodd" d="M15.333 33.1586C15.3033 33.2361 15.3436 33.2522 15.3531 33.266C15.4419 33.3302 15.532 33.3768 15.6223 33.4291C16.1052 33.6844 16.5602 33.7591 17.0361 33.7591C18.0053 33.7591 18.608 33.2432 18.608 32.413V32.3967C18.608 31.629 17.9271 31.3494 17.2914 31.1496L17.2082 31.1227C16.7271 30.9667 16.312 30.8309 16.312 30.5148V30.4987C16.312 30.2277 16.5552 30.028 16.9303 30.028C17.3472 30.028 17.8439 30.1667 18.1618 30.3423C18.1618 30.3423 18.2559 30.4031 18.2901 30.3123C18.3087 30.2631 18.4707 29.8295 18.4881 29.7808C18.5065 29.7299 18.4742 29.6915 18.441 29.6717C18.0763 29.4494 17.5726 29.2983 17.0516 29.2983L16.9548 29.2987C16.0673 29.2987 15.4472 29.8354 15.4472 30.603V30.6195C15.4472 31.4289 16.1316 31.6929 16.7707 31.8753L16.8735 31.9072C17.339 32.0504 17.742 32.1747 17.742 32.5012V32.5176C17.742 32.818 17.4797 33.0421 17.0594 33.0421C16.8959 33.0421 16.3751 33.0393 15.8106 32.6826C15.7423 32.6428 15.7034 32.6141 15.6508 32.582C15.623 32.5652 15.5535 32.5348 15.5233 32.6258L15.3323 33.1572L15.333 33.1586ZM29.5223 33.1572C29.4926 33.2347 29.5329 33.2509 29.5428 33.2646C29.6312 33.3288 29.7217 33.3754 29.812 33.4277C30.2948 33.683 30.7499 33.7577 31.2258 33.7577C32.1949 33.7577 32.7976 33.2418 32.7976 32.4116V32.3953C32.7976 31.6276 32.1185 31.348 31.4811 31.1482L31.3979 31.1213C30.9168 30.9653 30.5017 30.8295 30.5017 30.5134V30.4973C30.5017 30.2263 30.7448 30.0266 31.12 30.0266C31.5368 30.0266 32.0318 30.1654 32.3514 30.341C32.3514 30.341 32.4455 30.4017 32.4799 30.3109C32.4983 30.2618 32.6606 29.8281 32.6762 29.7794C32.6948 29.7285 32.6623 29.6902 32.6293 29.6704C32.2646 29.448 31.7609 29.2969 31.2398 29.2969L31.1429 29.2973C30.2554 29.2973 29.6353 29.834 29.6353 30.6017V30.6182C29.6353 31.4275 30.3197 31.6915 30.9588 31.8739L31.0615 31.9058C31.5287 32.049 31.9299 32.1733 31.9299 32.4999V32.5162C31.9299 32.8166 31.6676 33.0407 31.2473 33.0407C31.0835 33.0407 30.5612 33.0379 29.9985 32.6812C29.9303 32.6414 29.8903 32.614 29.8385 32.5806C29.821 32.5695 29.7392 32.5375 29.7112 32.6244L29.5202 33.1559L29.5223 33.1572ZM39.2118 31.5302C39.2118 31.9991 39.1242 32.3691 38.953 32.6313C38.7821 32.8901 38.524 33.0169 38.1644 33.0169C37.8049 33.0169 37.5479 32.8912 37.3794 32.6331C37.2097 32.3725 37.1241 32.0009 37.1241 31.5319C37.1241 31.063 37.2102 30.6948 37.3794 30.436C37.5475 30.1789 37.8032 30.0556 38.1644 30.0556C38.5257 30.0556 38.7828 30.1801 38.953 30.436C39.1253 30.6948 39.2118 31.063 39.2118 31.5319V31.5302ZM40.0211 30.6618C39.9414 30.3925 39.8179 30.1563 39.6529 29.9583C39.4877 29.7603 39.2795 29.6005 39.0311 29.4859C38.7845 29.3704 38.4927 29.3122 38.1627 29.3122C37.8327 29.3122 37.5427 29.3708 37.2943 29.4859C37.0477 29.6012 36.8375 29.7603 36.6725 29.9583C36.5078 30.1563 36.3842 30.3925 36.3043 30.6618C36.2253 30.9292 36.1851 31.221 36.1851 31.5319C36.1851 31.8428 36.2253 32.1346 36.3043 32.4021C36.3837 32.6713 36.5075 32.9075 36.6725 33.1055C36.8377 33.3035 37.0477 33.4615 37.2943 33.5744C37.5427 33.687 37.8344 33.7443 38.1627 33.7443C38.491 33.7443 38.7828 33.687 39.0294 33.5744C39.276 33.4619 39.4862 33.3035 39.6512 33.1055C39.816 32.9075 39.9395 32.6713 40.0194 32.4021C40.0982 32.1346 40.1384 31.8428 40.1384 31.5319C40.1384 31.2227 40.0982 30.9292 40.0194 30.6618H40.0211ZM46.6715 32.8849C46.6449 32.8062 46.5682 32.8359 46.5682 32.8359C46.4506 32.8809 46.325 32.9226 46.1913 32.9434C46.0565 32.9646 45.9064 32.9752 45.7484 32.9752C45.3576 32.9752 45.0449 32.8587 44.8226 32.6279C44.5986 32.3969 44.4735 32.0252 44.4753 31.5215C44.4765 31.063 44.5873 30.7191 44.7862 30.4551C44.9824 30.1945 45.2846 30.0591 45.6841 30.0591C46.0176 30.0591 46.2729 30.0978 46.5404 30.1815C46.5404 30.1815 46.6038 30.2091 46.6342 30.1256C46.7052 29.9293 46.7576 29.7886 46.8339 29.5733C46.8554 29.5116 46.8026 29.4856 46.7834 29.4781C46.6784 29.4371 46.4308 29.3699 46.2432 29.3416C46.0678 29.3148 45.8646 29.3009 45.6353 29.3009C45.2949 29.3009 44.9927 29.3591 44.7339 29.4744C44.4751 29.5896 44.2562 29.7489 44.0826 29.9469C43.9089 30.1449 43.7769 30.3811 43.6883 30.6503C43.6006 30.9178 43.5563 31.2113 43.5563 31.5222C43.5563 32.1926 43.7369 32.7362 44.0947 33.134C44.4525 33.5334 44.9909 33.7349 45.6926 33.7349C46.1077 33.7349 46.5332 33.651 46.8389 33.53C46.8389 33.53 46.8973 33.5018 46.8719 33.4338L46.6722 32.8849H46.6715ZM48.0877 31.0786C48.1265 30.8181 48.1978 30.601 48.31 30.4325C48.478 30.1754 48.7338 30.0348 49.0934 30.0348C49.4529 30.0348 49.6908 30.1761 49.861 30.4325C49.9739 30.6018 50.0233 30.8267 50.0417 31.0786L48.079 31.0782L48.0877 31.0786ZM50.8146 30.5054C50.7456 30.2466 50.5749 29.9844 50.4637 29.8645C50.2866 29.6752 50.1146 29.5415 49.9427 29.4685C49.6944 29.363 49.4274 29.3088 49.1576 29.3093C48.8155 29.3093 48.5046 29.3671 48.2527 29.4847C48.0009 29.6031 47.789 29.7643 47.6222 29.9658C47.4557 30.1673 47.3305 30.4052 47.2506 30.6779C47.1707 30.9471 47.1304 31.2424 47.1304 31.5515C47.1304 31.8676 47.1722 32.1612 47.2546 32.4269C47.3378 32.6944 47.4717 32.9288 47.6523 33.1234C47.8329 33.3196 48.0639 33.4725 48.3418 33.5802C48.618 33.687 48.9532 33.7424 49.337 33.7412C50.129 33.7386 50.5459 33.5623 50.7161 33.4667C50.7465 33.4497 50.7751 33.4204 50.7394 33.3358L50.5605 32.8338C50.533 32.759 50.4573 32.7861 50.4573 32.7861C50.261 32.8594 49.9831 32.991 49.3318 32.9893C48.9063 32.9886 48.5919 32.863 48.3939 32.6662C48.1925 32.4648 48.0917 32.1712 48.0761 31.7544L50.8203 31.7565C50.8203 31.7565 50.8925 31.7558 50.9 31.6853C50.903 31.6561 50.994 31.1225 50.8182 30.506L50.8146 30.5054ZM26.1514 31.0786C26.1901 30.8181 26.2617 30.601 26.3737 30.4325C26.5418 30.1754 26.7975 30.0348 27.157 30.0348C27.5166 30.0348 27.7545 30.1761 27.9247 30.4325C28.0374 30.6018 28.0868 30.8267 28.1054 31.0786L26.1427 31.0782L26.1514 31.0786ZM28.8782 30.5054C28.8095 30.2466 28.6386 29.9844 28.5274 29.8645C28.3502 29.6752 28.1783 29.5415 28.0064 29.4685C27.7581 29.363 27.4911 29.3088 27.2213 29.3093C26.8791 29.3093 26.5682 29.3671 26.3164 29.4847C26.0646 29.6031 25.8527 29.7643 25.6859 29.9658C25.5197 30.1673 25.3941 30.4052 25.3142 30.6779C25.2345 30.9471 25.1944 31.2424 25.1944 31.5515C25.1944 31.8676 25.2359 32.1612 25.3188 32.4269C25.4018 32.6944 25.5359 32.9288 25.7148 33.1234C25.8954 33.3196 26.1264 33.4725 26.4043 33.5802C26.6804 33.687 27.0139 33.7424 27.3995 33.7412C28.1915 33.7386 28.6083 33.5623 28.7786 33.4667C28.8088 33.4497 28.8376 33.4204 28.8017 33.3358L28.6228 32.8338C28.5951 32.759 28.5194 32.7861 28.5194 32.7861C28.3232 32.8594 28.0453 32.991 27.3939 32.9893C26.9702 32.9886 26.654 32.863 26.456 32.6662C26.2546 32.4648 26.1538 32.1712 26.1382 31.7544L28.8824 31.7565C28.8824 31.7565 28.9547 31.7558 28.9621 31.6853C28.9651 31.6561 29.0561 31.1225 28.8802 30.506L28.8782 30.5054ZM20.2288 32.8675C20.1213 32.7817 20.1063 32.7607 20.0707 32.705C20.0164 32.6211 19.9886 32.5018 19.9886 32.3489C19.9886 32.1092 20.0685 31.9355 20.2335 31.8192C20.2317 31.8195 20.4697 31.6142 21.0289 31.6212C21.2779 31.6256 21.5262 31.6468 21.7723 31.6846V32.9299H21.7727C21.7727 32.9299 21.4253 33.0048 21.0328 33.0284C20.4752 33.0619 20.2286 32.8679 20.2303 32.8684L20.2288 32.8675ZM21.3195 30.9396C21.2084 30.9315 21.0642 30.9275 20.8922 30.9275C20.6578 30.9275 20.4302 30.9567 20.2184 31.014C20.0047 31.0716 19.8119 31.1609 19.6469 31.2797C19.4815 31.3978 19.3454 31.5523 19.2492 31.7313C19.1521 31.9119 19.1026 32.1238 19.1026 32.3635C19.1026 32.6067 19.1448 32.8168 19.2282 32.9888C19.3099 33.1593 19.4329 33.3068 19.586 33.4178C19.7383 33.5286 19.9264 33.6106 20.1435 33.6592C20.3589 33.7083 20.602 33.7332 20.8695 33.7332C21.1509 33.7332 21.4305 33.7096 21.7014 33.6639C21.9322 33.6241 22.1621 33.5794 22.391 33.5298C22.4823 33.5088 22.5838 33.4812 22.5838 33.4812C22.6515 33.464 22.6463 33.3915 22.6463 33.3915L22.6447 30.8905C22.6447 30.3416 22.4981 29.9335 22.2088 29.6816C21.9205 29.4298 21.4984 29.303 20.9513 29.303C20.7464 29.303 20.4146 29.3308 20.2166 29.3706C20.2166 29.3706 19.6191 29.4866 19.3725 29.6797C19.3725 29.6797 19.3183 29.7131 19.3478 29.7886L19.5424 30.3097C19.5665 30.3773 19.6323 30.3542 19.6323 30.3542C19.6323 30.3542 19.653 30.346 19.6773 30.3316C20.2036 30.045 20.8705 30.0537 20.8705 30.0537C21.1658 30.0537 21.3951 30.1136 21.5479 30.2308C21.6974 30.3456 21.7737 30.5192 21.7737 30.8839V30.9997C21.5392 30.9657 21.3221 30.9461 21.3221 30.9461L21.3195 30.9396ZM43.3774 29.5276C43.3814 29.5184 43.3834 29.5086 43.3835 29.4986C43.3835 29.4886 43.3816 29.4787 43.3777 29.4695C43.3739 29.4603 43.3683 29.452 43.3611 29.445C43.354 29.438 43.3455 29.4326 43.3362 29.4289C43.2895 29.4112 43.0566 29.3621 42.8777 29.351C42.5338 29.3294 42.3428 29.3874 42.1708 29.4645C42.001 29.5411 41.813 29.6643 41.7088 29.8067L41.7085 29.4732C41.7085 29.4274 41.676 29.3904 41.6298 29.3904H40.9281C40.8826 29.3904 40.8496 29.4274 40.8496 29.4732V33.5548C40.8497 33.5769 40.8584 33.598 40.874 33.6136C40.8896 33.6292 40.9107 33.638 40.9328 33.638H41.6519C41.6739 33.638 41.695 33.6292 41.7106 33.6136C41.7261 33.598 41.7349 33.5768 41.7349 33.5548V31.5053C41.7349 31.2309 41.7651 30.9582 41.8254 30.7863C41.8848 30.6162 41.9655 30.4806 42.065 30.3833C42.16 30.2894 42.2762 30.2197 42.4037 30.1801C42.5234 30.1458 42.6474 30.1283 42.7719 30.1284C42.9152 30.1284 43.0724 30.1652 43.0724 30.1652C43.1252 30.1711 43.1546 30.1388 43.1725 30.0912C43.2195 29.966 43.3531 29.591 43.3791 29.5163" fill="#FFFFFE"/>
<path fill-rule="evenodd" clip-rule="evenodd" d="M36.662 27.644C36.5731 27.6172 36.4827 27.5957 36.3912 27.5798C36.2682 27.5592 36.1436 27.5496 36.0188 27.5509C35.5233 27.5509 35.1327 27.6909 34.8585 27.9674C34.5861 28.2418 34.4008 28.6599 34.3079 29.21L34.2744 29.3956H33.6524C33.6524 29.3956 33.5765 29.3925 33.5605 29.4753L33.4584 30.045C33.4513 30.0996 33.4747 30.1336 33.5477 30.1333H34.1531L33.5388 33.5623C33.4907 33.8385 33.4356 34.0656 33.3747 34.2378C33.3146 34.4076 33.2559 34.5349 33.1836 34.6273C33.1136 34.7168 33.0473 34.7826 32.9328 34.821C32.8383 34.8528 32.7296 34.8674 32.6105 34.8674C32.5441 34.8674 32.4559 34.8563 32.3908 34.8432C32.3256 34.8304 32.2918 34.8158 32.243 34.7953C32.243 34.7953 32.1719 34.7682 32.144 34.8394C32.1212 34.8976 31.9599 35.3414 31.9407 35.3962C31.9213 35.4504 31.9486 35.4932 31.9829 35.5055C32.0635 35.5343 32.1235 35.5527 32.2332 35.5786C32.3857 35.6146 32.5142 35.6168 32.6346 35.6168C32.8868 35.6168 33.1166 35.5814 33.3071 35.5126C33.4989 35.4433 33.6658 35.3226 33.8134 35.1592C33.973 34.9829 34.0734 34.7982 34.1695 34.5464C34.2645 34.2968 34.3454 33.987 34.4102 33.6259L35.0275 30.1333H35.9299C35.9299 30.1333 36.006 30.136 36.0218 30.0535L36.1239 29.4839C36.131 29.4293 36.1078 29.3953 36.0345 29.3956H35.1586C35.1629 29.3758 35.2027 29.0677 35.3033 28.7777C35.3462 28.6538 35.4269 28.554 35.4954 28.4853C35.5593 28.42 35.638 28.371 35.7248 28.3426C35.82 28.3131 35.9192 28.2988 36.0188 28.3002C36.1013 28.3002 36.1823 28.3101 36.2439 28.323C36.3289 28.341 36.3619 28.3506 36.3841 28.3572C36.4734 28.3844 36.4854 28.358 36.5029 28.3148L36.7124 27.7395C36.7339 27.6777 36.6815 27.6517 36.662 27.644ZM24.4218 33.5696C24.4218 33.6155 24.3891 33.6528 24.3433 33.6528H23.6168C23.5707 33.6528 23.5381 33.6155 23.5381 33.5696V27.722C23.5381 27.6763 23.5707 27.6393 23.6168 27.6393H24.3433C24.3891 27.6393 24.4218 27.6763 24.4218 27.722V33.5696Z" fill="#FFFFFE"/>
</svg>
