<svg width="65" height="64" viewBox="0 0 65 64" fill="none" xmlns="http://www.w3.org/2000/svg">
<rect width="64" height="64" transform="translate(0.5)" fill="#008561"/>
<path d="M40.1083 22.7283C40.1083 24.7981 39.199 26.6285 37.7067 28.0611C36.0475 29.6522 33.644 30.0499 33.644 31.4034C33.644 33.2338 36.7112 32.6758 39.6537 35.5006C41.6025 37.3715 42.8033 39.839 42.8033 42.7026C42.8033 48.3522 38.0788 52.849 32.1517 52.849C26.2245 52.849 21.5 48.3574 21.5 42.7078C21.5 39.8426 22.7027 37.375 24.6497 35.5059C27.5922 32.6794 30.6593 33.2373 30.6593 31.4069C30.6593 30.0534 28.2577 29.6557 26.5985 28.0646C25.1062 26.632 24.195 24.8016 24.195 22.6526C24.195 18.5166 27.7168 15.1726 32.027 15.1726C32.8575 15.1726 33.6037 15.2923 34.2252 15.2923C35.3435 15.2923 35.9247 14.8154 35.9247 14.0586C35.9247 13.6203 35.7157 13.0642 35.7157 12.4675C35.7157 11.1141 36.9183 10 38.3685 10C39.8205 10 40.981 11.1546 40.981 12.5467C40.981 14.0181 39.7783 14.6939 38.8672 15.0142C38.121 15.2518 37.5398 15.5704 37.5398 16.2867C37.5398 17.6349 40.1102 18.9496 40.1102 22.7283H40.1083ZM39.2833 42.7078C39.2833 38.769 36.2583 35.5851 32.1535 35.5851C28.0505 35.5851 25.0255 38.769 25.0255 42.7078C25.0255 46.6062 28.0505 49.8306 32.1535 49.8306C36.2565 49.8306 39.2833 46.6027 39.2833 42.7078ZM36.8358 22.6491C36.8358 20.1429 34.722 18.0731 32.1517 18.0731C29.5832 18.0731 27.4693 20.1429 27.4693 22.6491C27.4693 25.1554 29.5832 27.2251 32.1517 27.2251C34.722 27.2251 36.8358 25.1554 36.8358 22.6491V22.6491Z" fill="white"/>
</svg>
