<svg width="65" height="64" viewBox="0 0 65 64" fill="none" xmlns="http://www.w3.org/2000/svg">
<rect width="64" height="64" transform="translate(0.5)" fill="white"/>
<path d="M50.4993 32.9271C50.4993 31.6695 50.3981 30.4052 50.1822 29.168H32.8604V36.292H42.7798C42.3681 38.5896 41.0456 40.6221 39.1089 41.9137V46.5361H45.0268C48.502 43.314 50.4993 38.5556 50.4993 32.9271Z" fill="#4285F4"/>
<path d="M32.8611 51.0019C37.814 51.0019 41.991 49.3637 45.0343 46.5358L39.1164 41.9134C37.4699 43.0418 35.3443 43.6808 32.8678 43.6808C28.0768 43.6808 24.0146 40.4247 22.557 36.0469H16.4502V40.8121C19.5677 47.0593 25.9175 51.0019 32.8611 51.0019Z" fill="#34A853"/>
<path d="M22.5497 36.0458C21.7804 33.7481 21.7804 31.2602 22.5497 28.9625V24.1973H16.4496C13.8449 29.4248 13.8449 35.5835 16.4496 40.811L22.5497 36.0458Z" fill="#FBBC04"/>
<path d="M32.8611 21.3224C35.4792 21.2816 38.0097 22.2741 39.9059 24.0958L45.149 18.814C41.829 15.6735 37.4226 13.9468 32.8611 14.0012C25.9175 14.0012 19.5677 17.9439 16.4502 24.1978L22.5503 28.963C24.0011 24.5785 28.0701 21.3224 32.8611 21.3224Z" fill="#EA4335"/>
</svg>
