<svg width="65" height="64" viewBox="0 0 65 64" fill="none" xmlns="http://www.w3.org/2000/svg">
<rect width="64" height="64" transform="translate(0.5)" fill="white"/>
<path d="M52.6358 30.8247L34.563 12.7518L32.8111 11L19.2066 24.6045L12.9864 30.8247C12.6749 31.1365 12.5 31.5593 12.5 32C12.5 32.4407 12.6749 32.8634 12.9864 33.1753L25.4156 45.6045L32.8111 53L46.4156 39.3955L46.6263 39.1848L52.6358 33.1753C52.9473 32.8634 53.1222 32.4407 53.1222 32C53.1222 31.5593 52.9473 31.1365 52.6358 30.8247ZM32.8111 38.2091L26.602 32L32.8111 25.7909L39.0202 32L32.8111 38.2091Z" fill="#2684FF"/>
<path d="M32.811 25.7918C30.8582 23.8388 29.7574 21.1923 29.7491 18.4305C29.7408 15.6686 30.8256 13.0156 32.7666 11.0508L19.1787 24.6332L26.5742 32.0286L32.811 25.7918Z" fill="url(#paint0_linear_395_1334)"/>
<path d="M39.0372 31.9844L32.8115 38.2101C33.783 39.1811 34.5537 40.334 35.0796 41.6029C35.6054 42.8719 35.876 44.232 35.876 45.6056C35.876 46.9791 35.6054 48.3393 35.0796 49.6082C34.5537 50.8772 33.783 52.0301 32.8115 53.001L46.4326 39.3799L39.0372 31.9844Z" fill="url(#paint1_linear_395_1334)"/>
<defs>
<linearGradient id="paint0_linear_395_1334" x1="31.7022" y1="19.5107" x2="23.0317" y2="28.1812" gradientUnits="userSpaceOnUse">
<stop offset="0.18" stop-color="#0052CC"/>
<stop offset="1" stop-color="#2684FF"/>
</linearGradient>
<linearGradient id="paint1_linear_395_1334" x1="561.04" y1="1298.87" x2="860.503" y2="1104.78" gradientUnits="userSpaceOnUse">
<stop offset="0.18" stop-color="#0052CC"/>
<stop offset="1" stop-color="#2684FF"/>
</linearGradient>
</defs>
</svg>
