<svg width="65" height="64" viewBox="0 0 65 64" fill="none" xmlns="http://www.w3.org/2000/svg">
<rect width="64" height="64" transform="translate(0.5)" fill="#4A154B"/>
<path fill-rule="evenodd" clip-rule="evenodd" d="M27.6991 14C25.7091 14.0016 24.0986 15.6133 24.1001 17.5993C24.0986 19.5853 25.7107 21.1971 27.7007 21.1986H31.3012V17.6007C31.3027 15.6147 29.6907 14.003 27.6991 14C27.7007 14 27.7007 14 27.6991 14ZM27.6991 23.6001H18.1006C16.1106 23.6015 14.4986 25.2132 14.5 27.1992C14.4971 29.1854 16.109 30.7971 18.0991 30.8H27.6991C29.6892 30.7985 31.3012 29.1868 31.2998 27.2007C31.3012 25.2132 29.6892 23.6015 27.6991 23.6001Z" fill="#36C5F0"/>
<path fill-rule="evenodd" clip-rule="evenodd" d="M50.5 27.1992C50.5014 25.2132 48.8895 23.6014 46.8994 23.6C44.9094 23.6014 43.2974 25.2132 43.2988 27.1992V30.8H46.8994C48.8895 30.7984 50.5014 29.1867 50.5 27.1992ZM40.8999 27.1992V17.5993C40.9014 15.6146 39.2909 14.0029 37.3008 14C35.3108 14.0014 33.6987 15.6132 33.7002 17.5993V27.1992C33.6973 29.1853 35.3094 30.797 37.2994 30.8C39.2894 30.7984 40.9014 29.1867 40.8999 27.1992Z" fill="#2EB67D"/>
<path fill-rule="evenodd" clip-rule="evenodd" d="M37.2999 50.0007C39.2899 49.9992 40.9018 48.3875 40.9004 46.4015C40.9018 44.4154 39.2899 42.8036 37.2999 42.8022H33.6992V46.4015C33.6978 48.386 35.3098 49.9978 37.2999 50.0007ZM37.2999 40.3993H46.8999C48.8899 40.3978 50.502 38.7861 50.5004 36.8C50.5035 34.814 48.8914 33.2022 46.9014 33.1992H37.3013C35.3113 33.2008 33.6992 34.8125 33.7008 36.7985C33.6992 38.7861 35.3098 40.3978 37.2999 40.3993Z" fill="#ECB22E"/>
<path fill-rule="evenodd" clip-rule="evenodd" d="M14.5 36.7985C14.4986 38.7845 16.1106 40.3963 18.1005 40.3977C20.0906 40.3963 21.7026 38.7845 21.7012 36.7985V33.1992H18.1005C16.1106 33.2007 14.4986 34.8124 14.5 36.7985ZM24.1001 36.7985V46.3985C24.0972 48.3845 25.7091 49.9962 27.6991 49.9992C29.6892 49.9977 31.3012 48.3859 31.2998 46.3999V36.8014C31.3027 34.8154 29.6907 33.2036 27.7007 33.2007C25.7091 33.2007 24.0986 34.8124 24.1001 36.7985C24.1001 36.8 24.1001 36.7985 24.1001 36.7985Z" fill="#E01E5A"/>
</svg>
