<svg width="64" height="64" viewBox="0 0 64 64" fill="none" xmlns="http://www.w3.org/2000/svg">
<rect width="64" height="64" fill="#F5F5F5"/>
<g clip-path="url(#clip0_937_2298)">
<path d="M21.9693 27.7539C22.024 27.7735 22.0714 27.8095 22.1049 27.857C22.1384 27.9045 22.1564 27.9611 22.1565 28.0193L22.1537 28.874C22.1535 28.9193 22.1424 28.9639 22.1212 29.0039C22.1 29.044 22.0694 29.0782 22.032 29.1038C21.9946 29.1294 21.9516 29.1455 21.9066 29.1507C21.8616 29.1559 21.816 29.1501 21.7738 29.1338C18.4665 27.8731 15.1071 27.604 11.6956 28.3265C9.56707 28.7791 8.60617 30.5054 8.78215 32.5948C9.15645 37.1089 16.0196 36.5782 19.0559 35.891C20.4097 35.5856 21.1285 34.7615 21.2123 33.4189C21.215 33.3809 21.2098 33.3429 21.1969 33.3071C21.1841 33.2712 21.164 33.2384 21.1378 33.2106C21.1115 33.1828 21.0798 33.1607 21.0446 33.1456C21.0094 33.1305 20.9714 33.1227 20.933 33.1228H15.4916C15.454 33.1228 15.4167 33.1152 15.3821 33.1005C15.3475 33.0858 15.3162 33.0642 15.2901 33.037C15.264 33.0099 15.2436 32.9778 15.2303 32.9426C15.2169 32.9074 15.2108 32.8699 15.2123 32.8323L15.2458 32.0641C15.2494 31.9917 15.2804 31.9235 15.3324 31.8736C15.3844 31.8237 15.4534 31.7959 15.5252 31.7959H22.6425C22.7129 31.7957 22.7807 31.8224 22.8325 31.8706C22.8843 31.9187 22.9162 31.9848 22.9218 32.0557C22.9926 33.0781 22.9181 33.917 22.6984 34.5725C21.3296 38.6592 11.2347 38.2598 8.65645 35.9552C6.37992 33.9245 6.69556 29.6115 9.02517 27.9969C12.1984 25.8013 18.3883 26.4997 21.9693 27.7539Z" fill="#080A09"/>
<path d="M44.9192 31.3767H47.3661C47.4172 31.3767 47.4675 31.3622 47.5113 31.3348C49.6138 30.0387 51.7106 28.7277 53.8018 27.4017C54.3195 27.074 54.8149 26.8878 55.2879 26.8431C55.6138 26.8114 55.9415 26.804 56.2711 26.8207C56.8652 26.8524 56.9089 27.0246 56.4024 27.3375L49.1566 31.8181C49.1162 31.8431 49.0828 31.8781 49.0597 31.9196C49.0366 31.9612 49.0244 32.0079 49.0244 32.0555C49.0244 32.1031 49.0366 32.1498 49.0597 32.1914C49.0828 32.2329 49.1162 32.2679 49.1566 32.2929L56.665 36.969C57.1063 37.2447 57.0663 37.3825 56.5449 37.3825H54.813C54.7601 37.3825 54.708 37.368 54.6622 37.3406C52.4294 35.9383 50.2004 34.5323 47.975 33.1226C47.5914 32.8786 47.191 32.7436 46.7739 32.7175C46.1482 32.6803 45.5234 32.6831 44.8996 32.7259C44.8292 32.7302 44.7631 32.7615 44.7148 32.8134C44.6665 32.8653 44.6397 32.934 44.6398 33.0052V37.1031C44.6398 37.14 44.6326 37.1766 44.6185 37.2107C44.6044 37.2447 44.5838 37.2757 44.5578 37.3016C44.5319 37.3276 44.5011 37.3481 44.4672 37.362C44.4333 37.3759 44.3971 37.3828 44.3605 37.3825H43.313C43.2389 37.3825 43.1679 37.353 43.1155 37.3006C43.0631 37.2483 43.0337 37.1772 43.0337 37.1031V27.1168C43.0337 27.0427 43.0631 26.9717 43.1155 26.9193C43.1679 26.8669 43.2389 26.8375 43.313 26.8375H44.3605C44.4346 26.8375 44.5056 26.8669 44.558 26.9193C44.6104 26.9717 44.6398 27.0427 44.6398 27.1168V31.0974C44.6398 31.1715 44.6693 31.2425 44.7217 31.2949C44.774 31.3473 44.8451 31.3767 44.9192 31.3767Z" fill="#080A09"/>
<rect x="26.2739" y="31.8657" width="5.02793" height="0.558675" fill="#E8203C"/>
<rect x="33.8154" y="31.8657" width="5.02793" height="0.558675" fill="#E8203C"/>
<rect x="32.1401" y="38.5703" width="5.02808" height="0.558659" transform="rotate(-90 32.1401 38.5703)" fill="#E8203C"/>
<rect x="32.1401" y="31.0273" width="5.02808" height="0.558659" transform="rotate(-90 32.1401 31.0273)" fill="#E8203C"/>
</g>
<defs>
<clipPath id="clip0_937_2298">
<rect width="50" height="12.5702" fill="white" transform="translate(7 26)"/>
</clipPath>
</defs>
</svg>
