<svg width="65" height="64" viewBox="0 0 65 64" fill="none" xmlns="http://www.w3.org/2000/svg">
<rect width="64" height="64" transform="translate(0.5)" fill="#EE2722"/>
<path d="M48.9503 40.2318V39.7648H49.2932C49.5213 39.7648 49.583 39.8352 49.583 39.9717C49.583 40.1115 49.5213 40.2242 49.2526 40.2318H48.9503ZM49.1908 40.5167C49.2894 40.5254 49.3842 40.5167 49.4557 40.5915C49.5375 40.6782 49.5375 40.8233 49.5581 40.9804C49.5711 41.0877 49.5998 41.2036 49.6204 41.3066H49.9844C49.9221 41.1419 49.9016 40.9512 49.8767 40.7779C49.8474 40.5795 49.8192 40.468 49.5668 40.4181V40.4094C49.8111 40.3596 49.939 40.1949 49.939 39.9836C49.939 39.5708 49.5911 39.4798 49.2568 39.4798H48.6653V41.3066H48.9503V40.5167H49.1908ZM49.2813 41.9718C50.1421 41.9718 50.8317 41.2784 50.8317 40.4138C50.8317 39.5578 50.1421 38.8633 49.2813 38.8633C48.4172 38.8633 47.7227 39.5578 47.7227 40.4138C47.7227 41.2784 48.4172 41.9718 49.2813 41.9718ZM49.2813 41.6999C48.5705 41.6999 47.9963 41.1246 47.9963 40.4138C47.9963 39.7117 48.5705 39.1364 49.2813 39.1364C49.9888 39.1364 50.5598 39.7117 50.5598 40.4138C50.5598 41.1246 49.9888 41.6999 49.2813 41.6999Z" fill="white"/>
<path d="M46.6518 26.2806H44.1549V28.7748H46.6518C47.2444 28.7748 47.7212 29.2575 47.7212 29.8466C47.7212 30.4399 47.2444 30.9165 46.6518 30.9165H44.1549V33.4129H46.6518C48.6222 33.4129 50.2182 31.8153 50.2182 29.8466C50.2182 27.8774 48.6222 26.2806 46.6518 26.2806ZM32.4225 39.4788C35.4113 39.4788 37.9872 37.7284 39.1905 35.1952H42.3732V39.4788H44.1549V35.1952H46.6518C49.6082 35.1952 52.0031 32.8002 52.0031 29.8466C52.0031 26.8923 49.6082 24.4964 46.6518 24.4964H42.3732V30.9165H39.8339C39.3161 27.2882 36.1951 24.4964 32.4225 24.4964H23.6418L14.9076 39.4788H16.9912L19.4875 35.1952H28.4633V39.4788H32.4225ZM54.5 29.8466C54.5 34.1795 50.9857 37.6916 46.6518 37.6916V41.9708H39.8773V38.6326C38.0446 40.6815 35.3863 41.9708 32.4225 41.9708H25.9665V37.6916H20.9207L18.4244 41.9708H10.5L22.148 22H32.4225C35.3863 22 38.0446 23.2929 39.8773 25.342V22H46.6518C50.9857 22 54.5 25.5149 54.5 29.8466ZM25.9665 26.2806V30.9165H21.9839L20.5293 33.4129H28.4633V26.2806H25.9665ZM38.1302 31.9854C38.1302 35.1373 35.5737 37.6916 32.4225 37.6916H30.2462V35.1952H32.4225C34.1966 35.1952 35.6344 33.7602 35.6344 31.9854C35.6344 30.2145 34.1966 28.7748 32.4225 28.7748H30.2462V26.2806H32.4225C35.5737 26.2806 38.1302 28.8349 38.1302 31.9854Z" fill="#EE2722"/>
<path d="M46.6518 26.2806H44.1549V28.7748H46.6518C47.2444 28.7748 47.7212 29.2575 47.7212 29.8466C47.7212 30.4399 47.2444 30.9165 46.6518 30.9165H44.1549V33.4129H46.6518C48.6222 33.4129 50.2182 31.8153 50.2182 29.8466C50.2182 27.8774 48.6222 26.2806 46.6518 26.2806ZM32.4225 39.4788C35.4113 39.4788 37.9872 37.7284 39.1905 35.1952H42.3732V39.4788H44.1549V35.1952H46.6518C49.6082 35.1952 52.0031 32.8002 52.0031 29.8466C52.0031 26.8923 49.6082 24.4964 46.6518 24.4964H42.3732V30.9165H39.8339C39.3161 27.2882 36.1951 24.4964 32.4225 24.4964H23.6418L14.9076 39.4788H16.9912L19.4875 35.1952H28.4633V39.4788H32.4225ZM54.5 29.8466C54.5 34.1795 50.9857 37.6916 46.6518 37.6916V41.9708H39.8773V38.6326C38.0446 40.6815 35.3863 41.9708 32.4225 41.9708H25.9665V37.6916H20.9207L18.4244 41.9708H10.5L22.148 22H32.4225C35.3863 22 38.0446 23.2929 39.8773 25.342V22H46.6518C50.9857 22 54.5 25.5149 54.5 29.8466ZM25.9665 26.2806V30.9165H21.9839L20.5293 33.4129H28.4633V26.2806H25.9665ZM38.1302 31.9854C38.1302 35.1373 35.5737 37.6916 32.4225 37.6916H30.2462V35.1952H32.4225C34.1966 35.1952 35.6344 33.7602 35.6344 31.9854C35.6344 30.2145 34.1966 28.7748 32.4225 28.7748H30.2462V26.2806H32.4225C35.5737 26.2806 38.1302 28.8349 38.1302 31.9854Z" fill="#EE2722"/>
<path d="M46.6518 26.2806H44.1549V28.7748H46.6518C47.2444 28.7748 47.7212 29.2575 47.7212 29.8466C47.7212 30.4399 47.2444 30.9165 46.6518 30.9165H44.1549V33.4129H46.6518C48.6222 33.4129 50.2182 31.8153 50.2182 29.8466C50.2182 27.8774 48.6222 26.2806 46.6518 26.2806ZM32.4225 39.4788C35.4113 39.4788 37.9872 37.7284 39.1905 35.1952H42.3732V39.4788H44.1549V35.1952H46.6518C49.6082 35.1952 52.0031 32.8002 52.0031 29.8466C52.0031 26.8923 49.6082 24.4964 46.6518 24.4964H42.3732V30.9165H39.8339C39.3161 27.2882 36.1951 24.4964 32.4225 24.4964H23.6418L14.9076 39.4788H16.9912L19.4875 35.1952H28.4633V39.4788H32.4225ZM54.5 29.8466C54.5 34.1795 50.9857 37.6916 46.6518 37.6916V41.9708H39.8773V38.6326C38.0446 40.6815 35.3863 41.9708 32.4225 41.9708H25.9665V37.6916H20.9207L18.4244 41.9708H10.5L22.148 22H32.4225C35.3863 22 38.0446 23.2929 39.8773 25.342V22H46.6518C50.9857 22 54.5 25.5149 54.5 29.8466ZM25.9665 26.2806V30.9165H21.9839L20.5293 33.4129H28.4633V26.2806H25.9665ZM38.1302 31.9854C38.1302 35.1373 35.5737 37.6916 32.4225 37.6916H30.2462V35.1952H32.4225C34.1966 35.1952 35.6344 33.7602 35.6344 31.9854C35.6344 30.2145 34.1966 28.7748 32.4225 28.7748H30.2462V26.2806H32.4225C35.5737 26.2806 38.1302 28.8349 38.1302 31.9854Z" fill="white"/>
</svg>
