<svg width="64" height="64" viewBox="0 0 64 64" fill="none" xmlns="http://www.w3.org/2000/svg">
<rect width="64" height="64" fill="white"/>
<path fill-rule="evenodd" clip-rule="evenodd" d="M29.2113 15.6222C28.1601 17.7804 27.0729 19.5465 26.7961 19.5465C26.5187 19.5465 24.5904 18.8468 22.511 17.9912C20.431 17.1355 18.6188 16.5472 18.4846 16.6836C18.3498 16.8201 18.6657 18.7926 19.1873 21.0678C19.7084 23.3424 19.9166 25.4045 19.65 25.6499C19.3835 25.8953 17.6765 26.5744 15.8564 27.159C14.0364 27.7436 12.3186 28.4342 12.0382 28.6925C11.7585 28.9513 13.0448 30.3209 14.8962 31.7362C16.7481 33.1509 18.2631 34.4944 18.2631 34.7203C18.2631 34.9469 17.3227 36.6271 16.1729 38.4535C15.0231 40.2805 14.0755 41.9808 14.067 42.2317C14.0586 42.4826 16.07 42.6884 18.5369 42.6884H23.0218L23.3949 44.9722C23.6 46.2285 23.9507 48.2967 24.1746 49.5689L24.5807 51.8819L28.047 48.7528L31.5138 45.6238L34.9596 48.8119L38.406 52L38.8194 49.628C39.0462 48.3235 39.4 46.2285 39.6051 44.9722L39.9782 42.6884H44.4631C46.93 42.6884 48.9486 42.5654 48.9486 42.4144C48.9486 42.264 48.0016 40.5509 46.8446 38.6082C45.6869 36.6655 44.7393 34.9036 44.7387 34.6923C44.7375 34.4816 46.2519 33.1509 48.1038 31.7362C49.9552 30.3209 51.2415 28.9513 50.9618 28.6925C50.6814 28.4342 48.9636 27.7436 47.1436 27.159C45.3235 26.5744 43.6256 25.9045 43.3699 25.67C43.1142 25.4361 43.2983 23.3491 43.7778 21.0319C44.2573 18.7153 44.5798 16.7488 44.4938 16.6617C44.4077 16.5746 42.6731 17.1885 40.6382 18.0253C38.604 18.862 36.6666 19.5465 36.3339 19.5465C36.0012 19.5465 34.9187 17.9223 33.929 15.937C32.9386 13.9517 31.9025 12.1856 31.6257 12.0126C31.3496 11.8397 30.263 13.4639 29.2113 15.6222Z" fill="black"/>
</svg>
