<svg width="65" height="64" viewBox="0 0 65 64" fill="none" xmlns="http://www.w3.org/2000/svg">
<rect width="64" height="64" transform="translate(0.5)" fill="#F45D48"/>
<path d="M42.4931 36.7566V17.441H37.3011V18.7342C35.5517 17.5997 33.5154 16.9977 31.4357 17C25.4062 17 20.5 21.9727 20.5 28.0858C20.5 34.1989 25.4062 39.1716 31.4371 39.1716C33.4918 39.1747 35.505 38.5881 37.2417 37.4803C37.2417 37.6501 37.2332 37.8029 37.2332 37.9056C37.2332 41.1185 34.6499 43.7376 31.4796 43.7376C30.4016 43.7351 29.3462 43.4253 28.4351 42.8441L25.8674 47.4014C27.5606 48.4434 29.5048 48.9964 31.4881 49C37.519 49 42.4931 44.0259 42.4931 37.9128C42.4931 37.6758 42.5086 36.9779 42.4931 36.7566ZM31.4371 33.9163C28.2682 33.9163 25.6835 31.2987 25.6835 28.0858C25.6835 24.8715 28.2668 22.2539 31.4371 22.2539C34.6075 22.2539 37.1908 24.8715 37.1908 28.0858C37.1908 31.2987 34.6075 33.9178 31.4371 33.9178V33.9163Z" fill="white"/>
</svg>
