<svg width="64" height="64" viewBox="0 0 64 64" fill="none" xmlns="http://www.w3.org/2000/svg">
<rect width="64" height="64" fill="black"/>
<path fill-rule="evenodd" clip-rule="evenodd" d="M34.1073 11.2917L33.2433 21.9317C32.8347 21.885 32.4261 21.8617 32.0058 21.8617C31.4805 21.8617 30.9668 21.8967 30.4648 21.9783L29.9745 16.8217C29.9628 16.6583 30.0912 16.5183 30.2546 16.5183H31.1302L30.71 11.3033C30.6983 11.14 30.8267 11 30.9785 11H33.8387C34.0022 11 34.1306 11.14 34.1073 11.3033V11.2917ZM26.8924 11.8167C26.8457 11.665 26.6822 11.5717 26.5305 11.63L23.8453 12.61C23.6935 12.6683 23.6235 12.8433 23.6935 12.9833L25.8767 17.7433L25.0478 18.0467C24.896 18.105 24.826 18.28 24.896 18.42L27.1259 23.0983C27.9314 22.655 28.807 22.3167 29.7293 22.1067L26.904 11.8167H26.8924ZM20.3079 14.78L26.4838 23.4833C25.7016 23.9967 24.9894 24.6033 24.3823 25.3033L20.6815 21.6633C20.5647 21.5467 20.5764 21.36 20.6932 21.255L21.3703 20.695L17.6928 16.9733C17.576 16.8567 17.5877 16.67 17.7161 16.565L19.8993 14.7333C20.0277 14.6283 20.2028 14.6517 20.2962 14.78H20.3079ZM15.1244 19.82C14.996 19.7267 14.8092 19.7733 14.7274 19.9133L13.3031 22.3867C13.2214 22.5267 13.2798 22.7017 13.4199 22.7717L18.1598 25.0117L17.7161 25.77C17.6344 25.91 17.6928 26.0967 17.8446 26.155L22.5611 28.3133C22.8997 27.4383 23.355 26.6217 23.9153 25.8867L15.1244 19.82ZM11.6337 26.54C11.657 26.3767 11.8205 26.2833 11.9722 26.3183L22.3042 29.0133C22.0357 29.8883 21.884 30.81 21.8606 31.7667L16.6888 31.3467C16.5253 31.335 16.4086 31.1833 16.4436 31.02L16.5954 30.1567L11.3768 29.6667C11.2134 29.655 11.1083 29.5033 11.1317 29.34L11.622 26.5283L11.6337 26.54ZM11.2484 33.5167C11.085 33.5283 10.9799 33.68 11.0032 33.8433L11.5052 36.655C11.5286 36.8183 11.692 36.9117 11.8438 36.8767L16.9106 35.5583L17.0624 36.4217C17.0857 36.585 17.2491 36.6783 17.4009 36.6433L22.3976 35.2667C22.1058 34.4033 21.919 33.4817 21.8723 32.5367L11.2367 33.5167H11.2484ZM12.9062 40.9133C12.8245 40.7733 12.8828 40.5983 13.0229 40.5283L22.6662 35.955C23.0281 36.8183 23.5184 37.6233 24.1021 38.3467L19.8759 41.3567C19.7475 41.45 19.5607 41.415 19.479 41.275L19.0354 40.505L14.7274 43.48C14.599 43.5733 14.4122 43.5267 14.3305 43.3867L12.8945 40.9133H12.9062ZM24.5925 38.9067L17.0857 46.5017C16.969 46.6183 16.9806 46.805 17.1091 46.91L19.3039 48.7417C19.4323 48.8467 19.6074 48.8233 19.7008 48.695L22.7362 44.425L23.4133 44.9967C23.5418 45.1017 23.7285 45.0783 23.8219 44.9383L26.7639 40.6683C25.9701 40.1783 25.2346 39.5833 24.6041 38.9067H24.5925ZM23.1098 51.0983C22.958 51.04 22.888 50.865 22.958 50.725L27.406 41.0183C28.2233 41.4383 29.1105 41.7533 30.0328 41.9283L28.7253 46.945C28.6903 47.0967 28.5151 47.19 28.3634 47.1317L27.5345 46.8283L26.1452 51.88C26.0985 52.0317 25.935 52.125 25.7833 52.0667L23.0981 51.0867L23.1098 51.0983ZM30.7683 42.0567L29.9044 52.6967C29.8927 52.86 30.0212 53 30.1729 53H33.0332C33.1966 53 33.3251 52.86 33.3017 52.6967L32.8814 47.4817H33.757C33.9205 47.4817 34.0489 47.3417 34.0372 47.1783L33.5469 42.0217C33.0449 42.1033 32.5312 42.1383 32.0058 42.1383C31.5856 42.1383 31.1769 42.115 30.7683 42.0567ZM41.0653 13.2517C41.1354 13.1 41.0653 12.9367 40.9136 12.8783L38.2284 11.8983C38.0766 11.84 37.9132 11.9333 37.8665 12.085L36.4772 17.1367L35.6483 16.8333C35.4965 16.775 35.3331 16.8683 35.2864 17.02L33.9788 22.0367C34.9128 22.2233 35.7884 22.5383 36.6056 22.9467L41.0653 13.2517ZM46.926 17.4867L39.4192 25.0817C38.7888 24.405 38.065 23.81 37.2594 23.32L40.2014 19.05C40.2948 18.9217 40.4816 18.8867 40.61 18.9917L41.2871 19.5633L44.3225 15.2933C44.4159 15.165 44.6027 15.1417 44.7195 15.2467L46.9143 17.0783C47.0427 17.1833 47.0427 17.37 46.9376 17.4867H46.926ZM50.9887 23.46C51.1405 23.39 51.1872 23.215 51.1055 23.075L49.6695 20.6017C49.5878 20.4617 49.401 20.4267 49.2726 20.5083L44.9646 23.4833L44.521 22.725C44.4393 22.585 44.2525 22.5383 44.1241 22.6433L39.8979 25.6533C40.4816 26.3767 40.9603 27.1817 41.3338 28.045L50.9771 23.4717L50.9887 23.46ZM52.5064 27.3333L52.9968 30.145C53.0201 30.3083 52.915 30.4483 52.7516 30.4717L42.116 31.4633C42.0693 30.5067 41.8825 29.5967 41.5907 28.7333L46.5874 27.3567C46.7392 27.31 46.9026 27.415 46.926 27.5783L47.0777 28.4417L52.1445 27.1233C52.2963 27.0883 52.4597 27.1817 52.4831 27.345L52.5064 27.3333ZM52.0278 37.6583C52.1795 37.6933 52.343 37.6 52.3663 37.4367L52.8567 34.625C52.88 34.4617 52.7749 34.3217 52.6115 34.2983L47.393 33.8083L47.5447 32.945C47.5681 32.7817 47.463 32.6417 47.2996 32.6183L42.1277 32.1983C42.1044 33.155 41.9526 34.0767 41.6841 34.9517L52.0161 37.6467L52.0278 37.6583ZM49.2726 44.075C49.1908 44.215 49.0041 44.25 48.8756 44.1683L40.0847 38.1017C40.645 37.3667 41.1003 36.55 41.4389 35.675L46.1554 37.8333C46.3072 37.9033 46.3656 38.0783 46.2839 38.2183L45.8402 38.9767L50.5801 41.2167C50.7202 41.2867 50.7786 41.4617 50.6969 41.6017L49.2726 44.075ZM37.5162 40.4933L43.6921 49.1967C43.7855 49.325 43.9723 49.3483 44.089 49.2433L46.2722 47.4117C46.4006 47.3067 46.4006 47.12 46.2955 47.0033L42.618 43.2817L43.2952 42.7217C43.4236 42.6167 43.4236 42.43 43.3068 42.3133L39.606 38.6733C38.9872 39.3733 38.2868 39.9917 37.5046 40.4933H37.5162ZM37.4579 52.3467C37.3061 52.405 37.1427 52.3117 37.096 52.16L34.2707 41.87C35.193 41.66 36.0686 41.3217 36.8741 40.8783L39.104 45.5567C39.174 45.7083 39.104 45.8833 38.9522 45.93L38.1233 46.2333L40.3065 50.9933C40.3765 51.145 40.3065 51.3083 40.1547 51.3667L37.4695 52.3467H37.4579Z" fill="white"/>
</svg>
