<svg width="64" height="64" viewBox="0 0 64 64" fill="none" xmlns="http://www.w3.org/2000/svg">
<rect width="64" height="64" fill="white"/>
<path fill-rule="evenodd" clip-rule="evenodd" d="M42.2531 50.7819C42.1033 51.2286 41.7537 51.5264 41.1044 51.5264H37.4586C36.8592 51.5264 36.5596 51.3775 36.4098 50.7819L32.9636 37.9264C32.6141 36.636 32.4643 35.0973 32.2645 33.6082C32.1147 35.1469 31.9148 36.6856 31.5653 37.9264L28.0193 50.7819C27.9194 51.2286 27.5198 51.5264 26.8706 51.5264H23.1748C22.5755 51.5264 22.2758 51.3775 22.126 50.7819L17.0317 32.2681C16.8819 31.6228 17.2815 31.2754 17.8308 31.2754H20.1782C20.8274 31.2754 21.177 31.4739 21.3269 32.1192L24.5232 45.322C24.8728 46.8111 24.9727 48.3994 25.1226 49.8388C25.3723 48.4491 25.5721 46.8111 25.9716 45.3717L29.5176 32.0695C29.6674 31.5236 30.1169 31.2754 30.7162 31.2754H33.6129C34.2122 31.2754 34.7117 31.5732 34.8615 32.1192L38.4575 45.3717C38.857 46.8111 39.0567 48.3994 39.2565 49.8388C39.4564 48.4491 39.6561 46.8111 39.9557 45.3717L42.9024 32.0695C43.0023 31.5236 43.5018 31.2754 44.101 31.2754H46.2985C46.848 31.2754 47.2475 31.6228 47.0977 32.2681L42.2531 50.7819Z" fill="#005CB9"/>
<path fill-rule="evenodd" clip-rule="evenodd" d="M18.7292 24.1133L17.0935 23.5538C16.7845 24.4571 17.2663 25.4399 18.1696 25.749C19.0712 26.0574 20.052 25.5781 20.363 24.6782M18.7292 24.1133C17.0935 23.5538 17.0938 23.5529 17.0941 23.5521L17.0947 23.5502L17.0963 23.5458L17.1002 23.5345C17.1033 23.5257 17.1072 23.5147 17.1119 23.5016C17.1214 23.4752 17.1343 23.44 17.1507 23.3966C17.1835 23.3098 17.2305 23.1899 17.2926 23.0418C17.4167 22.7457 17.602 22.3348 17.8565 21.8471C18.3638 20.8752 19.1563 19.579 20.3034 18.2778C22.6162 15.6543 26.3923 13 32.0652 13C37.7204 13 41.4928 15.5761 43.8118 18.1373C44.9611 19.4067 45.7558 20.672 46.265 21.6219C46.5204 22.0984 46.7065 22.5003 46.8313 22.7902C46.8938 22.9352 46.9411 23.0527 46.9742 23.138C46.9907 23.1807 47.0038 23.2153 47.0134 23.2414C47.0182 23.2544 47.0222 23.2653 47.0253 23.274L47.0294 23.2853L47.0309 23.2897L47.0316 23.2916C47.0319 23.2925 47.0322 23.2933 45.4012 23.8664L47.0322 23.2933C47.3487 24.1941 46.875 25.1809 45.9742 25.4974C45.0754 25.8132 44.0908 25.3422 43.7722 24.4451C43.7719 24.4442 43.7715 24.4433 43.7712 24.4423L43.7718 24.4441L43.7699 24.4389C43.7679 24.4334 43.7646 24.4245 43.7599 24.4123C43.7574 24.4056 43.7545 24.398 43.7511 24.3895C43.7323 24.3409 43.7007 24.2621 43.6556 24.1573C43.5653 23.9475 43.4214 23.6354 43.2177 23.2553C42.8085 22.492 42.1677 21.4728 41.2487 20.4578C39.431 18.4502 36.5355 16.4575 32.0652 16.4575C27.6126 16.4575 24.7207 18.4954 22.8969 20.5642C21.9757 21.6092 21.3327 22.6592 20.9216 23.4469C20.7169 23.839 20.5723 24.1612 20.4813 24.3784C20.4358 24.4868 20.4039 24.5686 20.3848 24.6193C20.3752 24.6446 20.3688 24.6621 20.3655 24.6712L20.3633 24.6774L20.364 24.6756M43.7712 24.4423V24.4421L43.7707 24.4409C43.7709 24.4414 43.771 24.4418 43.7712 24.4423Z" fill="#F0880F"/>
</svg>
