<svg width="64" height="64" viewBox="0 0 64 64" fill="none" xmlns="http://www.w3.org/2000/svg">
<rect width="64" height="64" fill="black"/>
<path d="M45.5992 49H18.5019V46.7851H45.5992V49ZM36.8657 43.2703C37.6551 43.4762 38.4767 42.9247 38.7112 42.042C38.9457 41.1593 38.4892 40.273 37.7016 40.0725C36.914 39.8719 36.0906 40.4145 35.8543 41.299C35.618 42.1835 36.0763 43.0698 36.8657 43.2685V43.2703ZM46.6875 15.9577C44.228 14.049 39.0584 15.349 35.1526 16.7742C30.8738 18.3625 26.7934 20.4414 22.9931 22.9694C20.1362 24.8942 16.6117 27.7322 16.0639 30.3195C15.9846 30.6281 15.979 30.951 16.0477 31.2621C16.1165 31.5732 16.2576 31.8637 16.4595 32.11C17.1755 32.9444 18.3784 32.9265 18.6076 32.9158C18.7563 32.9141 18.9031 32.8826 19.0394 32.823C19.1756 32.7634 19.2985 32.677 19.4007 32.5689C19.5028 32.4608 19.5822 32.3332 19.634 32.1938C19.6859 32.0544 19.7091 31.9059 19.7024 31.7573C19.6956 31.6087 19.6591 31.463 19.5949 31.3288C19.5306 31.1947 19.4401 31.0748 19.3285 30.9764C19.217 30.8779 19.0868 30.803 18.9458 30.756C18.8047 30.709 18.6556 30.6909 18.5073 30.7027C18.4214 30.7037 18.3356 30.6959 18.2513 30.6794C19.0747 27.6534 27.7259 21.8503 35.9116 18.862C41.3765 16.8673 44.3587 16.9604 45.3289 17.7142C45.7316 18.0276 45.9428 18.4036 45.6564 19.2183C44.8831 21.3938 41.1241 24.828 35.5876 28.4001C34.5619 29.0608 33.5577 29.6713 32.6019 30.2264C33.3698 27.5084 34.1592 24.7295 34.8412 22.3481C34.9136 22.0681 34.8739 21.771 34.7304 21.5199C34.5869 21.2689 34.351 21.0839 34.0729 21.0045C33.795 20.925 33.4969 20.9574 33.2425 21.0947C32.9881 21.232 32.7974 21.4633 32.711 21.7393C32.1383 23.7447 30.9891 27.7734 29.8757 31.7269C27.6597 32.8763 25.9752 33.5693 25.3147 33.6624C25.101 33.5553 24.8584 33.5202 24.6231 33.5623C24.3878 33.6044 24.1724 33.7216 24.0091 33.8961C23.8459 34.0708 23.7434 34.2935 23.7171 34.5312C23.6907 34.7688 23.7419 35.0086 23.8631 35.2148C24.0528 35.5353 24.4304 35.888 25.1787 35.888C25.3038 35.8874 25.4288 35.8784 25.5528 35.8612C26.3189 35.7573 27.5594 35.3007 29.0719 34.6078C27.998 38.4359 27.128 41.6553 27.0797 42.0904C27.0491 42.3811 27.1346 42.6721 27.3177 42.8998C27.5008 43.1276 27.7666 43.2737 28.057 43.3062C28.0981 43.3088 28.1394 43.3088 28.1805 43.3062C28.4501 43.3056 28.7104 43.2068 28.9123 43.0281C29.1144 42.8495 29.2443 42.6033 29.2778 42.3357C29.3655 41.7985 30.4413 37.897 31.7498 33.2398C33.5398 32.2712 35.5088 31.0912 37.4295 29.8378C45.1266 24.7563 47.3534 21.4564 47.8563 19.58C48.2484 18.135 47.8313 16.8476 46.6875 15.9577Z" fill="white"/>
</svg>
