<svg width="64" height="64" viewBox="0 0 64 64" fill="none" xmlns="http://www.w3.org/2000/svg">
<rect width="64" height="64" fill="white"/>
<path d="M23.8295 21.9147C23.8295 24.0606 22.0896 25.8295 19.9147 25.8295C17.7689 25.8295 16 24.0896 16 21.9147C16 19.7689 17.7399 18 19.9147 18C22.0606 18 23.8295 19.7689 23.8295 21.9147Z" fill="#2CD5C4"/>
<path d="M47.7244 21.9147C47.7244 24.0606 45.9844 25.8295 43.8096 25.8295C41.6637 25.8295 39.9238 24.0606 39.9238 21.9147C39.9238 19.7689 41.6637 18 43.8386 18C45.9844 18 47.7244 19.7689 47.7244 21.9147Z" fill="#2CD5C4"/>
<path d="M31.8621 50.9996C23.2206 50.9996 16.2031 43.9821 16.2031 35.3406V32.8468C16.2031 30.817 17.856 29.1641 19.886 29.1641C21.9158 29.1641 23.5687 30.817 23.5687 32.8468V35.4276C23.5687 39.9803 26.2655 43.6921 31.8332 43.6921C37.0238 43.6921 40.0976 39.9803 40.0976 35.4276V32.8468C40.0976 30.817 41.7505 29.1641 43.7804 29.1641C45.8102 29.1641 47.4631 30.817 47.4631 32.8468V35.3406C47.5211 43.9821 40.5036 50.9996 31.8621 50.9996Z" fill="#005857"/>
</svg>
