<svg width="1600" height="657" viewBox="0 0 1600 657" fill="none" xmlns="http://www.w3.org/2000/svg">
<g clip-path="url(#clip0_1105_5308)">
<path d="M1590.58 624.774L1031.44 493.21C1072.55 501.433 1160.1 513.525 1160.1 513.525C1184.28 483.537 1221.04 468.059 1253.45 495.629C1253.45 495.629 1289.51 461.718 1326.97 480.151C1357.44 495.145 1370.99 526.101 1372.92 549.318C1382.11 533.356 1423.71 510.139 1447.41 561.894C1447.41 561.894 1479.82 544.965 1496.49 589.242C1521.9 584.144 1556.54 616.765 1590.58 624.774Z" fill="url(#paint0_linear_1105_5308)"/>
<path d="M1117.84 337.228C1121.33 323.533 1140.04 298.139 1177.18 308.752C1185.58 304.198 1203.95 297.78 1224.77 308.051L1258.97 307.507L1014.73 369.088C1013.52 369.402 1012.43 369.68 1011.45 369.916L1014.73 369.088C1028.92 365.396 1058.12 356.566 1078.91 348.666C1090.76 331.543 1107.59 334.511 1117.84 337.228Z" fill="url(#paint1_linear_1105_5308)"/>
<path d="M8.8315 114.468L0 111.094C2.94526 112.407 5.89302 113.526 8.8315 114.468L512.984 307.088C499.857 300.689 481.377 291.226 476.126 284.356C469.562 275.769 477.641 227.276 442.802 221.214C448.861 178.277 393.826 137.866 342.831 182.318C337.782 173.226 313.647 163.022 293.855 188.885C293.687 185.349 291.23 178.277 282.747 178.277C281.906 155.041 266.287 109.781 210.546 114.63C198.596 91.8986 157.531 57.9533 88.8634 104.022C75.8465 112.549 42.9685 125.415 8.8315 114.468Z" fill="url(#paint2_linear_1105_5308)"/>
<path d="M104.443 397.135L520.273 411.87C507.851 410.057 479.96 405.501 467.765 401.783C464.942 392.347 454.384 373.644 434.736 374.32C429.513 362.63 412.123 343.222 384.345 359.109C369.101 335.589 325.654 301.563 273.824 353.616C264.508 349.673 243.759 346.687 235.29 366.292C231.62 363.616 222.586 359.869 215.811 366.292C212.424 352.771 197.179 321.928 159.069 327.42C151.305 314.886 128.919 291.507 101.479 298.267C65.0625 307.239 56.7347 366.292 51.9355 395.023L104.443 397.135Z" fill="url(#paint3_linear_1105_5308)"/>
<path d="M466.889 557.481L249.869 648.33C261.162 643.051 267.879 637.861 271.524 630.064C274.349 624.022 276.737 618.334 284.663 619.177C282.899 607.255 293.892 600.739 301.392 602.821C324.192 552.226 366.103 562.086 384.208 573.34C389.063 562.339 399.81 561.498 406.608 566.855C422.182 551.376 433.453 562.026 441.09 563.088C447.199 563.938 459.477 559.515 466.889 557.481Z" fill="url(#paint4_linear_1105_5308)"/>
<path d="M1343.96 64.7188L982.232 288.865C1008.07 271.623 1060.25 232.067 1060.25 232.067C1057.21 203.669 1068.36 176.285 1099.77 173.749C1099.77 173.749 1100.9 137.068 1130.17 127.094C1153.98 118.98 1177.28 128.108 1190.46 139.265C1186.91 126.08 1196.54 92.1031 1236.05 106.809C1236.05 106.809 1244.16 80.9465 1276.08 95.4196C1286.71 79.4251 1321.94 78.3642 1343.96 64.7188Z" fill="url(#paint5_linear_1105_5308)"/>
</g>
<defs>
<linearGradient id="paint0_linear_1105_5308" x1="1311.16" y1="489.32" x2="1303.09" y2="549.572" gradientUnits="userSpaceOnUse">
<stop stop-color="white"/>
<stop offset="1" stop-color="white" stop-opacity="0"/>
</linearGradient>
<linearGradient id="paint1_linear_1105_5308" x1="1127.56" y1="315.287" x2="1137.66" y2="345.478" gradientUnits="userSpaceOnUse">
<stop stop-color="white"/>
<stop offset="1" stop-color="white" stop-opacity="0"/>
</linearGradient>
<linearGradient id="paint2_linear_1105_5308" x1="375.145" y1="146.959" x2="365.276" y2="233.654" gradientUnits="userSpaceOnUse">
<stop stop-color="white"/>
<stop offset="1" stop-color="white" stop-opacity="0"/>
</linearGradient>
<linearGradient id="paint3_linear_1105_5308" x1="350.796" y1="335.334" x2="331.864" y2="406.438" gradientUnits="userSpaceOnUse">
<stop stop-color="white"/>
<stop offset="1" stop-color="white" stop-opacity="0"/>
</linearGradient>
<linearGradient id="paint4_linear_1105_5308" x1="362.538" y1="565.803" x2="372.05" y2="597.299" gradientUnits="userSpaceOnUse">
<stop stop-color="white"/>
<stop offset="1" stop-color="white" stop-opacity="0"/>
</linearGradient>
<linearGradient id="paint5_linear_1105_5308" x1="1139.79" y1="115.938" x2="1172.16" y2="162.62" gradientUnits="userSpaceOnUse">
<stop stop-color="white"/>
<stop offset="1" stop-color="white" stop-opacity="0"/>
</linearGradient>
<clipPath id="clip0_1105_5308">
<rect width="1590.89" height="584.055" fill="white" transform="translate(0 64.7188)"/>
</clipPath>
</defs>
</svg>
