<svg width="1600" height="657" viewBox="0 0 1600 657" fill="none" xmlns="http://www.w3.org/2000/svg">
<g clip-path="url(#clip0_1085_4054)">
<g clip-path="url(#clip1_1085_4054)">
<path d="M196.809 60.1626L621.41 288.864C591.081 271.272 529.829 230.913 529.829 230.913C533.397 201.937 520.314 173.996 483.444 171.409C483.444 171.409 482.122 133.983 447.763 123.806C419.814 115.527 392.458 124.841 376.997 136.224C381.159 122.771 369.86 88.1035 323.475 103.109C323.475 103.109 313.961 76.7202 276.496 91.4875C264.007 75.1679 222.657 74.0853 196.809 60.1626Z" fill="url(#paint0_linear_1085_4054)"/>
<path d="M13.0625 624.774L572.207 493.21C531.094 501.433 443.546 513.525 443.546 513.525C419.362 483.537 382.601 468.059 350.194 495.629C350.194 495.629 314.133 461.718 276.673 480.151C246.201 495.145 232.657 526.101 230.723 549.318C221.532 533.356 179.935 510.139 156.235 561.894C156.235 561.894 123.827 544.965 107.159 589.242C81.7464 584.144 47.1018 616.765 13.0625 624.774Z" fill="url(#paint1_linear_1085_4054)"/>
<path d="M668.52 366.134C666 347.286 644.996 310.427 593.746 318.804C583.244 311.404 559.72 299.955 530.315 310.427L484.736 304.354L801.211 424.83C802.775 425.439 804.199 425.981 805.465 426.449L801.211 424.83C782.847 417.678 745.233 401.313 718.711 387.505C705.566 362.77 682.633 364.106 668.52 366.134Z" fill="url(#paint2_linear_1085_4054)"/>
<path d="M488.281 341.768C484.791 328.072 466.089 302.678 428.945 313.292C420.547 308.737 402.176 302.319 381.354 312.591L347.152 312.047L591.392 373.627C592.6 373.942 593.699 374.219 594.675 374.455L591.392 373.627C577.206 369.935 548 361.106 527.211 353.205C515.363 336.082 498.534 339.051 488.281 341.768Z" fill="url(#paint3_linear_1085_4054)"/>
<path d="M633.572 270.975C644.25 269.03 667.963 273.964 672.435 303.293C678.302 307.7 688.66 318.472 688.15 336.297L699.471 360.002L578.341 209.177C577.735 208.434 577.19 207.755 576.713 207.149L578.341 209.177C585.458 217.9 600.965 235.466 613.132 247.453C628.877 250.248 632.189 262.948 633.572 270.975Z" fill="url(#paint4_linear_1085_4054)"/>
<path d="M329.85 448.202C320.191 433.147 287.591 410.119 247.222 437.696C235.318 435.58 210.694 435.207 189.788 455.857L148.498 468.86L466.399 445.292C467.976 445.187 469.407 445.081 470.673 444.975L466.399 445.292C447.888 446.522 409.29 447.58 381.169 446.393C360.104 430.56 341.078 440.845 329.85 448.202Z" fill="url(#paint5_linear_1085_4054)"/>
<path d="M701.224 437.288L450.021 467.801C463.256 465.644 471.918 466.209 477.987 459.225C482.689 453.813 486.836 448.639 494.784 451.818C496.476 439.002 509.765 435.482 516.906 439.815C544.066 412.486 595.833 416.635 611.236 433.525C619.501 423.587 630.862 425.851 636.312 433.359C656.98 421.924 665.309 432.235 672.893 435.556C678.96 438.214 692.96 437.228 701.224 437.288Z" fill="url(#paint6_linear_1085_4054)"/>
<path d="M637.652 233.941C647.655 203.589 642.884 132.438 559.171 107.501C548.7 88.6049 521.486 54.0305 469.301 48.2885L404.766 5.66016L795.466 420.065C797.387 422.134 799.145 423.999 800.718 425.636L795.466 420.065C772.913 395.775 727.977 343.428 697.955 303.086C696.192 256.037 660.501 241.23 637.652 233.941Z" fill="url(#paint7_linear_1085_4054)"/>
<path d="M527.152 573.174L774.856 455.696C754.759 464.837 740.645 472.868 733.252 468.796C697.303 448.477 677.928 468.12 672.86 479.912C644.934 479.644 638.415 500.12 638.893 511.736C634.672 512.063 633.723 515.683 633.776 517.452C622.928 505.322 611.312 511.339 609.151 516.066C582.058 495.872 556.232 518.139 560.905 539.31C543.802 543.674 547.551 555.888 544.616 560.422C542.268 564.049 533.438 569.478 527.152 573.174Z" fill="url(#paint8_linear_1085_4054)"/>
<path d="M463.779 340.801L147.605 259.434C164.522 263.06 176.303 262.959 186.875 257.419C195.069 253.126 202.483 248.857 210.538 256.412C218.593 241.807 236.215 243.821 242.759 252.383C310.425 215.719 348.486 261.616 359.059 289.147C373.659 281.089 386.246 289.147 389.266 300.731C419.474 296.702 422.998 317.854 430.55 325.408C436.592 331.451 453.877 336.845 463.779 340.801Z" fill="url(#paint9_linear_1085_4054)"/>
<path d="M935.123 366.134C937.643 347.286 958.647 310.427 1009.9 318.804C1020.4 311.404 1043.92 299.955 1073.33 310.427L1118.91 304.354L802.432 424.83C800.868 425.439 799.444 425.981 798.178 426.449L802.432 424.83C820.796 417.678 858.41 401.313 884.932 387.505C898.077 362.77 921.01 364.106 935.123 366.134Z" fill="url(#paint10_linear_1085_4054)"/>
<path d="M970.07 270.975C959.391 269.03 935.678 273.964 931.206 303.293C925.339 307.7 914.981 318.472 915.491 336.297L904.17 360.002L1025.3 209.177C1025.91 208.434 1026.45 207.755 1026.93 207.149L1025.3 209.177C1018.18 217.9 1002.68 235.466 990.509 247.453C974.764 250.248 971.453 262.948 970.07 270.975Z" fill="url(#paint11_linear_1085_4054)"/>
<path d="M1273.79 448.202C1283.45 433.147 1316.05 410.119 1356.42 437.696C1368.33 435.58 1392.95 435.207 1413.86 455.857L1455.15 468.86L1137.24 445.292C1135.67 445.187 1134.24 445.081 1132.97 444.975L1137.24 445.292C1155.76 446.522 1194.35 447.58 1222.47 446.393C1243.54 430.56 1262.57 440.845 1273.79 448.202Z" fill="url(#paint12_linear_1085_4054)"/>
<path d="M1008.65 166.131C1001.42 144.189 1004.87 92.7539 1065.39 74.7262C1072.96 61.0661 1092.63 36.0719 1130.35 31.921L1177.01 1.10449L894.567 300.682C893.178 302.178 891.907 303.526 890.77 304.71L894.567 300.682C910.87 283.123 943.355 245.281 965.058 216.117C966.333 182.105 992.134 171.4 1008.65 166.131Z" fill="url(#paint13_linear_1085_4054)"/>
<path d="M1591.17 121.757L1600 118.382C1597.05 119.696 1594.11 120.814 1591.17 121.757L1087.02 314.376C1100.14 307.978 1118.62 298.515 1123.87 291.645C1130.44 283.058 1122.36 234.564 1157.2 228.503C1151.14 185.566 1206.17 145.155 1257.17 189.607C1262.22 180.515 1286.35 170.311 1306.14 196.174C1306.31 192.638 1308.77 185.566 1317.25 185.566C1318.09 162.33 1333.71 117.069 1389.45 121.918C1401.4 99.1872 1442.47 65.2419 1511.14 111.311C1524.15 119.837 1557.03 132.704 1591.17 121.757Z" fill="url(#paint14_linear_1085_4054)"/>
<path d="M1498.29 396.224L1082.46 410.959C1094.88 409.146 1122.77 404.59 1134.97 400.872C1137.79 391.436 1148.35 372.732 1168 373.408C1173.22 361.719 1190.61 342.311 1218.39 358.198C1233.63 334.678 1277.08 300.652 1328.91 352.705C1338.23 348.762 1358.97 345.776 1367.44 365.38C1371.11 362.704 1380.15 358.958 1386.92 365.38C1390.31 351.86 1405.55 321.016 1443.66 326.509C1451.43 313.975 1473.81 290.595 1501.25 297.356C1537.67 306.328 1546 365.381 1550.8 394.112L1498.29 396.224Z" fill="url(#paint15_linear_1085_4054)"/>
<path d="M1139.86 340.801L1456.04 259.434C1439.12 263.06 1427.34 262.959 1416.77 257.419C1408.57 253.126 1401.16 248.857 1393.1 256.412C1385.05 241.807 1367.43 243.821 1360.88 252.383C1293.22 215.719 1255.16 261.616 1244.58 289.147C1229.98 281.089 1217.4 289.147 1214.38 300.731C1184.17 296.702 1180.64 317.854 1173.09 325.408C1167.05 331.451 1149.76 336.845 1139.86 340.801Z" fill="url(#paint16_linear_1085_4054)"/>
<path d="M1167.74 432.732L916.537 463.246C929.772 461.088 938.434 461.653 944.502 454.669C949.205 449.258 953.352 444.083 961.299 447.263C962.991 434.446 976.28 430.926 983.422 435.259C1010.58 407.93 1062.35 412.08 1077.75 428.969C1086.02 419.031 1097.38 421.295 1102.83 428.804C1123.5 417.368 1131.82 427.679 1139.41 431.001C1145.48 433.658 1159.48 432.672 1167.74 432.732Z" fill="url(#paint17_linear_1085_4054)"/>
<path d="M1133.11 564.77L1350.13 655.619C1338.84 650.339 1332.12 645.149 1328.48 637.353C1325.65 631.311 1323.26 625.622 1315.34 626.465C1317.1 614.543 1306.11 608.028 1298.61 610.109C1275.81 559.514 1233.9 569.375 1215.79 580.629C1210.94 569.627 1200.19 568.787 1193.39 574.144C1177.82 558.664 1166.55 569.314 1158.91 570.376C1152.8 571.226 1140.52 566.804 1133.11 564.77Z" fill="url(#paint18_linear_1085_4054)"/>
</g>
</g>
<defs>
<linearGradient id="paint0_linear_1085_4054" x1="445.556" y1="122.122" x2="400.846" y2="186.7" gradientUnits="userSpaceOnUse">
<stop stop-color="white"/>
<stop offset="1" stop-color="white" stop-opacity="0"/>
</linearGradient>
<linearGradient id="paint1_linear_1085_4054" x1="283.368" y1="467.907" x2="296.392" y2="558.226" gradientUnits="userSpaceOnUse">
<stop stop-color="white"/>
<stop offset="1" stop-color="white" stop-opacity="0"/>
</linearGradient>
<linearGradient id="paint2_linear_1085_4054" x1="675.646" y1="336.397" x2="659.003" y2="376.994" gradientUnits="userSpaceOnUse">
<stop stop-color="white"/>
<stop offset="1" stop-color="white" stop-opacity="0"/>
</linearGradient>
<linearGradient id="paint3_linear_1085_4054" x1="478.563" y1="319.827" x2="468.461" y2="350.018" gradientUnits="userSpaceOnUse">
<stop stop-color="white"/>
<stop offset="1" stop-color="white" stop-opacity="0"/>
</linearGradient>
<linearGradient id="paint4_linear_1085_4054" x1="659.531" y1="265.224" x2="639.344" y2="284.989" gradientUnits="userSpaceOnUse">
<stop stop-color="white"/>
<stop offset="1" stop-color="white" stop-opacity="0"/>
</linearGradient>
<linearGradient id="paint5_linear_1085_4054" x1="326.62" y1="427.514" x2="324.337" y2="456.761" gradientUnits="userSpaceOnUse">
<stop stop-color="white"/>
<stop offset="1" stop-color="white" stop-opacity="0"/>
</linearGradient>
<linearGradient id="paint6_linear_1085_4054" x1="587.438" y1="405.193" x2="589.922" y2="449.02" gradientUnits="userSpaceOnUse">
<stop stop-color="white"/>
<stop offset="1" stop-color="white" stop-opacity="0"/>
</linearGradient>
<linearGradient id="paint7_linear_1085_4054" x1="619.133" y1="123.944" x2="553.442" y2="177.587" gradientUnits="userSpaceOnUse">
<stop stop-color="white"/>
<stop offset="1" stop-color="white" stop-opacity="0"/>
</linearGradient>
<linearGradient id="paint8_linear_1085_4054" x1="617.545" y1="464.648" x2="646.019" y2="517.342" gradientUnits="userSpaceOnUse">
<stop stop-color="white"/>
<stop offset="1" stop-color="white" stop-opacity="0"/>
</linearGradient>
<linearGradient id="paint9_linear_1085_4054" x1="342.139" y1="248.773" x2="324.531" y2="302.601" gradientUnits="userSpaceOnUse">
<stop stop-color="white"/>
<stop offset="1" stop-color="white" stop-opacity="0"/>
</linearGradient>
<linearGradient id="paint10_linear_1085_4054" x1="927.997" y1="336.397" x2="944.64" y2="376.994" gradientUnits="userSpaceOnUse">
<stop stop-color="white"/>
<stop offset="1" stop-color="white" stop-opacity="0"/>
</linearGradient>
<linearGradient id="paint11_linear_1085_4054" x1="944.112" y1="265.224" x2="964.298" y2="284.989" gradientUnits="userSpaceOnUse">
<stop stop-color="white"/>
<stop offset="1" stop-color="white" stop-opacity="0"/>
</linearGradient>
<linearGradient id="paint12_linear_1085_4054" x1="1277.02" y1="427.514" x2="1279.31" y2="456.761" gradientUnits="userSpaceOnUse">
<stop stop-color="white"/>
<stop offset="1" stop-color="white" stop-opacity="0"/>
</linearGradient>
<linearGradient id="paint13_linear_1085_4054" x1="990.539" y1="146.049" x2="1021.72" y2="167.571" gradientUnits="userSpaceOnUse">
<stop stop-color="white"/>
<stop offset="1" stop-color="white" stop-opacity="0"/>
</linearGradient>
<linearGradient id="paint14_linear_1085_4054" x1="1224.85" y1="154.247" x2="1241.3" y2="230.73" gradientUnits="userSpaceOnUse">
<stop stop-color="white"/>
<stop offset="1" stop-color="white" stop-opacity="0"/>
</linearGradient>
<linearGradient id="paint15_linear_1085_4054" x1="1263.7" y1="323.129" x2="1270.87" y2="405.522" gradientUnits="userSpaceOnUse">
<stop stop-color="white"/>
<stop offset="1" stop-color="white" stop-opacity="0"/>
</linearGradient>
<linearGradient id="paint16_linear_1085_4054" x1="1261.5" y1="248.773" x2="1279.11" y2="302.601" gradientUnits="userSpaceOnUse">
<stop stop-color="white"/>
<stop offset="1" stop-color="white" stop-opacity="0"/>
</linearGradient>
<linearGradient id="paint17_linear_1085_4054" x1="1053.95" y1="400.638" x2="1056.44" y2="444.464" gradientUnits="userSpaceOnUse">
<stop stop-color="white"/>
<stop offset="1" stop-color="white" stop-opacity="0"/>
</linearGradient>
<linearGradient id="paint18_linear_1085_4054" x1="1237.46" y1="573.091" x2="1227.95" y2="604.587" gradientUnits="userSpaceOnUse">
<stop stop-color="white"/>
<stop offset="1" stop-color="white" stop-opacity="0"/>
</linearGradient>
<clipPath id="clip0_1085_4054">
<rect width="1600" height="657" fill="white"/>
</clipPath>
<clipPath id="clip1_1085_4054">
<rect width="1587.24" height="655.125" fill="white" transform="translate(12.7559 0.9375)"/>
</clipPath>
</defs>
</svg>
