<svg width="750" height="1000" viewBox="0 0 750 1000" fill="none" xmlns="http://www.w3.org/2000/svg">
<g clip-path="url(#clip0_426_1442)">
<rect width="750" height="1000" fill="white"/>
<rect width="750" height="1000" fill="url(#paint0_linear_426_1442)" fill-opacity="0.08"/>
<rect x="-119.072" y="1002.93" width="647.953" height="144" transform="rotate(-30 -119.072 1002.93)" fill="url(#paint1_linear_426_1442)" stroke="url(#paint2_linear_426_1442)" stroke-width="16"/>
<path d="M773.221 347.139L845.221 471.847L474.928 685.636L402.928 560.928L444.054 537.184L773.221 347.139Z" fill="url(#paint3_linear_426_1442)" stroke="url(#paint4_linear_426_1442)" stroke-width="16"/>
<path d="M525 725V597L636 661L525 725Z" fill="white"/>
<path fill-rule="evenodd" clip-rule="evenodd" d="M659 665.765L659 483L501 574.383L501 757.147L659 665.765ZM643 647.269L643 510.737L524.968 579.004L643 647.269ZM517 592.878L517 729.409L635.032 661.144L517 592.878Z" fill="url(#paint5_linear_426_1442)"/>
<path d="M328.372 0L525 113.523V806.5L322.5 923.5L0 737V0H328.372Z" fill="url(#paint6_radial_426_1442)"/>
<path d="M65.664 57.744H69.056L67.36 53.264L65.664 57.744ZM66.48 50.8H68.224L72.592 62H70.656L69.664 59.36H65.056L64.064 62H62.128L66.48 50.8ZM77.6665 50.8H85.0745V52.432H79.5385V55.376H84.0345V57.008H79.5385V62H77.6665V50.8ZM89.4083 62.128C88.6083 62.128 87.8936 61.952 87.2643 61.6C86.6349 61.2373 86.1389 60.7413 85.7763 60.112C85.4243 59.4827 85.2483 58.768 85.2483 57.968C85.2483 57.168 85.4243 56.4533 85.7763 55.824C86.1389 55.1947 86.6349 54.704 87.2643 54.352C87.8936 53.9893 88.6083 53.808 89.4083 53.808C90.2083 53.808 90.9229 53.9893 91.5523 54.352C92.1816 54.704 92.6723 55.1947 93.0243 55.824C93.3869 56.4533 93.5683 57.168 93.5683 57.968C93.5683 58.768 93.3869 59.4827 93.0243 60.112C92.6723 60.7413 92.1816 61.2373 91.5523 61.6C90.9229 61.952 90.2083 62.128 89.4083 62.128ZM87.0082 57.968C87.0082 58.7467 87.2269 59.3813 87.6643 59.872C88.1123 60.3627 88.6936 60.608 89.4083 60.608C90.1229 60.608 90.6989 60.3627 91.1363 59.872C91.5843 59.3813 91.8083 58.7467 91.8083 57.968C91.8083 57.1893 91.5843 56.5547 91.1363 56.064C90.6989 55.5733 90.1229 55.328 89.4083 55.328C88.6936 55.328 88.1123 55.5733 87.6643 56.064C87.2269 56.5547 87.0082 57.1893 87.0082 57.968ZM100.188 55.632C99.9003 55.504 99.5536 55.44 99.1483 55.44C98.5083 55.44 97.9749 55.7387 97.5483 56.336C97.1323 56.9227 96.9243 57.808 96.9243 58.992V62H95.1803V53.936H96.9243V55.472C97.1376 54.992 97.4789 54.5973 97.9483 54.288C98.4176 53.968 98.8976 53.808 99.3883 53.808C99.7509 53.808 100.05 53.856 100.284 53.952L100.188 55.632ZM106.532 55.632C106.244 55.504 105.897 55.44 105.492 55.44C104.852 55.44 104.319 55.7387 103.892 56.336C103.476 56.9227 103.268 57.808 103.268 58.992V62H101.524V53.936H103.268V55.472C103.481 54.992 103.823 54.5973 104.292 54.288C104.761 53.968 105.241 53.808 105.732 53.808C106.095 53.808 106.393 53.856 106.628 53.952L106.532 55.632ZM107.123 57.968C107.123 57.2213 107.278 56.5333 107.587 55.904C107.897 55.2747 108.345 54.768 108.931 54.384C109.529 54 110.238 53.808 111.059 53.808C111.891 53.808 112.606 53.9893 113.203 54.352C113.801 54.704 114.254 55.1787 114.563 55.776C114.873 56.3627 115.027 56.992 115.027 57.664C115.027 57.952 115.017 58.192 114.995 58.384H108.835C108.91 59.0773 109.155 59.6267 109.571 60.032C109.998 60.4373 110.531 60.64 111.171 60.64C111.705 60.64 112.147 60.5227 112.499 60.288C112.851 60.0427 113.081 59.7013 113.187 59.264L114.835 59.68C114.622 60.4587 114.19 61.0613 113.539 61.488C112.889 61.9147 112.089 62.128 111.139 62.128C110.318 62.128 109.603 61.936 108.995 61.552C108.387 61.168 107.923 60.6613 107.603 60.032C107.283 59.392 107.123 58.704 107.123 57.968ZM113.171 57.056C113.118 56.4907 112.905 56.0373 112.531 55.696C112.169 55.3547 111.678 55.184 111.059 55.184C110.505 55.184 110.041 55.3493 109.667 55.68C109.294 56 109.043 56.4587 108.915 57.056H113.171ZM119.355 62.128C118.448 62.128 117.696 61.8987 117.099 61.44C116.512 60.9707 116.112 60.4107 115.899 59.76L117.339 59.152C117.488 59.6213 117.728 60.0053 118.059 60.304C118.4 60.592 118.832 60.736 119.355 60.736C119.76 60.736 120.091 60.6347 120.347 60.432C120.614 60.2293 120.747 59.9787 120.747 59.68C120.747 59.4453 120.667 59.2533 120.507 59.104C120.358 58.9547 120.171 58.8427 119.947 58.768C119.723 58.6827 119.398 58.5813 118.971 58.464C118.406 58.3147 117.936 58.1653 117.563 58.016C117.2 57.8667 116.891 57.632 116.635 57.312C116.379 56.992 116.251 56.56 116.251 56.016C116.251 55.376 116.507 54.848 117.019 54.432C117.542 54.016 118.235 53.808 119.099 53.808C119.856 53.808 120.528 53.9947 121.115 54.368C121.702 54.7307 122.08 55.2053 122.251 55.792L120.811 56.4C120.715 56.016 120.502 55.712 120.171 55.488C119.851 55.264 119.499 55.152 119.115 55.152C118.731 55.152 118.427 55.2267 118.203 55.376C117.979 55.5147 117.867 55.7173 117.867 55.984C117.867 56.2613 118 56.4693 118.267 56.608C118.534 56.7467 118.944 56.88 119.499 57.008C120.096 57.1467 120.587 57.296 120.971 57.456C121.355 57.616 121.686 57.872 121.963 58.224C122.251 58.576 122.395 59.056 122.395 59.664C122.395 60.1227 122.267 60.544 122.011 60.928C121.755 61.3013 121.398 61.5947 120.939 61.808C120.48 62.0213 119.952 62.128 119.355 62.128ZM128.428 61.936C128.044 62.064 127.617 62.128 127.148 62.128C126.348 62.128 125.703 61.904 125.212 61.456C124.732 61.008 124.492 60.3413 124.492 59.456V55.424H123.084V53.936H124.492V51.536H126.236V53.936H128.316V55.424H126.236V59.36C126.236 59.7547 126.332 60.0587 126.524 60.272C126.727 60.4747 126.999 60.576 127.34 60.576C127.724 60.576 128.049 60.512 128.316 60.384L128.428 61.936ZM136.447 52.432H132.991V50.8H141.775V52.432H138.319V62H136.447V52.432ZM145.299 62.128C144.499 62.128 143.784 61.952 143.155 61.6C142.526 61.2373 142.03 60.7413 141.667 60.112C141.315 59.4827 141.139 58.768 141.139 57.968C141.139 57.168 141.315 56.4533 141.667 55.824C142.03 55.1947 142.526 54.704 143.155 54.352C143.784 53.9893 144.499 53.808 145.299 53.808C146.099 53.808 146.814 53.9893 147.443 54.352C148.072 54.704 148.563 55.1947 148.915 55.824C149.278 56.4533 149.459 57.168 149.459 57.968C149.459 58.768 149.278 59.4827 148.915 60.112C148.563 60.7413 148.072 61.2373 147.443 61.6C146.814 61.952 146.099 62.128 145.299 62.128ZM142.899 57.968C142.899 58.7467 143.118 59.3813 143.555 59.872C144.003 60.3627 144.584 60.608 145.299 60.608C146.014 60.608 146.59 60.3627 147.027 59.872C147.475 59.3813 147.699 58.7467 147.699 57.968C147.699 57.1893 147.475 56.5547 147.027 56.064C146.59 55.5733 146.014 55.328 145.299 55.328C144.584 55.328 144.003 55.5733 143.555 56.064C143.118 56.5547 142.899 57.1893 142.899 57.968ZM155.522 61.936C155.138 62.064 154.711 62.128 154.242 62.128C153.442 62.128 152.797 61.904 152.306 61.456C151.826 61.008 151.586 60.3413 151.586 59.456V55.424H150.178V53.936H151.586V51.536H153.33V53.936H155.41V55.424H153.33V59.36C153.33 59.7547 153.426 60.0587 153.618 60.272C153.821 60.4747 154.093 60.576 154.434 60.576C154.818 60.576 155.143 60.512 155.41 60.384L155.522 61.936ZM161.684 56.784C161.684 56.2933 161.524 55.904 161.204 55.616C160.894 55.328 160.473 55.184 159.94 55.184C159.449 55.184 159.044 55.3227 158.724 55.6C158.404 55.8667 158.217 56.24 158.164 56.72L156.596 56.432C156.724 55.6427 157.097 55.008 157.716 54.528C158.334 54.048 159.076 53.808 159.94 53.808C160.985 53.808 161.822 54.0907 162.452 54.656C163.081 55.2107 163.396 55.984 163.396 56.976V62H161.684V60.768C161.449 61.1733 161.102 61.504 160.644 61.76C160.185 62.0053 159.689 62.128 159.156 62.128C158.633 62.128 158.164 62.0267 157.748 61.824C157.342 61.6213 157.022 61.3387 156.788 60.976C156.564 60.6133 156.452 60.2027 156.452 59.744C156.452 58.9547 156.756 58.3413 157.364 57.904C157.982 57.4667 158.916 57.184 160.164 57.056L161.684 56.896V56.784ZM158.164 59.696C158.164 60.016 158.286 60.2773 158.532 60.48C158.777 60.6827 159.102 60.784 159.508 60.784C160.18 60.784 160.708 60.576 161.092 60.16C161.476 59.744 161.673 59.2 161.684 58.528V58.192L160.148 58.368C159.497 58.4427 159.001 58.5973 158.66 58.832C158.329 59.056 158.164 59.344 158.164 59.696ZM165.446 50.672H167.19V62H165.446V50.672ZM173.182 50.8H180.494V52.432H175.054V55.248H179.438V56.88H175.054V60.352H180.67V62H173.182V50.8ZM185.765 62.128C184.965 62.128 184.256 61.9573 183.637 61.616C183.029 61.264 182.554 60.7733 182.213 60.144C181.882 59.5147 181.717 58.7893 181.717 57.968C181.717 57.1467 181.882 56.4213 182.213 55.792C182.554 55.1627 183.029 54.6773 183.637 54.336C184.256 53.984 184.965 53.808 185.765 53.808C186.757 53.808 187.584 54.0533 188.245 54.544C188.906 55.0347 189.306 55.696 189.445 56.528L187.749 56.864C187.664 56.4053 187.445 56.0373 187.093 55.76C186.752 55.472 186.325 55.328 185.813 55.328C185.12 55.328 184.565 55.568 184.149 56.048C183.733 56.528 183.525 57.168 183.525 57.968C183.525 58.768 183.733 59.408 184.149 59.888C184.565 60.368 185.12 60.608 185.813 60.608C186.325 60.608 186.752 60.4747 187.093 60.208C187.434 59.9413 187.653 59.5733 187.749 59.104L189.461 59.44C189.29 60.2827 188.874 60.944 188.213 61.424C187.562 61.8933 186.746 62.128 185.765 62.128ZM194.768 62.128C193.968 62.128 193.253 61.952 192.624 61.6C191.994 61.2373 191.498 60.7413 191.136 60.112C190.784 59.4827 190.608 58.768 190.608 57.968C190.608 57.168 190.784 56.4533 191.136 55.824C191.498 55.1947 191.994 54.704 192.624 54.352C193.253 53.9893 193.968 53.808 194.768 53.808C195.568 53.808 196.282 53.9893 196.912 54.352C197.541 54.704 198.032 55.1947 198.384 55.824C198.746 56.4533 198.928 57.168 198.928 57.968C198.928 58.768 198.746 59.4827 198.384 60.112C198.032 60.7413 197.541 61.2373 196.912 61.6C196.282 61.952 195.568 62.128 194.768 62.128ZM192.368 57.968C192.368 58.7467 192.586 59.3813 193.024 59.872C193.472 60.3627 194.053 60.608 194.768 60.608C195.482 60.608 196.058 60.3627 196.496 59.872C196.944 59.3813 197.168 58.7467 197.168 57.968C197.168 57.1893 196.944 56.5547 196.496 56.064C196.058 55.5733 195.482 55.328 194.768 55.328C194.053 55.328 193.472 55.5733 193.024 56.064C192.586 56.5547 192.368 57.1893 192.368 57.968ZM200.54 53.936H202.284V55.28C202.572 54.832 202.94 54.4747 203.388 54.208C203.846 53.9413 204.364 53.808 204.94 53.808C205.804 53.808 206.502 54.0747 207.036 54.608C207.58 55.1307 207.852 55.824 207.852 56.688V62H206.108V57.088C206.108 56.576 205.958 56.1653 205.66 55.856C205.361 55.536 204.961 55.376 204.46 55.376C203.777 55.376 203.244 55.648 202.86 56.192C202.476 56.736 202.284 57.4933 202.284 58.464V62H200.54V53.936ZM213.627 62.128C212.827 62.128 212.112 61.952 211.483 61.6C210.854 61.2373 210.358 60.7413 209.995 60.112C209.643 59.4827 209.467 58.768 209.467 57.968C209.467 57.168 209.643 56.4533 209.995 55.824C210.358 55.1947 210.854 54.704 211.483 54.352C212.112 53.9893 212.827 53.808 213.627 53.808C214.427 53.808 215.142 53.9893 215.771 54.352C216.4 54.704 216.891 55.1947 217.243 55.824C217.606 56.4533 217.787 57.168 217.787 57.968C217.787 58.768 217.606 59.4827 217.243 60.112C216.891 60.7413 216.4 61.2373 215.771 61.6C215.142 61.952 214.427 62.128 213.627 62.128ZM211.227 57.968C211.227 58.7467 211.446 59.3813 211.883 59.872C212.331 60.3627 212.912 60.608 213.627 60.608C214.342 60.608 214.918 60.3627 215.355 59.872C215.803 59.3813 216.027 58.7467 216.027 57.968C216.027 57.1893 215.803 56.5547 215.355 56.064C214.918 55.5733 214.342 55.328 213.627 55.328C212.912 55.328 212.331 55.5733 211.883 56.064C211.446 56.5547 211.227 57.1893 211.227 57.968ZM219.399 53.936H221.143V55.296C221.367 54.8373 221.676 54.4747 222.071 54.208C222.466 53.9413 222.946 53.808 223.511 53.808C224.162 53.808 224.706 53.9467 225.143 54.224C225.591 54.5013 225.9 54.896 226.071 55.408C226.295 54.9387 226.642 54.5547 227.111 54.256C227.58 53.9573 228.119 53.808 228.727 53.808C229.591 53.808 230.279 54.064 230.791 54.576C231.314 55.0773 231.575 55.7387 231.575 56.56V62H229.831V56.992C229.831 56.48 229.687 56.0747 229.399 55.776C229.122 55.4667 228.732 55.312 228.231 55.312C227.644 55.312 227.18 55.552 226.839 56.032C226.508 56.5013 226.343 57.1307 226.343 57.92V62H224.615V56.992C224.615 56.48 224.476 56.0747 224.199 55.776C223.922 55.4667 223.532 55.312 223.031 55.312C222.444 55.312 221.98 55.552 221.639 56.032C221.308 56.512 221.143 57.1413 221.143 57.92V62H219.399V53.936ZM233.618 53.936H235.362V62H233.618V53.936ZM234.482 52.592C234.162 52.592 233.895 52.4853 233.682 52.272C233.468 52.048 233.362 51.7813 233.362 51.472C233.362 51.152 233.468 50.8853 233.682 50.672C233.895 50.448 234.162 50.336 234.482 50.336C234.812 50.336 235.084 50.448 235.298 50.672C235.522 50.8853 235.634 51.152 235.634 51.472C235.634 51.7813 235.522 52.048 235.298 52.272C235.084 52.4853 234.812 52.592 234.482 52.592ZM241.046 62.128C240.246 62.128 239.537 61.9573 238.918 61.616C238.31 61.264 237.836 60.7733 237.494 60.144C237.164 59.5147 236.998 58.7893 236.998 57.968C236.998 57.1467 237.164 56.4213 237.494 55.792C237.836 55.1627 238.31 54.6773 238.918 54.336C239.537 53.984 240.246 53.808 241.046 53.808C242.038 53.808 242.865 54.0533 243.526 54.544C244.188 55.0347 244.588 55.696 244.726 56.528L243.03 56.864C242.945 56.4053 242.726 56.0373 242.374 55.76C242.033 55.472 241.606 55.328 241.094 55.328C240.401 55.328 239.846 55.568 239.43 56.048C239.014 56.528 238.806 57.168 238.806 57.968C238.806 58.768 239.014 59.408 239.43 59.888C239.846 60.368 240.401 60.608 241.094 60.608C241.606 60.608 242.033 60.4747 242.374 60.208C242.716 59.9413 242.934 59.5733 243.03 59.104L244.742 59.44C244.572 60.2827 244.156 60.944 243.494 61.424C242.844 61.8933 242.028 62.128 241.046 62.128ZM250.245 50.8H252.117V62H250.245V50.8ZM254.243 53.936H255.987V55.296C256.211 54.8373 256.52 54.4747 256.915 54.208C257.309 53.9413 257.789 53.808 258.355 53.808C259.005 53.808 259.549 53.9467 259.987 54.224C260.435 54.5013 260.744 54.896 260.915 55.408C261.139 54.9387 261.485 54.5547 261.955 54.256C262.424 53.9573 262.963 53.808 263.571 53.808C264.435 53.808 265.123 54.064 265.635 54.576C266.157 55.0773 266.419 55.7387 266.419 56.56V62H264.675V56.992C264.675 56.48 264.531 56.0747 264.243 55.776C263.965 55.4667 263.576 55.312 263.075 55.312C262.488 55.312 262.024 55.552 261.683 56.032C261.352 56.5013 261.187 57.1307 261.187 57.92V62H259.459V56.992C259.459 56.48 259.32 56.0747 259.043 55.776C258.765 55.4667 258.376 55.312 257.875 55.312C257.288 55.312 256.824 55.552 256.483 56.032C256.152 56.512 255.987 57.1413 255.987 57.92V62H254.243V53.936ZM268.462 53.936H270.206V54.96C270.44 54.6187 270.782 54.3413 271.23 54.128C271.678 53.9147 272.174 53.808 272.718 53.808C273.496 53.808 274.168 53.984 274.734 54.336C275.31 54.688 275.747 55.1787 276.046 55.808C276.355 56.4373 276.51 57.1573 276.51 57.968C276.51 58.7787 276.35 59.4987 276.03 60.128C275.72 60.7573 275.272 61.248 274.686 61.6C274.099 61.952 273.411 62.128 272.622 62.128C272.131 62.128 271.667 62.032 271.23 61.84C270.792 61.648 270.451 61.392 270.206 61.072V64.912H268.462V53.936ZM270.094 57.968C270.094 58.7573 270.307 59.3973 270.734 59.888C271.16 60.368 271.726 60.608 272.43 60.608C273.134 60.608 273.699 60.368 274.126 59.888C274.552 59.3973 274.766 58.7573 274.766 57.968C274.766 57.168 274.552 56.528 274.126 56.048C273.699 55.568 273.134 55.328 272.43 55.328C271.726 55.328 271.16 55.568 270.734 56.048C270.307 56.528 270.094 57.168 270.094 57.968ZM282.887 56.784C282.887 56.2933 282.727 55.904 282.407 55.616C282.098 55.328 281.676 55.184 281.143 55.184C280.652 55.184 280.247 55.3227 279.927 55.6C279.607 55.8667 279.42 56.24 279.367 56.72L277.799 56.432C277.927 55.6427 278.3 55.008 278.919 54.528C279.538 54.048 280.279 53.808 281.143 53.808C282.188 53.808 283.026 54.0907 283.655 54.656C284.284 55.2107 284.599 55.984 284.599 56.976V62H282.887V60.768C282.652 61.1733 282.306 61.504 281.847 61.76C281.388 62.0053 280.892 62.128 280.359 62.128C279.836 62.128 279.367 62.0267 278.951 61.824C278.546 61.6213 278.226 61.3387 277.991 60.976C277.767 60.6133 277.655 60.2027 277.655 59.744C277.655 58.9547 277.959 58.3413 278.567 57.904C279.186 57.4667 280.119 57.184 281.367 57.056L282.887 56.896V56.784ZM279.367 59.696C279.367 60.016 279.49 60.2773 279.735 60.48C279.98 60.6827 280.306 60.784 280.711 60.784C281.383 60.784 281.911 60.576 282.295 60.16C282.679 59.744 282.876 59.2 282.887 58.528V58.192L281.351 58.368C280.7 58.4427 280.204 58.5973 279.863 58.832C279.532 59.056 279.367 59.344 279.367 59.696ZM290.265 62.128C289.465 62.128 288.756 61.9573 288.137 61.616C287.529 61.264 287.054 60.7733 286.713 60.144C286.382 59.5147 286.217 58.7893 286.217 57.968C286.217 57.1467 286.382 56.4213 286.713 55.792C287.054 55.1627 287.529 54.6773 288.137 54.336C288.756 53.984 289.465 53.808 290.265 53.808C291.257 53.808 292.084 54.0533 292.745 54.544C293.406 55.0347 293.806 55.696 293.945 56.528L292.249 56.864C292.164 56.4053 291.945 56.0373 291.593 55.76C291.252 55.472 290.825 55.328 290.313 55.328C289.62 55.328 289.065 55.568 288.649 56.048C288.233 56.528 288.025 57.168 288.025 57.968C288.025 58.768 288.233 59.408 288.649 59.888C289.065 60.368 289.62 60.608 290.313 60.608C290.825 60.608 291.252 60.4747 291.593 60.208C291.934 59.9413 292.153 59.5733 292.249 59.104L293.961 59.44C293.79 60.2827 293.374 60.944 292.713 61.424C292.062 61.8933 291.246 62.128 290.265 62.128ZM299.991 61.936C299.607 62.064 299.18 62.128 298.711 62.128C297.911 62.128 297.265 61.904 296.775 61.456C296.295 61.008 296.055 60.3413 296.055 59.456V55.424H294.647V53.936H296.055V51.536H297.799V53.936H299.879V55.424H297.799V59.36C297.799 59.7547 297.895 60.0587 298.087 60.272C298.289 60.4747 298.561 60.576 298.903 60.576C299.287 60.576 299.612 60.512 299.879 60.384L299.991 61.936ZM66.72 81.128C66.0053 81.128 65.3387 80.9787 64.72 80.68C64.1013 80.3813 63.5893 79.9707 63.184 79.448C62.7893 78.9147 62.5387 78.312 62.432 77.64L64.144 77.112C64.24 77.8267 64.5333 78.4027 65.024 78.84C65.5147 79.2773 66.1013 79.496 66.784 79.496C67.4453 79.496 67.9733 79.352 68.368 79.064C68.7733 78.776 68.976 78.392 68.976 77.912C68.976 77.5387 68.8587 77.2347 68.624 77C68.4 76.7653 68.1173 76.5787 67.776 76.44C67.4347 76.2907 66.9707 76.1307 66.384 75.96C65.6267 75.736 65.0133 75.5173 64.544 75.304C64.0747 75.0907 63.6747 74.776 63.344 74.36C63.0133 73.9333 62.848 73.3733 62.848 72.68C62.848 72.0933 63.0133 71.576 63.344 71.128C63.6853 70.6693 64.144 70.312 64.72 70.056C65.3067 69.8 65.9627 69.672 66.688 69.672C67.3813 69.672 68.016 69.7893 68.592 70.024C69.168 70.2587 69.6427 70.5893 70.016 71.016C70.4 71.432 70.6453 71.9173 70.752 72.472L69.072 73.16C68.9547 72.584 68.6827 72.1307 68.256 71.8C67.84 71.4693 67.3173 71.304 66.688 71.304C66.08 71.304 65.6 71.4267 65.248 71.672C64.9067 71.9173 64.736 72.2533 64.736 72.68C64.736 72.968 64.832 73.208 65.024 73.4C65.2267 73.5813 65.4773 73.7307 65.776 73.848C66.0853 73.9547 66.5013 74.0773 67.024 74.216C67.824 74.4293 68.48 74.648 68.992 74.872C69.504 75.096 69.9467 75.4533 70.32 75.944C70.6933 76.424 70.88 77.0693 70.88 77.88C70.88 78.52 70.7093 79.0853 70.368 79.576C70.0267 80.0667 69.5413 80.4507 68.912 80.728C68.2827 80.9947 67.552 81.128 66.72 81.128ZM76.9906 80.936C76.6066 81.064 76.18 81.128 75.7106 81.128C74.9106 81.128 74.2653 80.904 73.7746 80.456C73.2946 80.008 73.0546 79.3413 73.0546 78.456V74.424H71.6466V72.936H73.0546V70.536H74.7986V72.936H76.8786V74.424H74.7986V78.36C74.7986 78.7547 74.8946 79.0587 75.0866 79.272C75.2893 79.4747 75.5613 79.576 75.9026 79.576C76.2866 79.576 76.612 79.512 76.8786 79.384L76.9906 80.936ZM85.6954 81H83.9514V79.656C83.6634 80.104 83.29 80.4613 82.8314 80.728C82.3834 80.9947 81.8714 81.128 81.2954 81.128C80.4314 81.128 79.7274 80.8667 79.1834 80.344C78.65 79.8107 78.3834 79.112 78.3834 78.248V72.936H80.1274V77.848C80.1274 78.36 80.2767 78.776 80.5754 79.096C80.874 79.4053 81.274 79.56 81.7754 79.56C82.458 79.56 82.9914 79.288 83.3754 78.744C83.7594 78.2 83.9514 77.4427 83.9514 76.472V72.936H85.6954V81ZM91.1668 81.128C90.3668 81.128 89.6734 80.952 89.0868 80.6C88.5108 80.248 88.0681 79.7573 87.7588 79.128C87.4601 78.4987 87.3108 77.7787 87.3108 76.968C87.3108 76.1573 87.4601 75.4373 87.7588 74.808C88.0681 74.1787 88.5108 73.688 89.0868 73.336C89.6628 72.984 90.3454 72.808 91.1348 72.808C91.6468 72.808 92.1214 72.9147 92.5588 73.128C93.0068 73.3307 93.3534 73.6027 93.5988 73.944V69.672H95.3428V81H93.5988V79.976C93.4068 80.3173 93.0868 80.5947 92.6388 80.808C92.1908 81.0213 91.7001 81.128 91.1668 81.128ZM89.0548 76.968C89.0548 77.7573 89.2681 78.3973 89.6948 78.888C90.1214 79.368 90.6868 79.608 91.3908 79.608C92.0948 79.608 92.6601 79.368 93.0868 78.888C93.5134 78.3973 93.7268 77.7573 93.7268 76.968C93.7268 76.168 93.5134 75.528 93.0868 75.048C92.6601 74.568 92.0948 74.328 91.3908 74.328C90.6868 74.328 90.1214 74.568 89.6948 75.048C89.2681 75.528 89.0548 76.168 89.0548 76.968ZM104.487 72.936L100.247 83.912H98.455L99.671 80.76L96.535 72.936H98.423L100.535 78.52L102.695 72.936H104.487ZM114.596 81.128C113.604 81.128 112.687 80.9147 111.844 80.488C111.012 80.0507 110.346 79.4 109.844 78.536C109.343 77.672 109.092 76.6267 109.092 75.4C109.092 74.1733 109.343 73.1333 109.844 72.28C110.356 71.416 111.028 70.7653 111.86 70.328C112.703 69.8907 113.615 69.672 114.596 69.672C115.887 69.672 116.97 70.0027 117.844 70.664C118.719 71.3147 119.258 72.2 119.46 73.32L117.604 73.72C117.444 72.9733 117.098 72.3867 116.564 71.96C116.031 71.5227 115.375 71.304 114.596 71.304C113.903 71.304 113.284 71.464 112.74 71.784C112.196 72.104 111.77 72.5733 111.46 73.192C111.151 73.8 110.996 74.536 110.996 75.4C110.996 76.264 111.151 77.0053 111.46 77.624C111.77 78.232 112.196 78.696 112.74 79.016C113.284 79.3253 113.903 79.48 114.596 79.48C115.375 79.48 116.02 79.2827 116.532 78.888C117.044 78.4933 117.391 77.9387 117.572 77.224L119.444 77.624C119.167 78.712 118.602 79.5707 117.748 80.2C116.895 80.8187 115.844 81.128 114.596 81.128ZM124.799 81.128C123.999 81.128 123.284 80.952 122.655 80.6C122.026 80.2373 121.53 79.7413 121.167 79.112C120.815 78.4827 120.639 77.768 120.639 76.968C120.639 76.168 120.815 75.4533 121.167 74.824C121.53 74.1947 122.026 73.704 122.655 73.352C123.284 72.9893 123.999 72.808 124.799 72.808C125.599 72.808 126.314 72.9893 126.943 73.352C127.572 73.704 128.063 74.1947 128.415 74.824C128.778 75.4533 128.959 76.168 128.959 76.968C128.959 77.768 128.778 78.4827 128.415 79.112C128.063 79.7413 127.572 80.2373 126.943 80.6C126.314 80.952 125.599 81.128 124.799 81.128ZM122.399 76.968C122.399 77.7467 122.618 78.3813 123.055 78.872C123.503 79.3627 124.084 79.608 124.799 79.608C125.514 79.608 126.09 79.3627 126.527 78.872C126.975 78.3813 127.199 77.7467 127.199 76.968C127.199 76.1893 126.975 75.5547 126.527 75.064C126.09 74.5733 125.514 74.328 124.799 74.328C124.084 74.328 123.503 74.5733 123.055 75.064C122.618 75.5547 122.399 76.1893 122.399 76.968ZM130.571 72.936H132.315V74.296C132.539 73.8373 132.848 73.4747 133.243 73.208C133.638 72.9413 134.118 72.808 134.683 72.808C135.334 72.808 135.878 72.9467 136.315 73.224C136.763 73.5013 137.072 73.896 137.243 74.408C137.467 73.9387 137.814 73.5547 138.283 73.256C138.752 72.9573 139.291 72.808 139.899 72.808C140.763 72.808 141.451 73.064 141.963 73.576C142.486 74.0773 142.747 74.7387 142.747 75.56V81H141.003V75.992C141.003 75.48 140.859 75.0747 140.571 74.776C140.294 74.4667 139.904 74.312 139.403 74.312C138.816 74.312 138.352 74.552 138.011 75.032C137.68 75.5013 137.515 76.1307 137.515 76.92V81H135.787V75.992C135.787 75.48 135.648 75.0747 135.371 74.776C135.094 74.4667 134.704 74.312 134.203 74.312C133.616 74.312 133.152 74.552 132.811 75.032C132.48 75.512 132.315 76.1413 132.315 76.92V81H130.571V72.936ZM144.79 72.936H146.534V81H144.79V72.936ZM145.654 71.592C145.334 71.592 145.067 71.4853 144.854 71.272C144.64 71.048 144.534 70.7813 144.534 70.472C144.534 70.152 144.64 69.8853 144.854 69.672C145.067 69.448 145.334 69.336 145.654 69.336C145.984 69.336 146.256 69.448 146.47 69.672C146.694 69.8853 146.806 70.152 146.806 70.472C146.806 70.7813 146.694 71.048 146.47 71.272C146.256 71.4853 145.984 71.592 145.654 71.592ZM151.386 81.128C150.479 81.128 149.727 80.8987 149.13 80.44C148.543 79.9707 148.143 79.4107 147.93 78.76L149.37 78.152C149.519 78.6213 149.759 79.0053 150.09 79.304C150.431 79.592 150.863 79.736 151.386 79.736C151.791 79.736 152.122 79.6347 152.378 79.432C152.645 79.2293 152.778 78.9787 152.778 78.68C152.778 78.4453 152.698 78.2533 152.538 78.104C152.389 77.9547 152.202 77.8427 151.978 77.768C151.754 77.6827 151.429 77.5813 151.002 77.464C150.437 77.3147 149.967 77.1653 149.594 77.016C149.231 76.8667 148.922 76.632 148.666 76.312C148.41 75.992 148.282 75.56 148.282 75.016C148.282 74.376 148.538 73.848 149.05 73.432C149.573 73.016 150.266 72.808 151.13 72.808C151.887 72.808 152.559 72.9947 153.146 73.368C153.733 73.7307 154.111 74.2053 154.282 74.792L152.842 75.4C152.746 75.016 152.533 74.712 152.202 74.488C151.882 74.264 151.53 74.152 151.146 74.152C150.762 74.152 150.458 74.2267 150.234 74.376C150.01 74.5147 149.898 74.7173 149.898 74.984C149.898 75.2613 150.031 75.4693 150.298 75.608C150.565 75.7467 150.975 75.88 151.53 76.008C152.127 76.1467 152.618 76.296 153.002 76.456C153.386 76.616 153.717 76.872 153.994 77.224C154.282 77.576 154.426 78.056 154.426 78.664C154.426 79.1227 154.298 79.544 154.042 79.928C153.786 80.3013 153.429 80.5947 152.97 80.808C152.511 81.0213 151.983 81.128 151.386 81.128ZM158.777 81.128C157.87 81.128 157.118 80.8987 156.521 80.44C155.934 79.9707 155.534 79.4107 155.321 78.76L156.761 78.152C156.91 78.6213 157.15 79.0053 157.481 79.304C157.822 79.592 158.254 79.736 158.777 79.736C159.182 79.736 159.513 79.6347 159.769 79.432C160.035 79.2293 160.169 78.9787 160.169 78.68C160.169 78.4453 160.089 78.2533 159.929 78.104C159.779 77.9547 159.593 77.8427 159.369 77.768C159.145 77.6827 158.819 77.5813 158.393 77.464C157.827 77.3147 157.358 77.1653 156.985 77.016C156.622 76.8667 156.313 76.632 156.057 76.312C155.801 75.992 155.673 75.56 155.673 75.016C155.673 74.376 155.929 73.848 156.441 73.432C156.963 73.016 157.657 72.808 158.521 72.808C159.278 72.808 159.95 72.9947 160.537 73.368C161.123 73.7307 161.502 74.2053 161.673 74.792L160.233 75.4C160.137 75.016 159.923 74.712 159.593 74.488C159.273 74.264 158.921 74.152 158.537 74.152C158.153 74.152 157.849 74.2267 157.625 74.376C157.401 74.5147 157.289 74.7173 157.289 74.984C157.289 75.2613 157.422 75.4693 157.689 75.608C157.955 75.7467 158.366 75.88 158.921 76.008C159.518 76.1467 160.009 76.296 160.393 76.456C160.777 76.616 161.107 76.872 161.385 77.224C161.673 77.576 161.817 78.056 161.817 78.664C161.817 79.1227 161.689 79.544 161.433 79.928C161.177 80.3013 160.819 80.5947 160.361 80.808C159.902 81.0213 159.374 81.128 158.777 81.128ZM163.383 72.936H165.127V81H163.383V72.936ZM164.247 71.592C163.927 71.592 163.661 71.4853 163.447 71.272C163.234 71.048 163.127 70.7813 163.127 70.472C163.127 70.152 163.234 69.8853 163.447 69.672C163.661 69.448 163.927 69.336 164.247 69.336C164.578 69.336 164.85 69.448 165.063 69.672C165.287 69.8853 165.399 70.152 165.399 70.472C165.399 70.7813 165.287 71.048 165.063 71.272C164.85 71.4853 164.578 71.592 164.247 71.592ZM170.924 81.128C170.124 81.128 169.409 80.952 168.78 80.6C168.151 80.2373 167.655 79.7413 167.292 79.112C166.94 78.4827 166.764 77.768 166.764 76.968C166.764 76.168 166.94 75.4533 167.292 74.824C167.655 74.1947 168.151 73.704 168.78 73.352C169.409 72.9893 170.124 72.808 170.924 72.808C171.724 72.808 172.439 72.9893 173.068 73.352C173.697 73.704 174.188 74.1947 174.54 74.824C174.903 75.4533 175.084 76.168 175.084 76.968C175.084 77.768 174.903 78.4827 174.54 79.112C174.188 79.7413 173.697 80.2373 173.068 80.6C172.439 80.952 171.724 81.128 170.924 81.128ZM168.524 76.968C168.524 77.7467 168.743 78.3813 169.18 78.872C169.628 79.3627 170.209 79.608 170.924 79.608C171.639 79.608 172.215 79.3627 172.652 78.872C173.1 78.3813 173.324 77.7467 173.324 76.968C173.324 76.1893 173.1 75.5547 172.652 75.064C172.215 74.5733 171.639 74.328 170.924 74.328C170.209 74.328 169.628 74.5733 169.18 75.064C168.743 75.5547 168.524 76.1893 168.524 76.968ZM176.696 72.936H178.44V74.28C178.728 73.832 179.096 73.4747 179.544 73.208C180.003 72.9413 180.52 72.808 181.096 72.808C181.96 72.808 182.659 73.0747 183.192 73.608C183.736 74.1307 184.008 74.824 184.008 75.688V81H182.264V76.088C182.264 75.576 182.115 75.1653 181.816 74.856C181.517 74.536 181.117 74.376 180.616 74.376C179.933 74.376 179.4 74.648 179.016 75.192C178.632 75.736 178.44 76.4933 178.44 77.464V81H176.696V72.936ZM185.623 76.968C185.623 76.2213 185.778 75.5333 186.087 74.904C186.397 74.2747 186.845 73.768 187.431 73.384C188.029 73 188.738 72.808 189.559 72.808C190.391 72.808 191.106 72.9893 191.703 73.352C192.301 73.704 192.754 74.1787 193.063 74.776C193.373 75.3627 193.527 75.992 193.527 76.664C193.527 76.952 193.517 77.192 193.495 77.384H187.335C187.41 78.0773 187.655 78.6267 188.071 79.032C188.498 79.4373 189.031 79.64 189.671 79.64C190.205 79.64 190.647 79.5227 190.999 79.288C191.351 79.0427 191.581 78.7013 191.687 78.264L193.335 78.68C193.122 79.4587 192.69 80.0613 192.039 80.488C191.389 80.9147 190.589 81.128 189.639 81.128C188.818 81.128 188.103 80.936 187.495 80.552C186.887 80.168 186.423 79.6613 186.103 79.032C185.783 78.392 185.623 77.704 185.623 76.968ZM191.671 76.056C191.618 75.4907 191.405 75.0373 191.031 74.696C190.669 74.3547 190.178 74.184 189.559 74.184C189.005 74.184 188.541 74.3493 188.167 74.68C187.794 75 187.543 75.4587 187.415 76.056H191.671ZM198.573 81.128C197.773 81.128 197.08 80.952 196.493 80.6C195.917 80.248 195.474 79.7573 195.165 79.128C194.866 78.4987 194.717 77.7787 194.717 76.968C194.717 76.1573 194.866 75.4373 195.165 74.808C195.474 74.1787 195.917 73.688 196.493 73.336C197.069 72.984 197.752 72.808 198.541 72.808C199.053 72.808 199.528 72.9147 199.965 73.128C200.413 73.3307 200.76 73.6027 201.005 73.944V69.672H202.749V81H201.005V79.976C200.813 80.3173 200.493 80.5947 200.045 80.808C199.597 81.0213 199.106 81.128 198.573 81.128ZM196.461 76.968C196.461 77.7573 196.674 78.3973 197.101 78.888C197.528 79.368 198.093 79.608 198.797 79.608C199.501 79.608 200.066 79.368 200.493 78.888C200.92 78.3973 201.133 77.7573 201.133 76.968C201.133 76.168 200.92 75.528 200.493 75.048C200.066 74.568 199.501 74.328 198.797 74.328C198.093 74.328 197.528 74.568 197.101 75.048C196.674 75.528 196.461 76.168 196.461 76.968ZM212.841 81.128C212.308 81.128 211.817 81.0213 211.369 80.808C210.921 80.5947 210.601 80.3173 210.409 79.976V81H208.665V69.672H210.409V73.944C210.654 73.6027 210.996 73.3307 211.433 73.128C211.881 72.9147 212.361 72.808 212.873 72.808C213.662 72.808 214.345 72.984 214.921 73.336C215.497 73.688 215.934 74.1787 216.233 74.808C216.542 75.4373 216.697 76.1573 216.697 76.968C216.697 77.7787 216.542 78.4987 216.233 79.128C215.934 79.7573 215.492 80.248 214.905 80.6C214.329 80.952 213.641 81.128 212.841 81.128ZM210.281 76.968C210.281 77.7573 210.494 78.3973 210.921 78.888C211.348 79.368 211.913 79.608 212.617 79.608C213.321 79.608 213.886 79.368 214.313 78.888C214.74 78.3973 214.953 77.7573 214.953 76.968C214.953 76.168 214.74 75.528 214.313 75.048C213.886 74.568 213.321 74.328 212.617 74.328C211.913 74.328 211.348 74.568 210.921 75.048C210.494 75.528 210.281 76.168 210.281 76.968ZM225.081 72.936L220.841 83.912H219.049L220.265 80.76L217.129 72.936H219.017L221.129 78.52L223.289 72.936H225.081ZM230.182 69.8H232.054V79.352H237.398V81H230.182V69.8ZM243.449 75.784C243.449 75.2933 243.289 74.904 242.969 74.616C242.66 74.328 242.239 74.184 241.705 74.184C241.215 74.184 240.809 74.3227 240.489 74.6C240.169 74.8667 239.983 75.24 239.929 75.72L238.361 75.432C238.489 74.6427 238.863 74.008 239.481 73.528C240.1 73.048 240.841 72.808 241.705 72.808C242.751 72.808 243.588 73.0907 244.217 73.656C244.847 74.2107 245.161 74.984 245.161 75.976V81H243.449V79.768C243.215 80.1733 242.868 80.504 242.409 80.76C241.951 81.0053 241.455 81.128 240.921 81.128C240.399 81.128 239.929 81.0267 239.513 80.824C239.108 80.6213 238.788 80.3387 238.553 79.976C238.329 79.6133 238.217 79.2027 238.217 78.744C238.217 77.9547 238.521 77.3413 239.129 76.904C239.748 76.4667 240.681 76.184 241.929 76.056L243.449 75.896V75.784ZM239.929 78.696C239.929 79.016 240.052 79.2773 240.297 79.48C240.543 79.6827 240.868 79.784 241.273 79.784C241.945 79.784 242.473 79.576 242.857 79.16C243.241 78.744 243.439 78.2 243.449 77.528V77.192L241.913 77.368C241.263 77.4427 240.767 77.5973 240.425 77.832C240.095 78.056 239.929 78.344 239.929 78.696ZM251.678 80.936C251.294 81.064 250.867 81.128 250.398 81.128C249.598 81.128 248.953 80.904 248.462 80.456C247.982 80.008 247.742 79.3413 247.742 78.456V74.424H246.334V72.936H247.742V70.536H249.486V72.936H251.566V74.424H249.486V78.36C249.486 78.7547 249.582 79.0587 249.774 79.272C249.977 79.4747 250.249 79.576 250.59 79.576C250.974 79.576 251.299 79.512 251.566 79.384L251.678 80.936ZM257.725 80.936C257.341 81.064 256.914 81.128 256.445 81.128C255.645 81.128 255 80.904 254.509 80.456C254.029 80.008 253.789 79.3413 253.789 78.456V74.424H252.381V72.936H253.789V70.536H255.533V72.936H257.613V74.424H255.533V78.36C255.533 78.7547 255.629 79.0587 255.821 79.272C256.024 79.4747 256.296 79.576 256.637 79.576C257.021 79.576 257.346 79.512 257.613 79.384L257.725 80.936ZM259.196 72.936H260.94V81H259.196V72.936ZM260.06 71.592C259.74 71.592 259.473 71.4853 259.26 71.272C259.047 71.048 258.94 70.7813 258.94 70.472C258.94 70.152 259.047 69.8853 259.26 69.672C259.473 69.448 259.74 69.336 260.06 69.336C260.391 69.336 260.663 69.448 260.876 69.672C261.1 69.8853 261.212 70.152 261.212 70.472C261.212 70.7813 261.1 71.048 260.876 71.272C260.663 71.4853 260.391 71.592 260.06 71.592ZM266.624 81.128C265.824 81.128 265.115 80.9573 264.496 80.616C263.888 80.264 263.414 79.7733 263.072 79.144C262.742 78.5147 262.576 77.7893 262.576 76.968C262.576 76.1467 262.742 75.4213 263.072 74.792C263.414 74.1627 263.888 73.6773 264.496 73.336C265.115 72.984 265.824 72.808 266.624 72.808C267.616 72.808 268.443 73.0533 269.104 73.544C269.766 74.0347 270.166 74.696 270.304 75.528L268.608 75.864C268.523 75.4053 268.304 75.0373 267.952 74.76C267.611 74.472 267.184 74.328 266.672 74.328C265.979 74.328 265.424 74.568 265.008 75.048C264.592 75.528 264.384 76.168 264.384 76.968C264.384 77.768 264.592 78.408 265.008 78.888C265.424 79.368 265.979 79.608 266.672 79.608C267.184 79.608 267.611 79.4747 267.952 79.208C268.294 78.9413 268.512 78.5733 268.608 78.104L270.32 78.44C270.15 79.2827 269.734 79.944 269.072 80.424C268.422 80.8933 267.606 81.128 266.624 81.128ZM271.467 76.968C271.467 76.2213 271.622 75.5333 271.931 74.904C272.24 74.2747 272.688 73.768 273.275 73.384C273.872 73 274.582 72.808 275.403 72.808C276.235 72.808 276.95 72.9893 277.547 73.352C278.144 73.704 278.598 74.1787 278.907 74.776C279.216 75.3627 279.371 75.992 279.371 76.664C279.371 76.952 279.36 77.192 279.339 77.384H273.179C273.254 78.0773 273.499 78.6267 273.915 79.032C274.342 79.4373 274.875 79.64 275.515 79.64C276.048 79.64 276.491 79.5227 276.843 79.288C277.195 79.0427 277.424 78.7013 277.531 78.264L279.179 78.68C278.966 79.4587 278.534 80.0613 277.883 80.488C277.232 80.9147 276.432 81.128 275.483 81.128C274.662 81.128 273.947 80.936 273.339 80.552C272.731 80.168 272.267 79.6613 271.947 79.032C271.627 78.392 271.467 77.704 271.467 76.968ZM277.515 76.056C277.462 75.4907 277.248 75.0373 276.875 74.696C276.512 74.3547 276.022 74.184 275.403 74.184C274.848 74.184 274.384 74.3493 274.011 74.68C273.638 75 273.387 75.4587 273.259 76.056H277.515ZM62.4 98.336C62.6453 98.4 62.9067 98.432 63.184 98.432C63.7067 98.432 64.0907 98.2987 64.336 98.032C64.592 97.7547 64.72 97.3013 64.72 96.672V88.8H66.528V96.672C66.528 97.8027 66.256 98.656 65.712 99.232C65.1787 99.808 64.4427 100.096 63.504 100.096C63.344 100.096 63.152 100.08 62.928 100.048C62.704 100.027 62.528 100 62.4 99.968V98.336ZM75.8829 100H74.1389V98.656C73.8509 99.104 73.4775 99.4613 73.0189 99.728C72.5709 99.9947 72.0589 100.128 71.4829 100.128C70.6189 100.128 69.9149 99.8667 69.3709 99.344C68.8375 98.8107 68.5709 98.112 68.5709 97.248V91.936H70.3149V96.848C70.3149 97.36 70.4642 97.776 70.7629 98.096C71.0615 98.4053 71.4615 98.56 71.9629 98.56C72.6455 98.56 73.1789 98.288 73.5629 97.744C73.9469 97.2 74.1389 96.4427 74.1389 95.472V91.936H75.8829V100ZM77.9303 91.936H79.6743V93.28C79.9623 92.832 80.3303 92.4747 80.7783 92.208C81.2369 91.9413 81.7543 91.808 82.3303 91.808C83.1943 91.808 83.8929 92.0747 84.4263 92.608C84.9703 93.1307 85.2423 93.824 85.2423 94.688V100H83.4983V95.088C83.4983 94.576 83.3489 94.1653 83.0503 93.856C82.7516 93.536 82.3516 93.376 81.8503 93.376C81.1676 93.376 80.6343 93.648 80.2503 94.192C79.8663 94.736 79.6743 95.4933 79.6743 96.464V100H77.9303V91.936ZM86.8576 95.968C86.8576 95.2213 87.0123 94.5333 87.3216 93.904C87.631 93.2747 88.079 92.768 88.6656 92.384C89.263 92 89.9723 91.808 90.7936 91.808C91.6256 91.808 92.3403 91.9893 92.9376 92.352C93.535 92.704 93.9883 93.1787 94.2976 93.776C94.607 94.3627 94.7616 94.992 94.7616 95.664C94.7616 95.952 94.751 96.192 94.7296 96.384H88.5696C88.6443 97.0773 88.8896 97.6267 89.3056 98.032C89.7323 98.4373 90.2656 98.64 90.9056 98.64C91.439 98.64 91.8816 98.5227 92.2336 98.288C92.5856 98.0427 92.815 97.7013 92.9216 97.264L94.5696 97.68C94.3563 98.4587 93.9243 99.0613 93.2736 99.488C92.623 99.9147 91.823 100.128 90.8736 100.128C90.0523 100.128 89.3376 99.936 88.7296 99.552C88.1216 99.168 87.6576 98.6613 87.3376 98.032C87.0176 97.392 86.8576 96.704 86.8576 95.968ZM92.9056 95.056C92.8523 94.4907 92.639 94.0373 92.2656 93.696C91.903 93.3547 91.4123 93.184 90.7936 93.184C90.239 93.184 89.775 93.3493 89.4016 93.68C89.0283 94 88.7776 94.4587 88.6496 95.056H92.9056ZM99.6671 98.448L103.731 94.976C104.36 94.4427 104.819 93.952 105.107 93.504C105.395 93.0453 105.539 92.592 105.539 92.144C105.539 91.5893 105.363 91.1467 105.011 90.816C104.67 90.4747 104.206 90.304 103.619 90.304C102.99 90.304 102.494 90.5067 102.131 90.912C101.768 91.3067 101.587 91.84 101.587 92.512C101.587 92.6827 101.592 92.8107 101.603 92.896L99.7951 92.768C99.7845 92.6827 99.7791 92.56 99.7791 92.4C99.7791 91.6853 99.9445 91.0453 100.275 90.48C100.606 89.9147 101.059 89.472 101.635 89.152C102.222 88.832 102.883 88.672 103.619 88.672C104.376 88.672 105.043 88.816 105.619 89.104C106.206 89.392 106.654 89.8027 106.963 90.336C107.283 90.8587 107.443 91.4613 107.443 92.144C107.443 92.8267 107.235 93.4987 106.819 94.16C106.403 94.8107 105.747 95.4987 104.851 96.224L102.291 98.352H107.427V100H99.6671V98.448ZM113.337 100.128C112.409 100.128 111.609 99.8933 110.937 99.424C110.276 98.944 109.769 98.2773 109.417 97.424C109.076 96.56 108.905 95.552 108.905 94.4C108.905 93.248 109.076 92.2453 109.417 91.392C109.769 90.528 110.276 89.8613 110.937 89.392C111.609 88.912 112.409 88.672 113.337 88.672C114.265 88.672 115.06 88.912 115.721 89.392C116.393 89.8613 116.9 90.528 117.241 91.392C117.593 92.2453 117.769 93.248 117.769 94.4C117.769 95.552 117.593 96.56 117.241 97.424C116.9 98.2773 116.393 98.944 115.721 99.424C115.06 99.8933 114.265 100.128 113.337 100.128ZM110.793 94.4C110.793 95.68 111.012 96.6827 111.449 97.408C111.886 98.1227 112.516 98.48 113.337 98.48C114.148 98.48 114.772 98.1227 115.209 97.408C115.657 96.6827 115.881 95.68 115.881 94.4C115.881 93.12 115.657 92.1173 115.209 91.392C114.772 90.6667 114.148 90.304 113.337 90.304C112.516 90.304 111.886 90.6667 111.449 91.392C111.012 92.1173 110.793 93.12 110.793 94.4ZM118.839 98.448L122.903 94.976C123.532 94.4427 123.991 93.952 124.279 93.504C124.567 93.0453 124.711 92.592 124.711 92.144C124.711 91.5893 124.535 91.1467 124.183 90.816C123.842 90.4747 123.378 90.304 122.791 90.304C122.162 90.304 121.666 90.5067 121.303 90.912C120.94 91.3067 120.759 91.84 120.759 92.512C120.759 92.6827 120.764 92.8107 120.775 92.896L118.967 92.768C118.956 92.6827 118.951 92.56 118.951 92.4C118.951 91.6853 119.116 91.0453 119.447 90.48C119.778 89.9147 120.231 89.472 120.807 89.152C121.394 88.832 122.055 88.672 122.791 88.672C123.548 88.672 124.215 88.816 124.791 89.104C125.378 89.392 125.826 89.8027 126.135 90.336C126.455 90.8587 126.615 91.4613 126.615 92.144C126.615 92.8267 126.407 93.4987 125.991 94.16C125.575 94.8107 124.919 95.4987 124.023 96.224L121.463 98.352H126.599V100H118.839V98.448ZM132.509 100.128C131.581 100.128 130.781 99.8933 130.109 99.424C129.447 98.944 128.941 98.2773 128.589 97.424C128.247 96.56 128.077 95.552 128.077 94.4C128.077 93.248 128.247 92.2453 128.589 91.392C128.941 90.528 129.447 89.8613 130.109 89.392C130.781 88.912 131.581 88.672 132.509 88.672C133.437 88.672 134.231 88.912 134.893 89.392C135.565 89.8613 136.071 90.528 136.413 91.392C136.765 92.2453 136.941 93.248 136.941 94.4C136.941 95.552 136.765 96.56 136.413 97.424C136.071 98.2773 135.565 98.944 134.893 99.424C134.231 99.8933 133.437 100.128 132.509 100.128ZM129.965 94.4C129.965 95.68 130.183 96.6827 130.621 97.408C131.058 98.1227 131.687 98.48 132.509 98.48C133.319 98.48 133.943 98.1227 134.381 97.408C134.829 96.6827 135.053 95.68 135.053 94.4C135.053 93.12 134.829 92.1173 134.381 91.392C133.943 90.6667 133.319 90.304 132.509 90.304C131.687 90.304 131.058 90.6667 130.621 91.392C130.183 92.1173 129.965 93.12 129.965 94.4Z" fill="#D2E1E7"/>
<path d="M70.382 382.176C69.0473 382.176 67.808 381.883 66.664 381.296C65.5347 380.695 64.6253 379.807 63.936 378.634C63.2467 377.446 62.902 376.001 62.902 374.3C62.902 372.613 63.2467 371.176 63.936 369.988C64.6253 368.8 65.5347 367.913 66.664 367.326C67.808 366.725 69.0473 366.424 70.382 366.424C72.054 366.424 73.4693 366.864 74.628 367.744C75.8013 368.609 76.5493 369.79 76.872 371.286L74.892 371.726C74.6427 370.611 74.122 369.746 73.33 369.13C72.5527 368.514 71.5627 368.206 70.36 368.206C69.304 368.206 68.3653 368.448 67.544 368.932C66.7373 369.401 66.1067 370.098 65.652 371.022C65.1973 371.931 64.97 373.024 64.97 374.3C64.97 375.576 65.1973 376.676 65.652 377.6C66.1067 378.509 66.7373 379.199 67.544 379.668C68.3653 380.137 69.304 380.372 70.36 380.372C71.548 380.372 72.5233 380.079 73.286 379.492C74.0633 378.905 74.5913 378.077 74.87 377.006L76.872 377.424C76.476 378.891 75.706 380.049 74.562 380.9C73.418 381.751 72.0247 382.176 70.382 382.176ZM84.2171 382.176C83.1317 382.176 82.1564 381.934 81.2911 381.45C80.4404 380.951 79.7731 380.269 79.2891 379.404C78.8197 378.539 78.5851 377.556 78.5851 376.456C78.5851 375.356 78.8197 374.373 79.2891 373.508C79.7731 372.643 80.4404 371.968 81.2911 371.484C82.1564 370.985 83.1317 370.736 84.2171 370.736C85.3024 370.736 86.2704 370.985 87.1211 371.484C87.9864 371.968 88.6611 372.643 89.1451 373.508C89.6291 374.373 89.8711 375.356 89.8711 376.456C89.8711 377.556 89.6291 378.539 89.1451 379.404C88.6611 380.269 87.9864 380.951 87.1211 381.45C86.2704 381.934 85.3024 382.176 84.2171 382.176ZM80.4991 376.456C80.4991 377.644 80.8437 378.619 81.5331 379.382C82.2224 380.13 83.1171 380.504 84.2171 380.504C85.3171 380.504 86.2117 380.13 86.9011 379.382C87.5904 378.619 87.9351 377.644 87.9351 376.456C87.9351 375.268 87.5904 374.3 86.9011 373.552C86.2117 372.789 85.3171 372.408 84.2171 372.408C83.1171 372.408 82.2224 372.789 81.5331 373.552C80.8437 374.3 80.4991 375.268 80.4991 376.456ZM95.8747 382.176C94.6427 382.176 93.6307 381.861 92.8387 381.23C92.0613 380.599 91.5333 379.837 91.2547 378.942L92.8607 378.238C93.3593 379.807 94.364 380.592 95.8747 380.592C96.5347 380.592 97.07 380.431 97.4807 380.108C97.906 379.771 98.1187 379.367 98.1187 378.898C98.1187 378.502 97.994 378.179 97.7447 377.93C97.51 377.681 97.2167 377.49 96.8647 377.358C96.5127 377.226 96.0213 377.079 95.3907 376.918C94.5987 376.713 93.9607 376.515 93.4767 376.324C93.0073 376.119 92.5967 375.811 92.2447 375.4C91.9073 374.975 91.7387 374.403 91.7387 373.684C91.7387 372.804 92.0907 372.093 92.7947 371.55C93.4987 371.007 94.4447 370.736 95.6327 370.736C96.6153 370.736 97.488 370.993 98.2507 371.506C99.0133 372.005 99.512 372.657 99.7467 373.464L98.1847 374.146C98.038 373.589 97.7153 373.141 97.2167 372.804C96.7327 372.452 96.19 372.276 95.5887 372.276C94.958 372.276 94.4593 372.401 94.0927 372.65C93.726 372.885 93.5427 373.222 93.5427 373.662C93.5427 374.102 93.7407 374.432 94.1367 374.652C94.5327 374.857 95.1487 375.055 95.9847 375.246C96.806 375.451 97.4807 375.664 98.0087 375.884C98.5367 376.089 98.9913 376.434 99.3727 376.918C99.754 377.387 99.9447 378.033 99.9447 378.854C99.9447 379.837 99.5707 380.636 98.8227 381.252C98.0747 381.868 97.092 382.176 95.8747 382.176ZM108.064 381.912C107.58 382.088 107.001 382.176 106.326 382.176C105.329 382.176 104.53 381.89 103.928 381.318C103.342 380.731 103.048 379.851 103.048 378.678V372.562H100.98V370.912H103.048V367.546H104.918V370.912H107.888V372.562H104.918V378.744C104.918 379.316 105.065 379.749 105.358 380.042C105.652 380.335 106.048 380.482 106.546 380.482C107.089 380.482 107.551 380.387 107.932 380.196L108.064 381.912ZM120.525 382.176C119.542 382.176 118.633 381.978 117.797 381.582C116.976 381.186 116.286 380.629 115.729 379.91C115.186 379.191 114.834 378.37 114.673 377.446L116.565 376.83C116.712 377.901 117.159 378.766 117.907 379.426C118.655 380.071 119.542 380.394 120.569 380.394C121.625 380.394 122.468 380.167 123.099 379.712C123.73 379.243 124.045 378.627 124.045 377.864C124.045 377.263 123.869 376.779 123.517 376.412C123.18 376.031 122.754 375.737 122.241 375.532C121.728 375.312 121.024 375.07 120.129 374.806C119.058 374.483 118.208 374.183 117.577 373.904C116.946 373.625 116.404 373.207 115.949 372.65C115.509 372.093 115.289 371.359 115.289 370.45C115.289 369.658 115.509 368.961 115.949 368.36C116.389 367.744 117.005 367.267 117.797 366.93C118.589 366.593 119.484 366.424 120.481 366.424C121.889 366.424 123.092 366.776 124.089 367.48C125.086 368.169 125.68 369.086 125.871 370.23L124.045 370.934C123.884 370.098 123.488 369.438 122.857 368.954C122.241 368.455 121.449 368.206 120.481 368.206C119.498 368.206 118.721 368.411 118.149 368.822C117.592 369.218 117.313 369.761 117.313 370.45C117.313 370.919 117.46 371.308 117.753 371.616C118.061 371.909 118.442 372.144 118.897 372.32C119.366 372.496 120.004 372.694 120.811 372.914C121.926 373.222 122.835 373.53 123.539 373.838C124.243 374.131 124.844 374.601 125.343 375.246C125.856 375.891 126.113 376.757 126.113 377.842C126.113 378.707 125.878 379.47 125.409 380.13C124.954 380.775 124.302 381.281 123.451 381.648C122.615 382 121.64 382.176 120.525 382.176ZM135.286 374.784C135.286 374.021 135.036 373.42 134.538 372.98C134.054 372.525 133.401 372.298 132.58 372.298C131.817 372.298 131.186 372.511 130.688 372.936C130.189 373.361 129.903 373.948 129.83 374.696L128.092 374.366C128.253 373.266 128.744 372.386 129.566 371.726C130.402 371.066 131.406 370.736 132.58 370.736C133.944 370.736 135.044 371.11 135.88 371.858C136.716 372.606 137.134 373.618 137.134 374.894V382H135.286V380.108C134.963 380.739 134.464 381.245 133.79 381.626C133.13 381.993 132.396 382.176 131.59 382.176C130.49 382.176 129.588 381.875 128.884 381.274C128.194 380.658 127.85 379.866 127.85 378.898C127.85 377.842 128.282 377.013 129.148 376.412C130.028 375.811 131.355 375.422 133.13 375.246L135.286 375.004V374.784ZM129.72 378.876C129.72 379.389 129.918 379.815 130.314 380.152C130.724 380.475 131.245 380.636 131.876 380.636C132.946 380.636 133.782 380.306 134.384 379.646C134.985 378.986 135.286 378.099 135.286 376.984V376.456L133.13 376.698C132.015 376.815 131.164 377.065 130.578 377.446C130.006 377.813 129.72 378.289 129.72 378.876ZM138.577 370.912H140.491L143.571 379.822L146.673 370.912H148.609L144.539 382H142.625L138.577 370.912ZM150.422 370.912H152.292V382H150.422V370.912ZM151.346 368.822C150.98 368.822 150.672 368.697 150.422 368.448C150.173 368.199 150.048 367.891 150.048 367.524C150.048 367.143 150.173 366.827 150.422 366.578C150.672 366.329 150.98 366.204 151.346 366.204C151.728 366.204 152.043 366.329 152.292 366.578C152.556 366.827 152.688 367.143 152.688 367.524C152.688 367.891 152.556 368.199 152.292 368.448C152.043 368.697 151.728 368.822 151.346 368.822ZM155.321 370.912H157.191V373.002C157.587 372.313 158.115 371.763 158.775 371.352C159.435 370.941 160.175 370.736 160.997 370.736C162.155 370.736 163.101 371.095 163.835 371.814C164.583 372.533 164.957 373.479 164.957 374.652V382H163.087V375.004C163.087 374.241 162.859 373.625 162.405 373.156C161.95 372.672 161.341 372.43 160.579 372.43C159.537 372.43 158.709 372.855 158.093 373.706C157.491 374.542 157.191 375.686 157.191 377.138V382H155.321V370.912ZM172.639 381.714C171.524 381.714 170.571 381.479 169.779 381.01C168.987 380.541 168.385 379.895 167.975 379.074C167.564 378.238 167.359 377.292 167.359 376.236C167.359 375.18 167.564 374.234 167.975 373.398C168.385 372.562 168.979 371.909 169.757 371.44C170.549 370.971 171.495 370.736 172.595 370.736C173.328 370.736 174.025 370.897 174.685 371.22C175.345 371.528 175.843 371.924 176.181 372.408V370.912H178.029V381.472C178.029 382.396 177.809 383.21 177.369 383.914C176.943 384.633 176.335 385.19 175.543 385.586C174.765 385.982 173.871 386.18 172.859 386.18C171.568 386.18 170.468 385.865 169.559 385.234C168.649 384.618 168.114 383.811 167.953 382.814L169.757 382.506C169.815 383.122 170.131 383.621 170.703 384.002C171.289 384.398 172.008 384.596 172.859 384.596C173.841 384.596 174.641 384.325 175.257 383.782C175.873 383.239 176.181 382.535 176.181 381.67V380.13C175.931 380.599 175.477 380.981 174.817 381.274C174.157 381.567 173.431 381.714 172.639 381.714ZM169.273 376.236C169.273 377.395 169.595 378.319 170.241 379.008C170.886 379.697 171.744 380.042 172.815 380.042C173.885 380.042 174.736 379.697 175.367 379.008C176.012 378.319 176.335 377.395 176.335 376.236C176.335 375.077 176.012 374.153 175.367 373.464C174.736 372.76 173.885 372.408 172.815 372.408C171.729 372.408 170.864 372.76 170.219 373.464C169.588 374.153 169.273 375.077 169.273 376.236ZM184.777 382.176C183.545 382.176 182.533 381.861 181.741 381.23C180.964 380.599 180.436 379.837 180.157 378.942L181.763 378.238C182.262 379.807 183.266 380.592 184.777 380.592C185.437 380.592 185.972 380.431 186.383 380.108C186.808 379.771 187.021 379.367 187.021 378.898C187.021 378.502 186.896 378.179 186.647 377.93C186.412 377.681 186.119 377.49 185.767 377.358C185.415 377.226 184.924 377.079 184.293 376.918C183.501 376.713 182.863 376.515 182.379 376.324C181.91 376.119 181.499 375.811 181.147 375.4C180.81 374.975 180.641 374.403 180.641 373.684C180.641 372.804 180.993 372.093 181.697 371.55C182.401 371.007 183.347 370.736 184.535 370.736C185.518 370.736 186.39 370.993 187.153 371.506C187.916 372.005 188.414 372.657 188.649 373.464L187.087 374.146C186.94 373.589 186.618 373.141 186.119 372.804C185.635 372.452 185.092 372.276 184.491 372.276C183.86 372.276 183.362 372.401 182.995 372.65C182.628 372.885 182.445 373.222 182.445 373.662C182.445 374.102 182.643 374.432 183.039 374.652C183.435 374.857 184.051 375.055 184.887 375.246C185.708 375.451 186.383 375.664 186.911 375.884C187.439 376.089 187.894 376.434 188.275 376.918C188.656 377.387 188.847 378.033 188.847 378.854C188.847 379.837 188.473 380.636 187.725 381.252C186.977 381.868 185.994 382.176 184.777 382.176ZM199.476 376.302H204.954L202.226 369.24L199.476 376.302ZM201.302 366.6H203.128L209.244 382H207.154L205.636 378.084H198.794L197.276 382H195.208L201.302 366.6ZM210.965 370.912H212.835V373.002C213.231 372.313 213.759 371.763 214.419 371.352C215.079 370.941 215.82 370.736 216.641 370.736C217.8 370.736 218.746 371.095 219.479 371.814C220.227 372.533 220.601 373.479 220.601 374.652V382H218.731V375.004C218.731 374.241 218.504 373.625 218.049 373.156C217.595 372.672 216.986 372.43 216.223 372.43C215.182 372.43 214.353 372.855 213.737 373.706C213.136 374.542 212.835 375.686 212.835 377.138V382H210.965V370.912ZM228.349 382.176C227.234 382.176 226.274 381.934 225.467 381.45C224.66 380.951 224.044 380.269 223.619 379.404C223.208 378.539 223.003 377.556 223.003 376.456C223.003 375.356 223.208 374.373 223.619 373.508C224.044 372.643 224.653 371.968 225.445 371.484C226.252 370.985 227.212 370.736 228.327 370.736C229.06 370.736 229.757 370.897 230.417 371.22C231.092 371.543 231.605 371.968 231.957 372.496V366.424H233.827V382H231.957V380.394C231.708 380.907 231.246 381.333 230.571 381.67C229.896 382.007 229.156 382.176 228.349 382.176ZM224.917 376.456C224.917 377.673 225.247 378.656 225.907 379.404C226.567 380.137 227.44 380.504 228.525 380.504C229.61 380.504 230.483 380.137 231.143 379.404C231.803 378.656 232.133 377.673 232.133 376.456C232.133 375.239 231.803 374.263 231.143 373.53C230.483 372.782 229.61 372.408 228.525 372.408C227.44 372.408 226.567 372.782 225.907 373.53C225.247 374.263 224.917 375.239 224.917 376.456ZM242.249 366.6H247.837C249.303 366.6 250.455 366.952 251.291 367.656C252.127 368.345 252.545 369.313 252.545 370.56C252.545 371.235 252.347 371.851 251.951 372.408C251.555 372.951 251.078 373.339 250.521 373.574C251.357 373.867 252.017 374.344 252.501 375.004C252.985 375.649 253.227 376.485 253.227 377.512C253.227 378.905 252.779 380.005 251.885 380.812C250.99 381.604 249.751 382 248.167 382H242.249V366.6ZM247.837 380.196C248.951 380.196 249.795 379.969 250.367 379.514C250.939 379.045 251.225 378.363 251.225 377.468C251.225 376.559 250.939 375.869 250.367 375.4C249.795 374.931 248.951 374.696 247.837 374.696H244.251V380.196H247.837ZM247.749 372.936C248.673 372.936 249.369 372.745 249.839 372.364C250.323 371.968 250.565 371.389 250.565 370.626C250.565 369.863 250.323 369.291 249.839 368.91C249.369 368.514 248.673 368.316 247.749 368.316H244.251V372.936H247.749ZM265.289 382H263.419V379.91C263.023 380.599 262.495 381.149 261.835 381.56C261.175 381.971 260.434 382.176 259.613 382.176C258.454 382.176 257.501 381.817 256.753 381.098C256.019 380.379 255.653 379.433 255.653 378.26V370.912H257.523V377.908C257.523 378.671 257.75 379.294 258.205 379.778C258.659 380.247 259.268 380.482 260.031 380.482C261.072 380.482 261.893 380.064 262.495 379.228C263.111 378.377 263.419 377.226 263.419 375.774V370.912H265.289V382ZM272.047 382.176C270.815 382.176 269.803 381.861 269.011 381.23C268.233 380.599 267.705 379.837 267.427 378.942L269.033 378.238C269.531 379.807 270.536 380.592 272.047 380.592C272.707 380.592 273.242 380.431 273.653 380.108C274.078 379.771 274.291 379.367 274.291 378.898C274.291 378.502 274.166 378.179 273.917 377.93C273.682 377.681 273.389 377.49 273.037 377.358C272.685 377.226 272.193 377.079 271.563 376.918C270.771 376.713 270.133 376.515 269.649 376.324C269.179 376.119 268.769 375.811 268.417 375.4C268.079 374.975 267.911 374.403 267.911 373.684C267.911 372.804 268.263 372.093 268.967 371.55C269.671 371.007 270.617 370.736 271.805 370.736C272.787 370.736 273.66 370.993 274.423 371.506C275.185 372.005 275.684 372.657 275.919 373.464L274.357 374.146C274.21 373.589 273.887 373.141 273.389 372.804C272.905 372.452 272.362 372.276 271.761 372.276C271.13 372.276 270.631 372.401 270.265 372.65C269.898 372.885 269.715 373.222 269.715 373.662C269.715 374.102 269.913 374.432 270.309 374.652C270.705 374.857 271.321 375.055 272.157 375.246C272.978 375.451 273.653 375.664 274.181 375.884C274.709 376.089 275.163 376.434 275.545 376.918C275.926 377.387 276.117 378.033 276.117 378.854C276.117 379.837 275.743 380.636 274.995 381.252C274.247 381.868 273.264 382.176 272.047 382.176ZM278.491 370.912H280.361V382H278.491V370.912ZM279.415 368.822C279.048 368.822 278.74 368.697 278.491 368.448C278.241 368.199 278.117 367.891 278.117 367.524C278.117 367.143 278.241 366.827 278.491 366.578C278.74 366.329 279.048 366.204 279.415 366.204C279.796 366.204 280.111 366.329 280.361 366.578C280.625 366.827 280.757 367.143 280.757 367.524C280.757 367.891 280.625 368.199 280.361 368.448C280.111 368.697 279.796 368.822 279.415 368.822ZM283.389 370.912H285.259V373.002C285.655 372.313 286.183 371.763 286.843 371.352C287.503 370.941 288.244 370.736 289.065 370.736C290.224 370.736 291.17 371.095 291.903 371.814C292.651 372.533 293.025 373.479 293.025 374.652V382H291.155V375.004C291.155 374.241 290.928 373.625 290.473 373.156C290.018 372.672 289.41 372.43 288.647 372.43C287.606 372.43 286.777 372.855 286.161 373.706C285.56 374.542 285.259 375.686 285.259 377.138V382H283.389V370.912ZM295.427 376.456C295.427 375.4 295.64 374.439 296.065 373.574C296.505 372.694 297.128 372.005 297.935 371.506C298.756 370.993 299.71 370.736 300.795 370.736C301.851 370.736 302.782 370.971 303.589 371.44C304.396 371.895 305.012 372.525 305.437 373.332C305.877 374.124 306.097 374.997 306.097 375.95C306.097 376.258 306.082 376.544 306.053 376.808H297.297C297.356 377.923 297.708 378.825 298.353 379.514C299.013 380.189 299.842 380.526 300.839 380.526C301.69 380.526 302.394 380.335 302.951 379.954C303.508 379.573 303.868 379.037 304.029 378.348L305.789 378.766C305.51 379.837 304.931 380.673 304.051 381.274C303.186 381.875 302.115 382.176 300.839 382.176C299.754 382.176 298.8 381.927 297.979 381.428C297.172 380.915 296.542 380.225 296.087 379.36C295.647 378.48 295.427 377.512 295.427 376.456ZM304.117 375.246C304.029 374.366 303.692 373.655 303.105 373.112C302.518 372.569 301.748 372.298 300.795 372.298C299.93 372.298 299.196 372.562 298.595 373.09C297.994 373.603 297.598 374.322 297.407 375.246H304.117ZM312.115 382.176C310.883 382.176 309.871 381.861 309.079 381.23C308.302 380.599 307.774 379.837 307.495 378.942L309.101 378.238C309.6 379.807 310.604 380.592 312.115 380.592C312.775 380.592 313.31 380.431 313.721 380.108C314.146 379.771 314.359 379.367 314.359 378.898C314.359 378.502 314.234 378.179 313.985 377.93C313.75 377.681 313.457 377.49 313.105 377.358C312.753 377.226 312.262 377.079 311.631 376.918C310.839 376.713 310.201 376.515 309.717 376.324C309.248 376.119 308.837 375.811 308.485 375.4C308.148 374.975 307.979 374.403 307.979 373.684C307.979 372.804 308.331 372.093 309.035 371.55C309.739 371.007 310.685 370.736 311.873 370.736C312.856 370.736 313.728 370.993 314.491 371.506C315.254 372.005 315.752 372.657 315.987 373.464L314.425 374.146C314.278 373.589 313.956 373.141 313.457 372.804C312.973 372.452 312.43 372.276 311.829 372.276C311.198 372.276 310.7 372.401 310.333 372.65C309.966 372.885 309.783 373.222 309.783 373.662C309.783 374.102 309.981 374.432 310.377 374.652C310.773 374.857 311.389 375.055 312.225 375.246C313.046 375.451 313.721 375.664 314.249 375.884C314.777 376.089 315.232 376.434 315.613 376.918C315.994 377.387 316.185 378.033 316.185 378.854C316.185 379.837 315.811 380.636 315.063 381.252C314.315 381.868 313.332 382.176 312.115 382.176ZM322.277 382.176C321.045 382.176 320.033 381.861 319.241 381.23C318.464 380.599 317.936 379.837 317.657 378.942L319.263 378.238C319.762 379.807 320.766 380.592 322.277 380.592C322.937 380.592 323.472 380.431 323.883 380.108C324.308 379.771 324.521 379.367 324.521 378.898C324.521 378.502 324.396 378.179 324.147 377.93C323.912 377.681 323.619 377.49 323.267 377.358C322.915 377.226 322.424 377.079 321.793 376.918C321.001 376.713 320.363 376.515 319.879 376.324C319.41 376.119 318.999 375.811 318.647 375.4C318.31 374.975 318.141 374.403 318.141 373.684C318.141 372.804 318.493 372.093 319.197 371.55C319.901 371.007 320.847 370.736 322.035 370.736C323.018 370.736 323.89 370.993 324.653 371.506C325.416 372.005 325.914 372.657 326.149 373.464L324.587 374.146C324.44 373.589 324.118 373.141 323.619 372.804C323.135 372.452 322.592 372.276 321.991 372.276C321.36 372.276 320.862 372.401 320.495 372.65C320.128 372.885 319.945 373.222 319.945 373.662C319.945 374.102 320.143 374.432 320.539 374.652C320.935 374.857 321.551 375.055 322.387 375.246C323.208 375.451 323.883 375.664 324.411 375.884C324.939 376.089 325.394 376.434 325.775 376.918C326.156 377.387 326.347 378.033 326.347 378.854C326.347 379.837 325.973 380.636 325.225 381.252C324.477 381.868 323.494 382.176 322.277 382.176ZM334.116 366.6H339.704C341.17 366.6 342.322 366.952 343.158 367.656C343.994 368.345 344.412 369.313 344.412 370.56C344.412 371.235 344.214 371.851 343.818 372.408C343.422 372.951 342.945 373.339 342.388 373.574C343.224 373.867 343.884 374.344 344.368 375.004C344.852 375.649 345.094 376.485 345.094 377.512C345.094 378.905 344.646 380.005 343.752 380.812C342.857 381.604 341.618 382 340.034 382H334.116V366.6ZM339.704 380.196C340.818 380.196 341.662 379.969 342.234 379.514C342.806 379.045 343.092 378.363 343.092 377.468C343.092 376.559 342.806 375.869 342.234 375.4C341.662 374.931 340.818 374.696 339.704 374.696H336.118V380.196H339.704ZM339.616 372.936C340.54 372.936 341.236 372.745 341.706 372.364C342.19 371.968 342.432 371.389 342.432 370.626C342.432 369.863 342.19 369.291 341.706 368.91C341.236 368.514 340.54 368.316 339.616 368.316H336.118V372.936H339.616ZM346.882 376.456C346.882 375.4 347.095 374.439 347.52 373.574C347.96 372.694 348.583 372.005 349.39 371.506C350.211 370.993 351.165 370.736 352.25 370.736C353.306 370.736 354.237 370.971 355.044 371.44C355.851 371.895 356.467 372.525 356.892 373.332C357.332 374.124 357.552 374.997 357.552 375.95C357.552 376.258 357.537 376.544 357.508 376.808H348.752C348.811 377.923 349.163 378.825 349.808 379.514C350.468 380.189 351.297 380.526 352.294 380.526C353.145 380.526 353.849 380.335 354.406 379.954C354.963 379.573 355.323 379.037 355.484 378.348L357.244 378.766C356.965 379.837 356.386 380.673 355.506 381.274C354.641 381.875 353.57 382.176 352.294 382.176C351.209 382.176 350.255 381.927 349.434 381.428C348.627 380.915 347.997 380.225 347.542 379.36C347.102 378.48 346.882 377.512 346.882 376.456ZM355.572 375.246C355.484 374.366 355.147 373.655 354.56 373.112C353.973 372.569 353.203 372.298 352.25 372.298C351.385 372.298 350.651 372.562 350.05 373.09C349.449 373.603 349.053 374.322 348.862 375.246H355.572ZM359.959 370.912H361.829V373.002C362.225 372.313 362.753 371.763 363.413 371.352C364.073 370.941 364.814 370.736 365.635 370.736C366.794 370.736 367.74 371.095 368.473 371.814C369.221 372.533 369.595 373.479 369.595 374.652V382H367.725V375.004C367.725 374.241 367.498 373.625 367.043 373.156C366.589 372.672 365.98 372.43 365.217 372.43C364.176 372.43 363.347 372.855 362.731 373.706C362.13 374.542 361.829 375.686 361.829 377.138V382H359.959V370.912ZM371.997 376.456C371.997 375.4 372.21 374.439 372.635 373.574C373.075 372.694 373.699 372.005 374.505 371.506C375.327 370.993 376.28 370.736 377.365 370.736C378.421 370.736 379.353 370.971 380.159 371.44C380.966 371.895 381.582 372.525 382.007 373.332C382.447 374.124 382.667 374.997 382.667 375.95C382.667 376.258 382.653 376.544 382.623 376.808H373.867C373.926 377.923 374.278 378.825 374.923 379.514C375.583 380.189 376.412 380.526 377.409 380.526C378.26 380.526 378.964 380.335 379.521 379.954C380.079 379.573 380.438 379.037 380.599 378.348L382.359 378.766C382.081 379.837 381.501 380.673 380.621 381.274C379.756 381.875 378.685 382.176 377.409 382.176C376.324 382.176 375.371 381.927 374.549 381.428C373.743 380.915 373.112 380.225 372.657 379.36C372.217 378.48 371.997 377.512 371.997 376.456ZM380.687 375.246C380.599 374.366 380.262 373.655 379.675 373.112C379.089 372.569 378.319 372.298 377.365 372.298C376.5 372.298 375.767 372.562 375.165 373.09C374.564 373.603 374.168 374.322 373.977 375.246H380.687ZM385.874 372.562H383.982V370.912H385.874V369.878C385.874 368.69 386.175 367.773 386.776 367.128C387.377 366.468 388.169 366.138 389.152 366.138C389.739 366.138 390.237 366.197 390.648 366.314L390.56 367.986C390.179 367.839 389.79 367.766 389.394 367.766C388.895 367.766 388.492 367.949 388.184 368.316C387.891 368.668 387.744 369.137 387.744 369.724V370.912H390.582V372.562H387.744V382H385.874V372.562ZM392.831 370.912H394.701V382H392.831V370.912ZM393.755 368.822C393.388 368.822 393.08 368.697 392.831 368.448C392.581 368.199 392.457 367.891 392.457 367.524C392.457 367.143 392.581 366.827 392.831 366.578C393.08 366.329 393.388 366.204 393.755 366.204C394.136 366.204 394.451 366.329 394.701 366.578C394.965 366.827 395.097 367.143 395.097 367.524C395.097 367.891 394.965 368.199 394.701 368.448C394.451 368.697 394.136 368.822 393.755 368.822ZM403.625 381.912C403.141 382.088 402.562 382.176 401.887 382.176C400.89 382.176 400.09 381.89 399.489 381.318C398.902 380.731 398.609 379.851 398.609 378.678V372.562H396.541V370.912H398.609V367.546H400.479V370.912H403.449V372.562H400.479V378.744C400.479 379.316 400.626 379.749 400.919 380.042C401.212 380.335 401.608 380.482 402.107 380.482C402.65 380.482 403.112 380.387 403.493 380.196L403.625 381.912ZM409.675 382.176C408.443 382.176 407.431 381.861 406.639 381.23C405.862 380.599 405.334 379.837 405.055 378.942L406.661 378.238C407.16 379.807 408.165 380.592 409.675 380.592C410.335 380.592 410.871 380.431 411.281 380.108C411.707 379.771 411.919 379.367 411.919 378.898C411.919 378.502 411.795 378.179 411.545 377.93C411.311 377.681 411.017 377.49 410.665 377.358C410.313 377.226 409.822 377.079 409.191 376.918C408.399 376.713 407.761 376.515 407.277 376.324C406.808 376.119 406.397 375.811 406.045 375.4C405.708 374.975 405.539 374.403 405.539 373.684C405.539 372.804 405.891 372.093 406.595 371.55C407.299 371.007 408.245 370.736 409.433 370.736C410.416 370.736 411.289 370.993 412.051 371.506C412.814 372.005 413.313 372.657 413.547 373.464L411.985 374.146C411.839 373.589 411.516 373.141 411.017 372.804C410.533 372.452 409.991 372.276 409.389 372.276C408.759 372.276 408.26 372.401 407.893 372.65C407.527 372.885 407.343 373.222 407.343 373.662C407.343 374.102 407.541 374.432 407.937 374.652C408.333 374.857 408.949 375.055 409.785 375.246C410.607 375.451 411.281 375.664 411.809 375.884C412.337 376.089 412.792 376.434 413.173 376.918C413.555 377.387 413.745 378.033 413.745 378.854C413.745 379.837 413.371 380.636 412.623 381.252C411.875 381.868 410.893 382.176 409.675 382.176ZM63.606 397.6H73.308V399.382H65.608V403.914H71.856V405.718H65.608V411.196H73.55V413H63.606V397.6ZM76.0004 401.912H77.8704V404.002C78.2664 403.313 78.7944 402.763 79.4544 402.352C80.1144 401.941 80.8551 401.736 81.6764 401.736C82.8351 401.736 83.7811 402.095 84.5144 402.814C85.2624 403.533 85.6364 404.479 85.6364 405.652V413H83.7664V406.004C83.7664 405.241 83.5391 404.625 83.0844 404.156C82.6298 403.672 82.0211 403.43 81.2584 403.43C80.2171 403.43 79.3884 403.855 78.7724 404.706C78.1711 405.542 77.8704 406.686 77.8704 408.138V413H76.0004V401.912ZM95.5182 405.784C95.5182 405.021 95.2689 404.42 94.7702 403.98C94.2862 403.525 93.6335 403.298 92.8122 403.298C92.0495 403.298 91.4189 403.511 90.9202 403.936C90.4215 404.361 90.1355 404.948 90.0622 405.696L88.3242 405.366C88.4855 404.266 88.9769 403.386 89.7982 402.726C90.6342 402.066 91.6389 401.736 92.8122 401.736C94.1762 401.736 95.2762 402.11 96.1122 402.858C96.9482 403.606 97.3662 404.618 97.3662 405.894V413H95.5182V411.108C95.1955 411.739 94.6969 412.245 94.0222 412.626C93.3622 412.993 92.6289 413.176 91.8222 413.176C90.7222 413.176 89.8202 412.875 89.1162 412.274C88.4269 411.658 88.0822 410.866 88.0822 409.898C88.0822 408.842 88.5149 408.013 89.3802 407.412C90.2602 406.811 91.5875 406.422 93.3622 406.246L95.5182 406.004V405.784ZM89.9522 409.876C89.9522 410.389 90.1502 410.815 90.5462 411.152C90.9569 411.475 91.4775 411.636 92.1082 411.636C93.1789 411.636 94.0149 411.306 94.6162 410.646C95.2175 409.986 95.5182 409.099 95.5182 407.984V407.456L93.3622 407.698C92.2475 407.815 91.3969 408.065 90.8102 408.446C90.2382 408.813 89.9522 409.289 89.9522 409.876ZM105.885 413.176C105.078 413.176 104.337 413.007 103.663 412.67C102.988 412.333 102.526 411.907 102.277 411.394V413H100.407V397.424H102.277V403.496C102.629 402.968 103.135 402.543 103.795 402.22C104.469 401.897 105.173 401.736 105.907 401.736C107.021 401.736 107.975 401.985 108.767 402.484C109.573 402.968 110.182 403.643 110.593 404.508C111.018 405.373 111.231 406.356 111.231 407.456C111.231 408.556 111.018 409.539 110.593 410.404C110.182 411.269 109.573 411.951 108.767 412.45C107.96 412.934 106.999 413.176 105.885 413.176ZM102.101 407.456C102.101 408.673 102.431 409.656 103.091 410.404C103.751 411.137 104.623 411.504 105.709 411.504C106.794 411.504 107.667 411.137 108.327 410.404C108.987 409.656 109.317 408.673 109.317 407.456C109.317 406.239 108.987 405.263 108.327 404.53C107.667 403.782 106.794 403.408 105.709 403.408C104.623 403.408 103.751 403.782 103.091 404.53C102.431 405.263 102.101 406.239 102.101 407.456ZM113.62 397.424H115.49V413H113.62V397.424ZM117.88 407.456C117.88 406.4 118.093 405.439 118.518 404.574C118.958 403.694 119.581 403.005 120.388 402.506C121.209 401.993 122.163 401.736 123.248 401.736C124.304 401.736 125.235 401.971 126.042 402.44C126.849 402.895 127.465 403.525 127.89 404.332C128.33 405.124 128.55 405.997 128.55 406.95C128.55 407.258 128.535 407.544 128.506 407.808H119.75C119.809 408.923 120.161 409.825 120.806 410.514C121.466 411.189 122.295 411.526 123.292 411.526C124.143 411.526 124.847 411.335 125.404 410.954C125.961 410.573 126.321 410.037 126.482 409.348L128.242 409.766C127.963 410.837 127.384 411.673 126.504 412.274C125.639 412.875 124.568 413.176 123.292 413.176C122.207 413.176 121.253 412.927 120.432 412.428C119.625 411.915 118.995 411.225 118.54 410.36C118.1 409.48 117.88 408.512 117.88 407.456ZM126.57 406.246C126.482 405.366 126.145 404.655 125.558 404.112C124.971 403.569 124.201 403.298 123.248 403.298C122.383 403.298 121.649 403.562 121.048 404.09C120.447 404.603 120.051 405.322 119.86 406.246H126.57ZM135.665 413.176C134.551 413.176 133.59 412.934 132.783 412.45C131.977 411.951 131.361 411.269 130.935 410.404C130.525 409.539 130.319 408.556 130.319 407.456C130.319 406.356 130.525 405.373 130.935 404.508C131.361 403.643 131.969 402.968 132.761 402.484C133.568 401.985 134.529 401.736 135.643 401.736C136.377 401.736 137.073 401.897 137.733 402.22C138.408 402.543 138.921 402.968 139.273 403.496V397.424H141.143V413H139.273V411.394C139.024 411.907 138.562 412.333 137.887 412.67C137.213 413.007 136.472 413.176 135.665 413.176ZM132.233 407.456C132.233 408.673 132.563 409.656 133.223 410.404C133.883 411.137 134.756 411.504 135.841 411.504C136.927 411.504 137.799 411.137 138.459 410.404C139.119 409.656 139.449 408.673 139.449 407.456C139.449 406.239 139.119 405.263 138.459 404.53C137.799 403.782 136.927 403.408 135.841 403.408C134.756 403.408 133.883 403.782 133.223 404.53C132.563 405.263 132.233 406.239 132.233 407.456ZM149.565 397.6H155.153C156.62 397.6 157.771 397.952 158.607 398.656C159.443 399.345 159.861 400.313 159.861 401.56C159.861 402.235 159.663 402.851 159.267 403.408C158.871 403.951 158.394 404.339 157.837 404.574C158.673 404.867 159.333 405.344 159.817 406.004C160.301 406.649 160.543 407.485 160.543 408.512C160.543 409.905 160.096 411.005 159.201 411.812C158.306 412.604 157.067 413 155.483 413H149.565V397.6ZM155.153 411.196C156.268 411.196 157.111 410.969 157.683 410.514C158.255 410.045 158.541 409.363 158.541 408.468C158.541 407.559 158.255 406.869 157.683 406.4C157.111 405.931 156.268 405.696 155.153 405.696H151.567V411.196H155.153ZM155.065 403.936C155.989 403.936 156.686 403.745 157.155 403.364C157.639 402.968 157.881 402.389 157.881 401.626C157.881 400.863 157.639 400.291 157.155 399.91C156.686 399.514 155.989 399.316 155.065 399.316H151.567V403.936H155.065ZM172.037 401.912L166.229 417.004H164.315L165.921 412.846L161.587 401.912H163.611L166.867 410.404L170.123 401.912H172.037ZM179.235 397.6H181.237V411.196H188.871V413H179.235V397.6ZM197.548 405.784C197.548 405.021 197.298 404.42 196.8 403.98C196.316 403.525 195.663 403.298 194.841 403.298C194.079 403.298 193.448 403.511 192.95 403.936C192.451 404.361 192.165 404.948 192.091 405.696L190.354 405.366C190.515 404.266 191.006 403.386 191.828 402.726C192.664 402.066 193.668 401.736 194.841 401.736C196.206 401.736 197.306 402.11 198.142 402.858C198.978 403.606 199.396 404.618 199.396 405.894V413H197.548V411.108C197.225 411.739 196.726 412.245 196.052 412.626C195.392 412.993 194.658 413.176 193.852 413.176C192.752 413.176 191.85 412.875 191.146 412.274C190.456 411.658 190.112 410.866 190.112 409.898C190.112 408.842 190.544 408.013 191.41 407.412C192.29 406.811 193.617 406.422 195.392 406.246L197.548 406.004V405.784ZM191.982 409.876C191.982 410.389 192.18 410.815 192.576 411.152C192.986 411.475 193.507 411.636 194.138 411.636C195.208 411.636 196.044 411.306 196.646 410.646C197.247 409.986 197.548 409.099 197.548 407.984V407.456L195.392 407.698C194.277 407.815 193.426 408.065 192.84 408.446C192.268 408.813 191.982 409.289 191.982 409.876ZM208.268 412.912C207.784 413.088 207.204 413.176 206.53 413.176C205.532 413.176 204.733 412.89 204.132 412.318C203.545 411.731 203.252 410.851 203.252 409.678V403.562H201.184V401.912H203.252V398.546H205.122V401.912H208.092V403.562H205.122V409.744C205.122 410.316 205.268 410.749 205.562 411.042C205.855 411.335 206.251 411.482 206.75 411.482C207.292 411.482 207.754 411.387 208.136 411.196L208.268 412.912ZM216.346 412.912C215.862 413.088 215.282 413.176 214.608 413.176C213.61 413.176 212.811 412.89 212.21 412.318C211.623 411.731 211.33 410.851 211.33 409.678V403.562H209.262V401.912H211.33V398.546H213.2V401.912H216.17V403.562H213.2V409.744C213.2 410.316 213.346 410.749 213.64 411.042C213.933 411.335 214.329 411.482 214.828 411.482C215.37 411.482 215.832 411.387 216.214 411.196L216.346 412.912ZM218.528 401.912H220.398V413H218.528V401.912ZM219.452 399.822C219.085 399.822 218.777 399.697 218.528 399.448C218.278 399.199 218.154 398.891 218.154 398.524C218.154 398.143 218.278 397.827 218.528 397.578C218.777 397.329 219.085 397.204 219.452 397.204C219.833 397.204 220.148 397.329 220.398 397.578C220.662 397.827 220.794 398.143 220.794 398.524C220.794 398.891 220.662 399.199 220.398 399.448C220.148 399.697 219.833 399.822 219.452 399.822ZM228.288 413.176C227.203 413.176 226.242 412.941 225.406 412.472C224.57 411.988 223.925 411.313 223.47 410.448C223.016 409.583 222.788 408.585 222.788 407.456C222.788 406.327 223.016 405.329 223.47 404.464C223.925 403.599 224.57 402.931 225.406 402.462C226.242 401.978 227.203 401.736 228.288 401.736C229.579 401.736 230.657 402.066 231.522 402.726C232.402 403.371 232.945 404.244 233.15 405.344L231.302 405.718C231.185 405.043 230.855 404.493 230.312 404.068C229.77 403.628 229.11 403.408 228.332 403.408C227.247 403.408 226.374 403.782 225.714 404.53C225.069 405.263 224.746 406.239 224.746 407.456C224.746 408.673 225.069 409.656 225.714 410.404C226.374 411.137 227.247 411.504 228.332 411.504C229.124 411.504 229.784 411.299 230.312 410.888C230.855 410.477 231.2 409.905 231.346 409.172L233.172 409.546C232.938 410.69 232.38 411.585 231.5 412.23C230.635 412.861 229.564 413.176 228.288 413.176ZM234.862 407.456C234.862 406.4 235.075 405.439 235.5 404.574C235.94 403.694 236.564 403.005 237.37 402.506C238.192 401.993 239.145 401.736 240.23 401.736C241.286 401.736 242.218 401.971 243.024 402.44C243.831 402.895 244.447 403.525 244.872 404.332C245.312 405.124 245.532 405.997 245.532 406.95C245.532 407.258 245.518 407.544 245.488 407.808H236.732C236.791 408.923 237.143 409.825 237.788 410.514C238.448 411.189 239.277 411.526 240.274 411.526C241.125 411.526 241.829 411.335 242.386 410.954C242.944 410.573 243.303 410.037 243.464 409.348L245.224 409.766C244.946 410.837 244.366 411.673 243.486 412.274C242.621 412.875 241.55 413.176 240.274 413.176C239.189 413.176 238.236 412.927 237.414 412.428C236.608 411.915 235.977 411.225 235.522 410.36C235.082 409.48 234.862 408.512 234.862 407.456ZM243.552 406.246C243.464 405.366 243.127 404.655 242.54 404.112C241.954 403.569 241.184 403.298 240.23 403.298C239.365 403.298 238.632 403.562 238.03 404.09C237.429 404.603 237.033 405.322 236.842 406.246H243.552Z" fill="#D2E1E7"/>
<path d="M71.988 272V246.348H62.704V241.2H87.256V246.348H77.972V272H71.988ZM90.5942 272V240.848H96.1382V253.256C97.5902 250.836 100.098 249.472 103.178 249.472C108.15 249.472 111.45 252.64 111.45 257.48V272H105.906V258.844C105.906 256.116 104.234 254.4 101.506 254.4C98.0742 254.4 96.1382 257.348 96.1382 262.364V272H90.5942ZM115.617 260.912C115.617 255.148 119.225 249.472 126.573 249.472C134.053 249.472 137.705 255.016 137.705 260.164C137.705 260.956 137.661 261.924 137.617 262.364H121.161C121.645 265.708 123.801 267.688 126.969 267.688C129.565 267.688 131.413 266.456 131.985 264.3L137.177 265.708C135.945 269.888 132.073 272.352 126.881 272.352C119.533 272.352 115.617 266.676 115.617 260.912ZM121.293 258.316H131.765C131.501 255.676 129.785 253.696 126.573 253.696C123.845 253.696 121.909 255.324 121.293 258.316ZM159.773 272V246.348H150.489V241.2H175.041V246.348H165.757V272H159.773ZM184.724 272.352C177.992 272.352 173.152 267.512 173.152 260.912C173.152 254.312 177.992 249.472 184.724 249.472C191.456 249.472 196.296 254.312 196.296 260.912C196.296 267.512 191.456 272.352 184.724 272.352ZM178.74 260.912C178.74 264.872 181.116 267.556 184.724 267.556C188.288 267.556 190.708 264.872 190.708 260.912C190.708 256.952 188.288 254.268 184.724 254.268C181.116 254.268 178.74 256.952 178.74 260.912ZM213.235 271.78C212.135 272.176 210.947 272.352 209.671 272.352C205.183 272.352 201.839 269.932 201.839 264.74V254.488H198.099V249.824H201.839V243.312H207.383V249.824H212.971V254.488H207.383V264.212C207.383 266.324 208.527 267.468 210.243 267.468C211.079 267.468 212.047 267.336 212.839 266.94L213.235 271.78ZM229.686 257.744C229.686 255.236 227.97 253.696 225.286 253.696C222.866 253.696 221.15 255.192 220.886 257.568L215.958 256.688C216.662 252.288 220.578 249.472 225.286 249.472C231.094 249.472 235.054 252.596 235.054 258.492V272H229.686V268.788C228.454 270.944 225.77 272.352 223.042 272.352C218.686 272.352 215.65 269.536 215.65 265.752C215.65 261.396 218.95 259.064 225.55 258.36L229.686 257.964V257.744ZM221.018 265.576C221.018 267.116 222.25 268.26 224.274 268.26C227.706 268.26 229.686 265.664 229.686 262.408V261.924L225.462 262.408C222.514 262.76 221.018 263.992 221.018 265.576ZM240.469 272V240.848H246.013V272H240.469ZM262.174 272V241.2H282.766V246.348H268.158V253.124H279.862V258.316H268.158V266.808H283.25V272H262.174ZM297.123 272.352C290.479 272.352 285.859 267.688 285.859 260.912C285.859 254.136 290.479 249.472 297.123 249.472C302.799 249.472 306.803 252.42 307.551 257.128L302.139 258.184C301.743 255.852 299.895 254.268 297.299 254.268C293.867 254.268 291.623 256.864 291.623 260.912C291.623 264.96 293.867 267.556 297.299 267.556C299.895 267.556 301.611 266.148 302.139 263.772L307.551 264.872C306.715 269.536 302.711 272.352 297.123 272.352ZM322.095 272.352C315.363 272.352 310.523 267.512 310.523 260.912C310.523 254.312 315.363 249.472 322.095 249.472C328.827 249.472 333.667 254.312 333.667 260.912C333.667 267.512 328.827 272.352 322.095 272.352ZM316.111 260.912C316.111 264.872 318.487 267.556 322.095 267.556C325.659 267.556 328.079 264.872 328.079 260.912C328.079 256.952 325.659 254.268 322.095 254.268C318.487 254.268 316.111 256.952 316.111 260.912ZM337.836 272V249.824H343.38V253.168C344.788 251.012 347.296 249.472 350.42 249.472C355.26 249.472 358.516 252.64 358.516 257.48V272H352.972V258.8C352.972 256.204 351.344 254.4 348.748 254.4C345.36 254.4 343.38 257.304 343.38 262.276V272H337.836ZM374.259 272.352C367.527 272.352 362.687 267.512 362.687 260.912C362.687 254.312 367.527 249.472 374.259 249.472C380.991 249.472 385.831 254.312 385.831 260.912C385.831 267.512 380.991 272.352 374.259 272.352ZM368.275 260.912C368.275 264.872 370.651 267.556 374.259 267.556C377.823 267.556 380.243 264.872 380.243 260.912C380.243 256.952 377.823 254.268 374.259 254.268C370.651 254.268 368.275 256.952 368.275 260.912ZM390 272V249.824H395.544V253.212C396.776 251.012 398.844 249.472 401.924 249.472C405.444 249.472 407.82 250.968 408.832 253.652C410.02 251.408 412.66 249.472 416.18 249.472C420.976 249.472 424.1 252.596 424.1 256.952V272H418.556V258.492C418.556 255.852 417.104 254.18 414.508 254.18C411.516 254.18 409.8 256.776 409.8 260.692V272H404.256V258.492C404.256 255.852 402.848 254.18 400.296 254.18C397.26 254.18 395.544 256.82 395.544 260.736V272H390ZM429.489 272V249.824H435.033V272H429.489ZM428.829 243.004C428.829 241.112 430.281 239.616 432.261 239.616C434.285 239.616 435.781 241.112 435.781 243.004C435.781 244.94 434.285 246.436 432.261 246.436C430.281 246.436 428.829 244.94 428.829 243.004ZM450.479 272.352C443.835 272.352 439.215 267.688 439.215 260.912C439.215 254.136 443.835 249.472 450.479 249.472C456.155 249.472 460.159 252.42 460.907 257.128L455.495 258.184C455.099 255.852 453.251 254.268 450.655 254.268C447.223 254.268 444.979 256.864 444.979 260.912C444.979 264.96 447.223 267.556 450.655 267.556C453.251 267.556 454.967 266.148 455.495 263.772L460.907 264.872C460.071 269.536 456.067 272.352 450.479 272.352ZM64.904 327V296.2H70.888V327H64.904ZM76.4574 327V304.824H82.0014V308.212C83.2334 306.012 85.3014 304.472 88.3814 304.472C91.9014 304.472 94.2774 305.968 95.2894 308.652C96.4774 306.408 99.1174 304.472 102.637 304.472C107.433 304.472 110.557 307.596 110.557 311.952V327H105.013V313.492C105.013 310.852 103.561 309.18 100.965 309.18C97.9734 309.18 96.2574 311.776 96.2574 315.692V327H90.7134V313.492C90.7134 310.852 89.3054 309.18 86.7534 309.18C83.7174 309.18 82.0014 311.82 82.0014 315.736V327H76.4574ZM115.946 335.008V304.824H121.49V307.376C122.722 305.66 125.142 304.472 128.09 304.472C134.47 304.472 138.386 309.136 138.386 315.912C138.386 322.688 134.206 327.352 127.694 327.352C125.142 327.352 122.766 326.384 121.49 324.8V335.008H115.946ZM121.138 315.912C121.138 319.916 123.47 322.556 127.034 322.556C130.554 322.556 132.886 319.916 132.886 315.912C132.886 311.908 130.554 309.268 127.034 309.268C123.47 309.268 121.138 311.908 121.138 315.912ZM155.436 312.744C155.436 310.236 153.72 308.696 151.036 308.696C148.616 308.696 146.9 310.192 146.636 312.568L141.708 311.688C142.412 307.288 146.328 304.472 151.036 304.472C156.844 304.472 160.804 307.596 160.804 313.492V327H155.436V323.788C154.204 325.944 151.52 327.352 148.792 327.352C144.436 327.352 141.4 324.536 141.4 320.752C141.4 316.396 144.7 314.064 151.3 313.36L155.436 312.964V312.744ZM146.768 320.576C146.768 322.116 148 323.26 150.024 323.26C153.456 323.26 155.436 320.664 155.436 317.408V316.924L151.212 317.408C148.264 317.76 146.768 318.992 146.768 320.576ZM176.295 327.352C169.651 327.352 165.031 322.688 165.031 315.912C165.031 309.136 169.651 304.472 176.295 304.472C181.971 304.472 185.975 307.42 186.723 312.128L181.311 313.184C180.915 310.852 179.067 309.268 176.471 309.268C173.039 309.268 170.795 311.864 170.795 315.912C170.795 319.96 173.039 322.556 176.471 322.556C179.067 322.556 180.783 321.148 181.311 318.772L186.723 319.872C185.887 324.536 181.883 327.352 176.295 327.352ZM203.653 326.78C202.553 327.176 201.365 327.352 200.089 327.352C195.601 327.352 192.257 324.932 192.257 319.74V309.488H188.517V304.824H192.257V298.312H197.801V304.824H203.389V309.488H197.801V319.212C197.801 321.324 198.945 322.468 200.661 322.468C201.497 322.468 202.465 322.336 203.257 321.94L203.653 326.78ZM253.656 327.352C244.636 327.352 238.036 320.708 238.036 311.6C238.036 302.492 244.636 295.848 253.656 295.848C262.632 295.848 269.232 302.492 269.232 311.6C269.232 320.708 262.632 327.352 253.656 327.352ZM244.064 311.6C244.064 317.716 248.068 322.16 253.656 322.16C259.244 322.16 263.204 317.716 263.204 311.6C263.204 305.484 259.244 300.996 253.656 300.996C248.068 300.996 244.064 305.484 244.064 311.6ZM275.405 327V309.488H271.841V304.824H275.405V303.108C275.405 297.916 278.749 295.1 283.237 295.1C284.381 295.1 285.525 295.276 286.581 295.584L286.185 300.16C285.437 299.852 284.689 299.72 283.985 299.72C282.137 299.72 280.949 301.04 280.949 303.108V304.824H286.229V309.488H280.949V327H275.405ZM301.017 327V296.2H307.001V321.808H321.301V327H301.017ZM337.452 312.744C337.452 310.236 335.736 308.696 333.052 308.696C330.632 308.696 328.916 310.192 328.652 312.568L323.724 311.688C324.428 307.288 328.344 304.472 333.052 304.472C338.86 304.472 342.82 307.596 342.82 313.492V327H337.452V323.788C336.22 325.944 333.536 327.352 330.808 327.352C326.452 327.352 323.416 324.536 323.416 320.752C323.416 316.396 326.716 314.064 333.316 313.36L337.452 312.964V312.744ZM328.784 320.576C328.784 322.116 330.016 323.26 332.04 323.26C335.472 323.26 337.452 320.664 337.452 317.408V316.924L333.228 317.408C330.28 317.76 328.784 318.992 328.784 320.576ZM361.004 326.78C359.904 327.176 358.716 327.352 357.44 327.352C352.952 327.352 349.608 324.932 349.608 319.74V309.488H345.868V304.824H349.608V298.312H355.152V304.824H360.74V309.488H355.152V319.212C355.152 321.324 356.296 322.468 358.012 322.468C358.848 322.468 359.816 322.336 360.608 321.94L361.004 326.78ZM377.977 326.78C376.877 327.176 375.689 327.352 374.413 327.352C369.925 327.352 366.581 324.932 366.581 319.74V309.488H362.841V304.824H366.581V298.312H372.125V304.824H377.713V309.488H372.125V319.212C372.125 321.324 373.269 322.468 374.985 322.468C375.821 322.468 376.789 322.336 377.581 321.94L377.977 326.78ZM381.793 327V304.824H387.337V327H381.793ZM381.133 298.004C381.133 296.112 382.585 294.616 384.565 294.616C386.589 294.616 388.085 296.112 388.085 298.004C388.085 299.94 386.589 301.436 384.565 301.436C382.585 301.436 381.133 299.94 381.133 298.004ZM402.783 327.352C396.139 327.352 391.519 322.688 391.519 315.912C391.519 309.136 396.139 304.472 402.783 304.472C408.459 304.472 412.463 307.42 413.211 312.128L407.799 313.184C407.403 310.852 405.555 309.268 402.959 309.268C399.527 309.268 397.283 311.864 397.283 315.912C397.283 319.96 399.527 322.556 402.959 322.556C405.555 322.556 407.271 321.148 407.799 318.772L413.211 319.872C412.375 324.536 408.371 327.352 402.783 327.352ZM416.184 315.912C416.184 310.148 419.792 304.472 427.14 304.472C434.62 304.472 438.272 310.016 438.272 315.164C438.272 315.956 438.228 316.924 438.184 317.364H421.728C422.212 320.708 424.368 322.688 427.536 322.688C430.132 322.688 431.98 321.456 432.552 319.3L437.744 320.708C436.512 324.888 432.64 327.352 427.448 327.352C420.1 327.352 416.184 321.676 416.184 315.912ZM421.86 313.316H432.332C432.068 310.676 430.352 308.696 427.14 308.696C424.412 308.696 422.476 310.324 421.86 313.316Z" fill="#FEFEFF"/>
<path d="M305.362 52.502H304.096V51.8H307.444V52.502H306.178V56H305.362V52.502ZM307.929 51.8H308.847L310.131 54.842L311.415 51.8H312.333V56H311.565V53.318L310.437 56H309.825L308.697 53.318V56H307.929V51.8Z" fill="#D2E1E7"/>
<path d="M210.27 306V300.17H208.16V299H213.74V300.17H211.63V306H210.27ZM214.549 306V299H216.079L218.219 304.07L220.359 299H221.889V306H220.609V301.53L218.729 306H217.709L215.829 301.53V306H214.549Z" fill="#FEFEFF"/>
<rect width="36" height="1000" fill="url(#paint7_linear_426_1442)"/>
</g>
<defs>
<linearGradient id="paint0_linear_426_1442" x1="375" y1="0" x2="375" y2="1000" gradientUnits="userSpaceOnUse">
<stop stop-color="#67E2EB"/>
<stop offset="1" stop-color="#BFF1F5"/>
</linearGradient>
<linearGradient id="paint1_linear_426_1442" x1="270.054" y1="1075.09" x2="18.2423" y2="1079.24" gradientUnits="userSpaceOnUse">
<stop stop-color="#6CA8DB"/>
<stop offset="1" stop-color="#76B4E1"/>
</linearGradient>
<linearGradient id="paint2_linear_426_1442" x1="-106.769" y1="1088.16" x2="460.056" y2="1084.95" gradientUnits="userSpaceOnUse">
<stop stop-color="#2652A8"/>
<stop offset="1" stop-color="#316FAF"/>
</linearGradient>
<linearGradient id="paint3_linear_426_1442" x1="760.06" y1="429.192" x2="515.469" y2="573.857" gradientUnits="userSpaceOnUse">
<stop stop-color="#6CA8DB"/>
<stop offset="1" stop-color="#76B4E1"/>
</linearGradient>
<linearGradient id="paint4_linear_426_1442" x1="449.52" y1="626.587" x2="776.762" y2="435.998" gradientUnits="userSpaceOnUse">
<stop stop-color="#3262AD"/>
<stop offset="1" stop-color="#316FAF"/>
</linearGradient>
<linearGradient id="paint5_linear_426_1442" x1="571.944" y1="492.592" x2="572.499" y2="726.64" gradientUnits="userSpaceOnUse">
<stop stop-color="#3262AD"/>
<stop offset="1" stop-color="#316FAF"/>
</linearGradient>
<radialGradient id="paint6_radial_426_1442" cx="0" cy="0" r="1" gradientUnits="userSpaceOnUse" gradientTransform="translate(170.5 833.5) rotate(-69.6962) scale(824.212 956.611)">
<stop stop-color="#11507D"/>
<stop offset="1" stop-color="#1E7187"/>
</radialGradient>
<linearGradient id="paint7_linear_426_1442" x1="0" y1="0" x2="36" y2="7.24488e-09" gradientUnits="userSpaceOnUse">
<stop stop-color="white" stop-opacity="0.24"/>
<stop offset="0.55" stop-opacity="0.08"/>
<stop offset="0.85" stop-color="white" stop-opacity="0.08"/>
<stop offset="1" stop-color="white" stop-opacity="0"/>
</linearGradient>
<clipPath id="clip0_426_1442">
<rect width="750" height="1000" fill="white"/>
</clipPath>
</defs>
</svg>
