<svg width="1200" height="600" viewBox="0 0 1200 600" fill="none" xmlns="http://www.w3.org/2000/svg"><g clip-path="url(#a)"><path d="M274.772 150V75H124.896v75z" fill="#49BFCC"/><path d="M199.834 118.194c-9.214 0-17.011-6.815-17.9-12.199-.09-.545.363-.995.916-.995h33.97c.552 0 1.005.45.915.995-.896 5.384-8.749 12.199-17.901 12.199Z" fill="#0E0E29" stroke="#0E0E29" stroke-width="12"/><path d="M274.772 75V0H124.896v75z" fill="#066"/><path d="M188 27h-12a4 4 0 0 0-4 4v12a4 4 0 0 0 4 4h12a4 4 0 0 0 4-4V31a4 4 0 0 0-4-4m36 0h-12a4 4 0 0 0-4 4v12a4 4 0 0 0 4 4h12a4 4 0 0 0 4-4V31a4 4 0 0 0-4-4" fill="#0E0E29"/><path d="M549.875 600v-75H400v75z" fill="#066"/><path d="M474.938 568.194c-9.214 0-17.012-6.815-17.901-12.199-.089-.545.364-.995.916-.995h33.97c.552 0 1.006.45.915.995-.895 5.384-8.749 12.199-17.9 12.199Z" fill="#0E0E29" stroke="#0E0E29" stroke-width="12"/><path d="M549.875 525v-75H400v75z" fill="#FAB8FF"/><path d="M463.104 477h-12a4 4 0 0 0-4 4v12a4 4 0 0 0 4 4h12a4 4 0 0 0 4-4v-12a4 4 0 0 0-4-4m36 0h-12a4 4 0 0 0-4 4v12a4 4 0 0 0 4 4h12a4 4 0 0 0 4-4v-12a4 4 0 0 0-4-4" fill="#0E0E29"/><path d="M125 0v150H0V0zm1075 0v150h-150V0z" fill="#FDE6FF"/><path d="M0 0c41.421 0 75 33.579 75 75s-33.579 75-75 75-75-33.579-75-75S-41.421 0 0 0" fill="#FFC247"/><path d="M27 58.792s.222-2.227.625-3.226C28.942 52.306 32.195 50 36 50c4.97 0 9 3.936 9 8.792 0 2.626-1.18 4.984-3.048 6.595L26.992 80 11.869 65.228C10.104 63.623 9 61.333 9 58.792 9 53.936 13.03 50 18 50c3.805 0 7.058 2.306 8.375 5.566.42 1.04.625 3.226.625 3.226" fill="#0E0E29"/><path d="M1050 300c41.42 0 75 33.579 75 75s-33.58 75-75 75-75-33.579-75-75 33.58-75 75-75" fill="#FFC247"/><path d="M1027 358.792s.22-2.227.63-3.226c1.31-3.26 4.57-5.566 8.37-5.566 4.97 0 9 3.936 9 8.792 0 2.626-1.18 4.984-3.05 6.595L1026.99 380l-15.12-14.773c-1.77-1.605-2.87-3.894-2.87-6.435 0-4.856 4.03-8.792 9-8.792 3.8 0 7.06 2.306 8.37 5.566.42 1.039.63 3.226.63 3.226m50 0s.22-2.227.63-3.226c1.31-3.26 4.57-5.566 8.37-5.566 4.97 0 9 3.936 9 8.792 0 2.626-1.18 4.984-3.05 6.595L1076.99 380l-15.12-14.773c-1.77-1.605-2.87-3.894-2.87-6.435 0-4.856 4.03-8.792 9-8.792 3.8 0 7.06 2.306 8.37 5.566.42 1.039.63 3.226.63 3.226" fill="#0E0E29"/><path d="M1200 0c41.42 0 75 33.579 75 75s-33.58 75-75 75-75-33.579-75-75 33.58-75 75-75" fill="#FFC247"/><path d="M1177 58.792s.22-2.227.63-3.226c1.31-3.26 4.57-5.566 8.37-5.566 4.97 0 9 3.936 9 8.792 0 2.626-1.18 4.984-3.05 6.595L1176.99 80l-15.12-14.772c-1.77-1.605-2.87-3.895-2.87-6.436 0-4.856 4.03-8.792 9-8.792 3.8 0 7.06 2.306 8.37 5.566.42 1.04.63 3.226.63 3.226" fill="#0E0E29"/><path fill="#FFF3C2" d="M275 0h300v150H275z"/><path d="M488.885 89.839c7.435-7.56 11.154-11.34 11.115-16-.039-4.658-3.82-8.375-11.382-15.81l-47.849-47.05C433.324 3.66 429.601 0 424.999 0s-8.325 3.66-15.77 10.98l-47.848 47.047C353.82 65.462 350.039 69.18 350 73.838c-.039 4.659 3.679 8.439 11.115 15.999l47.851 48.651c7.548 7.675 11.323 11.512 16.035 11.512 4.713 0 8.488-3.837 16.036-11.512z" fill="#FFC247"/><path fill="#FDE6FF" d="M550 450h300v150H550z"/><path d="M763.885 539.839c7.435-7.561 11.154-11.341 11.115-15.999s-3.82-8.376-11.382-15.811l-47.849-47.049c-7.445-7.32-11.168-10.98-15.77-10.98s-8.325 3.66-15.77 10.98l-47.848 47.047c-7.561 7.435-11.342 11.153-11.381 15.811-.039 4.659 3.679 8.439 11.115 15.999l47.851 48.651c7.548 7.675 11.323 11.512 16.035 11.512 4.713 0 8.488-3.837 16.036-11.512zM975 0v150H775V0z" fill="#FAB8FF"/><path d="M275 300v150H125V300zm350 0v150h175V300z" fill="#E1E1FA"/><path d="M1113.89 89.839c7.43-7.56 11.15-11.34 11.11-16-.04-4.658-3.82-8.375-11.38-15.81l-47.85-47.05C1058.32 3.66 1054.6 0 1050 0s-8.33 3.66-15.77 10.98l-47.849 47.047C978.82 65.462 975.039 69.18 975 73.838c-.039 4.659 3.679 8.439 11.115 15.999l47.855 48.651c7.54 7.675 11.32 11.512 16.03 11.512s8.49-3.837 16.04-11.512z" fill="#B8B8FF"/><path d="M1022 65c0 5.523 4.48 10 10 10s10-4.477 10-10-4.48-10-10-10-10 4.477-10 10m36 0c0 5.523 4.48 10 10 10s10-4.477 10-10-4.48-10-10-10-10 4.477-10 10" fill="#0E0E29"/><path d="M125 150v150H-25V150z" fill="#FAB8FF"/><path d="M249.711 150c3.174 0 4.761 0 6.24.383 1.311.339 2.555.898 3.679 1.652 1.269.851 2.323 2.037 4.432 4.409l49.6 55.8c4.011 4.514 6.017 6.77 6.779 9.317a12 12 0 0 1 0 6.878c-.762 2.547-2.768 4.803-6.779 9.317l-49.6 55.8c-2.109 2.372-3.163 3.558-4.432 4.409a12 12 0 0 1-3.679 1.652c-1.479.383-3.066.383-6.24.383H125V150z" fill="#FDE6FF"/><path d="M85 212c8.07 14.961 22.961 25 39.995 25 17.044 0 31.934-10.039 40.005-25" stroke="#0E0E29" stroke-width="15" stroke-linecap="round"/><path d="M400 450v150H250V450zm800 0v150h-100V450z" fill="#DBEB7A"/><path d="M174.711 450c3.174 0 4.761 0 6.24.383 1.311.339 2.555.898 3.679 1.652 1.269.851 2.323 2.037 4.432 4.409l49.6 55.8c4.011 4.514 6.017 6.77 6.779 9.317a12 12 0 0 1 0 6.878c-.762 2.547-2.768 4.803-6.779 9.317l-49.6 55.8c-2.109 2.372-3.163 3.558-4.432 4.409a12 12 0 0 1-3.679 1.652c-1.479.383-3.066.383-6.24.383H0V450z" fill="#33B88C"/><path d="M1250 150v150h-150V150z" fill="#DBEB7A"/><path d="M400 150v150c41.421 0 75-33.579 75-75s-33.579-75-75-75" fill="#066"/><path d="M400 300V150c-41.421 0-75 33.579-75 75s33.579 75 75 75" fill="#DBEB7A"/><path d="M360 240c8.071 14.961 22.961 25 39.995 25 17.044 0 31.934-10.039 40.005-25" stroke="#0E0E29" stroke-width="15" stroke-linecap="round"/><path d="M825 150c-41.421 0-75 33.579-75 75s33.579 75 75 75 75-33.579 75-75-33.579-75-75-75" fill="#33B88C"/><path d="M795 223.926 815.703 245 855 205" stroke="#0E0E29" stroke-width="15" stroke-linecap="round"/><path d="M275 300c-41.421 0-75 33.579-75 75s33.579 75 75 75 75-33.579 75-75-33.579-75-75-75" fill="#C4F5DB"/><path d="M245 373.926 265.703 395 305 355" stroke="#0E0E29" stroke-width="15" stroke-linecap="round"/><path d="M475 225c0-41.421 33.579-75 75-75h200v150H550c-41.421 0-75-33.579-75-75m200 100v-25h-50z" fill="#7A7AFF"/><path d="M567 225c0 5.523 4.477 10 10 10s10-4.477 10-10-4.477-10-10-10-10 4.477-10 10m36 0c0 5.523 4.477 10 10 10s10-4.477 10-10-4.477-10-10-10-10 4.477-10 10m36 0c0 5.523 4.477 10 10 10s10-4.477 10-10-4.477-10-10-10-10 4.477-10 10" fill="#0E0E29"/><path d="M200 375c0-41.421-33.579-75-75-75H-75v150h200c41.421 0 75-33.579 75-75M0 475v-25h50z" fill="#49BFCC"/><path d="M108 375c0 5.523-4.477 10-10 10s-10-4.477-10-10 4.477-10 10-10 10 4.477 10 10m-36 0c0 5.523-4.477 10-10 10s-10-4.477-10-10 4.477-10 10-10 10 4.477 10 10m-36 0c0 5.523-4.477 10-10 10s-10-4.477-10-10 4.477-10 10-10 10 4.477 10 10" fill="#0E0E29"/><path d="M1400 375c0-41.421-33.58-75-75-75h-200v150h200c41.42 0 75-33.579 75-75" fill="#49BFCC"/><path fill="#B8B8FF" d="M575 0h200v150H575z"/><path d="M635 57h80m-80 36h60" stroke="#0E0E29" stroke-width="15" stroke-linecap="round"/><path d="M625 175v-25h50z" fill="#B8B8FF"/><path fill="#7A7AFF" d="M850 450h250v150H850z"/><path d="M935 507h80m-80 36h60" stroke="#0E0E29" stroke-width="15" stroke-linecap="round"/><path fill="#B8B8FF" d="M350 300h275v150H350zm50 175v-25h50z"/><path d="M507.5 371c-5.713 5.051-12.592 8-20 8s-14.287-2.949-20-8" stroke="#0E0E29" stroke-width="15" stroke-linecap="round"/><path d="M800 300v150h175V300z" fill="#05537A"/><path fill="#C4F5DB" d="M900 150h200v150H900zm50 175v-25h50z"/><path d="M1020 221c-5.71 5.051-12.59 8-20 8-7.408 0-14.287-2.949-20-8" stroke="#0E0E29" stroke-width="15" stroke-linecap="round"/></g><defs><clipPath id="a"><path fill="#fff" d="M0 0h1200v600H0z"/></clipPath></defs></svg>