<svg width="101" height="101" viewBox="0 0 101 101" fill="none" xmlns="http://www.w3.org/2000/svg">
<circle cx="50.6699" cy="50.7529" r="50" transform="rotate(180 50.6699 50.7529)" fill="url(#paint0_radial_3247_2570)"/>
<g filter="url(#filter0_i_3247_2570)">
<path d="M86.6256 32.277C83.8585 27.1115 75.1187 25.9965 64.0995 28.5389C53.7261 21.3833 39.4582 22.4486 30.251 31.7412C24.7537 37.2895 22.1629 44.6603 22.4744 51.9255C15.3559 59.3397 12.1235 66.6629 14.7164 71.5037C17.5285 76.7561 26.5164 77.8194 37.7979 75.1115C47.6651 79.7681 59.7767 77.987 67.9243 69.7639C71.9908 65.6596 74.4648 60.5561 75.3503 55.2375C84.867 46.7269 89.612 37.8542 86.6236 32.275L86.6256 32.277ZM74.3049 42.0723C74.3008 42.0599 74.2967 42.0454 74.2926 42.0309C71.0869 47.6537 63.9376 54.1039 54.6197 59.1887C44.0905 64.9314 35.9921 66.1768 27.2646 66.1768C24.6717 65.6575 22.7614 64.5218 21.8042 62.7386C20.7506 60.7733 20.9843 58.2599 22.2715 55.4858C22.4027 55.2003 22.8208 55.2499 22.8803 55.5602C23.2718 57.6475 23.9297 59.588 24.4462 60.8913C24.809 61.8056 25.715 62.2856 26.6906 62.2918C33.3275 62.3228 43.0144 60.1796 52.4634 55.0244C60.9922 50.3719 67.7418 43.9466 71.5952 39.2858C72.2081 38.5452 72.286 37.4922 71.7838 36.6689C70.7159 34.9167 69.4287 33.2617 67.9243 31.7433C67.4098 31.2241 66.881 30.7317 66.3357 30.2663C66.1082 30.0697 66.2456 29.6932 66.5448 29.6953C70.9025 29.7263 74.1328 30.9531 75.4753 33.4624C76.6969 35.7442 76.1845 38.7665 74.3029 42.0765L74.3049 42.0723Z" fill="url(#paint1_angular_3247_2570)"/>
</g>
<defs>
<filter id="filter0_i_3247_2570" x="13.8281" y="23.8682" width="73.6846" height="55.3515" filterUnits="userSpaceOnUse" color-interpolation-filters="sRGB">
<feFlood flood-opacity="0" result="BackgroundImageFix"/>
<feBlend mode="normal" in="SourceGraphic" in2="BackgroundImageFix" result="shape"/>
<feColorMatrix in="SourceAlpha" type="matrix" values="0 0 0 0 0 0 0 0 0 0 0 0 0 0 0 0 0 0 127 0" result="hardAlpha"/>
<feOffset dy="1.58192"/>
<feGaussianBlur stdDeviation="6.32768"/>
<feComposite in2="hardAlpha" operator="arithmetic" k2="-1" k3="1"/>
<feColorMatrix type="matrix" values="0 0 0 0 1 0 0 0 0 1 0 0 0 0 1 0 0 0 0.5 0"/>
<feBlend mode="normal" in2="shape" result="effect1_innerShadow_3247_2570"/>
</filter>
<radialGradient id="paint0_radial_3247_2570" cx="0" cy="0" r="1" gradientUnits="userSpaceOnUse" gradientTransform="translate(99.2895 86.145) rotate(-143.766) scale(92.5888)">
<stop stop-color="#CC8418"/>
<stop offset="0.530494" stop-color="#FFC247"/>
<stop offset="0.854167" stop-color="#FFF3C2"/>
<stop offset="1" stop-color="#FFC247"/>
</radialGradient>
<radialGradient id="paint1_angular_3247_2570" cx="0" cy="0" r="1" gradientUnits="userSpaceOnUse" gradientTransform="translate(63.1493 50.7528) rotate(66.2537) scale(26.9801 26.9789)">
<stop offset="0.15" stop-color="#4533B8"/>
<stop offset="0.43" stop-color="#7070FF"/>
<stop offset="0.59" stop-color="#AD67EB"/>
<stop offset="1" stop-color="#7070FF"/>
</radialGradient>
</defs>
</svg>
